<svg xmlns="http://www.w3.org/2000/svg" xmlns:xlink="http://www.w3.org/1999/xlink" viewBox="0 0 361.18 337.97"><defs><style>.cls-1{fill:url(#linear-gradient);}.cls-2{fill:url(#linear-gradient-2);}.cls-3{fill:url(#linear-gradient-3);}.cls-12,.cls-4{fill:none;stroke:#fff;stroke-miterlimit:10;}.cls-4{stroke-width:2.9px;}.cls-5{fill:url(#linear-gradient-4);}.cls-6{fill:url(#linear-gradient-5);}.cls-7{fill:url(#linear-gradient-6);}.cls-8{fill:url(#linear-gradient-7);}.cls-9{opacity:0.7;isolation:isolate;fill:url(#linear-gradient-8);}.cls-10{fill:url(#linear-gradient-9);}.cls-11{fill:#fff;}.cls-12{stroke-width:1.91px;}.cls-13{fill:url(#linear-gradient-10);}.cls-14{fill:url(#linear-gradient-11);}.cls-15{fill:#f9cf47;}.cls-16{fill:url(#linear-gradient-12);}.cls-17{fill:url(#linear-gradient-13);}.cls-18{fill:url(#linear-gradient-14);}</style><linearGradient id="linear-gradient" x1="86.77" y1="240.23" x2="243.9" y2="240.23" gradientUnits="userSpaceOnUse"><stop offset="0" stop-color="#dafce7"/><stop offset="1" stop-color="#74db9f"/></linearGradient><linearGradient id="linear-gradient-2" x1="87.72" y1="308.25" x2="146.63" y2="308.25" xlink:href="#linear-gradient"/><linearGradient id="linear-gradient-3" x1="165.15" y1="297.63" x2="301.25" y2="297.63" xlink:href="#linear-gradient"/><linearGradient id="linear-gradient-4" x1="-2468.37" y1="1743.52" x2="-2466.63" y2="1743.52" gradientTransform="matrix(3.37, 0, 0, -3.37, 8466.16, 6098.24)" gradientUnits="userSpaceOnUse"><stop offset="0" stop-color="#bad9d4"/><stop offset="1" stop-color="#6cccc3"/></linearGradient><linearGradient id="linear-gradient-5" x1="-2447.58" y1="1736.79" x2="-2446.26" y2="1736.79" xlink:href="#linear-gradient-4"/><linearGradient id="linear-gradient-6" x1="-2093.01" y1="1791.04" x2="-2091.27" y2="1791.04" gradientTransform="matrix(2.52, 0, 0, -2.52, 5502.36, 4714.73)" gradientUnits="userSpaceOnUse"><stop offset="0" stop-color="#ee7d31"/><stop offset="1" stop-color="#f4f18e"/></linearGradient><linearGradient id="linear-gradient-7" x1="-2124.82" y1="1767.87" x2="-2123.08" y2="1767.87" xlink:href="#linear-gradient-6"/><linearGradient id="linear-gradient-8" x1="-3518.75" y1="1613.98" x2="-3518.96" y2="1615.32" gradientTransform="matrix(178.04, 0, 0, -176.19, 626711.35, 284746.59)" gradientUnits="userSpaceOnUse"><stop offset="0" stop-color="#d4d6d9"/><stop offset="1" stop-color="#41a1f7" stop-opacity="0"/></linearGradient><linearGradient id="linear-gradient-9" x1="274.92" y1="186.75" x2="270.22" y2="195.61" gradientUnits="userSpaceOnUse"><stop offset="0.03" stop-color="#3955bb"/><stop offset="0.05" stop-color="#3853b8"/><stop offset="0.62" stop-color="#1a225e"/><stop offset="1" stop-color="#0e1339"/></linearGradient><linearGradient id="linear-gradient-10" x1="179.91" y1="79.34" x2="186.09" y2="245.57" gradientUnits="userSpaceOnUse"><stop offset="0" stop-color="#b4dbd5"/><stop offset="1" stop-color="#40d0c4"/></linearGradient><linearGradient id="linear-gradient-11" x1="-3784.26" y1="1630.96" x2="-3783.21" y2="1630.96" gradientTransform="translate(-113435.55 63358.44) rotate(180) scale(30.02 38.75)" gradientUnits="userSpaceOnUse"><stop offset="0" stop-color="#cc79ef"/><stop offset="1" stop-color="#5b24c4"/></linearGradient><linearGradient id="linear-gradient-12" x1="-3752.91" y1="1639.27" x2="-3751.85" y2="1639.27" gradientTransform="translate(-129078.62 43955.67) rotate(180) scale(34.45 26.72)" xlink:href="#linear-gradient-11"/><linearGradient id="linear-gradient-13" x1="225.17" y1="132.05" x2="228.69" y2="204.04" xlink:href="#linear-gradient-9"/><linearGradient id="linear-gradient-14" x1="236.64" y1="168.45" x2="295.33" y2="217.74" gradientUnits="userSpaceOnUse"><stop offset="0" stop-color="#ededed"/><stop offset="0.98" stop-color="#dfdfdf"/></linearGradient></defs><title>Case Studies</title><g id="Layer_2" data-name="Layer 2"><g id="Layer_1-2" data-name="Layer 1"><path class="cls-1" d="M243.9,220.58a173.39,173.39,0,0,0-50.58-7.25c-28.82,0-55.9,6.48-76.28,18.25C100.8,241,90.35,252.78,86.77,265.89l13.95,1.24c3.11-11.33,12.2-21.64,26.31-29.73,17.71-10.23,41.25-15.87,66.3-15.87a146.58,146.58,0,0,1,50.58,8.56Z"/><path class="cls-2" d="M117,319.67c-14.85-8.61-25-19.42-29.31-31.29l13.76-1.6C105.19,297.09,114,306.49,127,314a106.22,106.22,0,0,0,19.67,8.67l-7,7.07a122.18,122.18,0,0,1-22.57-10Z"/><path class="cls-3" d="M165.15,335.78l3.71-7.88A160.21,160.21,0,0,0,197,329.73a157.48,157.48,0,0,0,24.85-2.48,118,118,0,0,0,37.81-13.32c24.62-14.22,33.56-35,23.31-54.26l13.49-2.39c11.78,22.14,1.5,46.06-26.83,62.42-12.18,7-27.22,12.39-43.52,15.32a181.12,181.12,0,0,1-28.58,2.89A184.17,184.17,0,0,1,165.15,335.78Z"/><path class="cls-4" d="M240.6,244.44c27,14.56,27.15,38.2.31,52.76s-70.43,14.56-97.41,0-27.15-38.2-.33-52.77S213.62,229.89,240.6,244.44Z"/><circle class="cls-5" cx="158.29" cy="221.59" r="2.93"/><circle class="cls-6" cx="227.58" cy="244.27" r="2.22"/><circle class="cls-7" cx="236.86" cy="202.16" r="2.19"/><circle class="cls-8" cx="156.8" cy="260.54" r="2.19"/><path class="cls-9" d="M361.18,0,259.44,272.83s-4.87,35.1-74,34.3c-58.93-.64-63.26-38.54-63.26-38.54L0,.7"/><path class="cls-10" d="M275.94,202.49l-15.84-8.75a5.91,5.91,0,0,1-2.27-8.12l1.31-2.28a5.91,5.91,0,0,1,8-2.23l15.81,8.73a7.23,7.23,0,0,1,2.77,9.93h0A7.23,7.23,0,0,1,275.94,202.49Z"/><path class="cls-11" d="M258.53,187.43l-12.24-6.76,3.34-5.82,12.14,6.71a3.36,3.36,0,0,1,1.29,4.61h0A3.36,3.36,0,0,1,258.53,187.43Z"/><polygon class="cls-12" points="217.54 146.91 121.23 202.51 121.23 120.5 217.54 64.9 217.54 146.91"/><polygon class="cls-13" points="233.01 154.14 131.33 212.85 131.33 126.26 233.01 67.56 233.01 154.14"/><path class="cls-14" d="M143.85,162.64c0-10.07,7.08-22.37,15.82-27.4s15.82-.94,15.82,9.14-7.09,22.37-15.82,27.4S143.85,172.72,143.85,162.64Zm5.69-3.28c0,6.44,4.54,9.08,10.13,5.85s10.13-11.11,10.13-17.54-4.54-9.07-10.13-5.85S149.54,152.93,149.54,159.36Z"/><path class="cls-15" d="M143.82,162.66a30.12,30.12,0,0,1,2.85-12.12c3-6.59,7.83-12.33,13-15.28,1.57-.91,2.84-.17,2.84,1.64a6.29,6.29,0,0,1-2.84,4.93,21.83,21.83,0,0,0-8.3,9.79,19.27,19.27,0,0,0-1.82,7.75,6.29,6.29,0,0,1-2.84,4.93C145.12,165.2,143.85,164.46,143.82,162.66Z"/><path class="cls-16" d="M186.14,155.88c1-2.89,2.28-8.88,5.43-9.86s3.11,5.86,5.75,2.6S199,135.17,203.53,133s6.05,6.56,8,7.67,6.89-.8,6.89-.8l-36.31,21S185.32,158.38,186.14,155.88Z"/><path class="cls-11" d="M205.93,122V107.88a1.64,1.64,0,0,1,.68-1.31l.1-.06c.38-.22.68,0,.68.52v14.16a1.64,1.64,0,0,1-.68,1.31l-.1.06C206.24,122.78,205.93,122.55,205.93,122Z"/><path class="cls-11" d="M203.08,120.79V106.63a1.64,1.64,0,0,1,.68-1.31l.1-.06c.38-.22.68,0,.68.52v14.16a1.64,1.64,0,0,1-.68,1.31l-.1.06C203.39,121.53,203.08,121.3,203.08,120.79Z"/><path class="cls-11" d="M200.48,126.19V112a1.64,1.64,0,0,1,.68-1.31l.1-.06c.38-.22.68,0,.68.52v14.16a1.64,1.64,0,0,1-.68,1.31l-.1.06C200.79,126.92,200.48,126.69,200.48,126.19Z"/><path class="cls-11" d="M197.28,126.42V112.26a1.64,1.64,0,0,1,.68-1.31l.1-.06c.38-.22.68,0,.68.52v14.17a1.64,1.64,0,0,1-.68,1.31l-.1.06C197.59,127.17,197.28,126.94,197.28,126.42Z"/><path class="cls-11" d="M194.51,130.23V116.07a1.64,1.64,0,0,1,.68-1.31l.1-.06c.38-.22.68,0,.68.52v14.16a1.64,1.64,0,0,1-.68,1.31l-.1.06C194.82,131,194.5,130.74,194.51,130.23Z"/><path class="cls-11" d="M191.8,130.19V116a1.64,1.64,0,0,1,.68-1.31l.1-.06c.38-.22.68,0,.68.52v14.16a1.64,1.64,0,0,1-.68,1.31l-.1.06C192.14,130.93,191.8,130.7,191.8,130.19Z"/><path class="cls-11" d="M189.41,129.49V118.05a1.48,1.48,0,0,1,.59-1.18l.23-.14c.31-.2.59,0,.59.47v11.43a1.48,1.48,0,0,1-.59,1.18L190,130C189.66,130.15,189.38,129.94,189.41,129.49Z"/><path class="cls-11" d="M186.4,132v-8.85a1.32,1.32,0,0,1,.55-1.05l.37-.21c.3-.18.55,0,.55.41v8.85a1.32,1.32,0,0,1-.55,1.05l-.37.21C186.64,132.65,186.39,132.45,186.4,132Z"/><path class="cls-11" d="M209.15,116.37v-9.24a1.35,1.35,0,0,1,.59-1.07l.35-.2c.34-.17.59,0,.59.42v9.24a1.35,1.35,0,0,1-.59,1.07l-.35.2C209.42,117,209.18,116.78,209.15,116.37Z"/><path class="cls-17" d="M213,202.81a18.79,18.79,0,0,1-9.52-2.47c-6.73-3.89-10.44-11.79-10.44-22.25,0-20.21,14.33-44.93,31.94-55.1,9.18-5.3,18-6.06,24.76-2.15s10.44,11.79,10.44,22.25c0,20.21-14.33,44.93-31.94,55.1C222.88,201.26,217.7,202.81,213,202.81Zm27.2-77.91c-3.59,0-7.66,1.26-12,3.74-15.82,9.13-28.68,31.32-28.68,49.46,0,8,2.55,13.94,7.18,16.61s11.16,1.94,18.24-2.15c15.82-9.13,28.68-31.32,28.68-49.46,0-8-2.55-13.94-7.18-16.61A12.4,12.4,0,0,0,240.16,124.9Z"/><path class="cls-18" d="M216.46,205.14a18.79,18.79,0,0,1-9.52-2.47c-6.73-3.89-10.44-11.79-10.44-22.25,0-20.21,14.33-44.93,31.94-55.1,9.18-5.3,18-6.06,24.76-2.15s10.44,11.79,10.44,22.25c0,20.21-14.33,44.93-31.94,55.1C226.38,203.6,221.2,205.14,216.46,205.14Zm27.2-77.91c-3.59,0-7.66,1.26-12,3.74C215.88,140.1,203,162.29,203,180.43c0,8,2.55,13.94,7.18,16.61s11.16,1.94,18.24-2.15c15.82-9.13,28.68-31.32,28.68-49.46,0-8-2.55-13.94-7.18-16.61A12.4,12.4,0,0,0,243.66,127.23Z"/></g></g></svg>