<?xml version="1.0" encoding="UTF-8"?>
<svg width="228px" height="213px" viewBox="0 0 228 213" version="1.1" xmlns="http://www.w3.org/2000/svg" xmlns:xlink="http://www.w3.org/1999/xlink">
    <!-- Generator: Sketch 55.2 (78181) - https://sketchapp.com -->
    <desc>Created with Sketch.</desc>
    <defs>
        <linearGradient x1="-129.172355%" y1="59.8856655%" x2="-29.1075085%" y2="59.8856655%" id="linearGradient-1">
            <stop stop-color="#BAD9D4" offset="0%"></stop>
            <stop stop-color="#6CCCC3" offset="100%"></stop>
        </linearGradient>
        <linearGradient x1="-152.575342%" y1="39.2054795%" x2="-52.4657534%" y2="39.2054795%" id="linearGradient-2">
            <stop stop-color="#EE7D31" offset="0%"></stop>
            <stop stop-color="#F4F18E" offset="100%"></stop>
        </linearGradient>
        <linearGradient x1="64.5200731%" y1="102.513594%" x2="54.1683371%" y2="46.8651271%" id="linearGradient-3">
            <stop stop-color="#D4D6D9" offset="0%"></stop>
            <stop stop-color="#41A1F7" stop-opacity="0" offset="100%"></stop>
        </linearGradient>
        <linearGradient x1="0%" y1="50.002453%" x2="99.9936362%" y2="50.002453%" id="linearGradient-4">
            <stop stop-color="#DAFCE7" offset="0%"></stop>
            <stop stop-color="#74DB9F" offset="100%"></stop>
        </linearGradient>
        <linearGradient x1="0.0508646999%" y1="49.9767225%" x2="99.9321804%" y2="49.9767225%" id="linearGradient-5">
            <stop stop-color="#DAFCE7" offset="0%"></stop>
            <stop stop-color="#74DB9F" offset="100%"></stop>
        </linearGradient>
        <linearGradient x1="0%" y1="50.0144267%" x2="99.9947677%" y2="50.0144267%" id="linearGradient-6">
            <stop stop-color="#DAFCE7" offset="0%"></stop>
            <stop stop-color="#74DB9F" offset="100%"></stop>
        </linearGradient>
        <linearGradient x1="99.9626257%" y1="50.168131%" x2="-0.360353332%" y2="50.168131%" id="linearGradient-7">
            <stop stop-color="#546E7A" offset="0%"></stop>
            <stop stop-color="#263238" offset="100%"></stop>
        </linearGradient>
        <linearGradient x1="-129095.556%" y1="50.0944825%" x2="-128995.682%" y2="50.0944825%" id="linearGradient-8">
            <stop stop-color="#546E7A" offset="0%"></stop>
            <stop stop-color="#263238" offset="100%"></stop>
        </linearGradient>
        <linearGradient x1="50.161306%" y1="-6.27992931%" x2="48.3562869%" y2="165.913489%" id="linearGradient-9">
            <stop stop-color="#3955BB" offset="3%"></stop>
            <stop stop-color="#3853B8" offset="5%"></stop>
            <stop stop-color="#1A225E" offset="62%"></stop>
            <stop stop-color="#0E1339" offset="100%"></stop>
        </linearGradient>
        <linearGradient x1="-0.00719194722%" y1="50.0637004%" x2="99.9804788%" y2="50.0637004%" id="linearGradient-10">
            <stop stop-color="#FFAB91" offset="0%"></stop>
            <stop stop-color="#FF8A65" offset="100%"></stop>
        </linearGradient>
        <linearGradient x1="-58962.041%" y1="50.0855864%" x2="-58862.129%" y2="50.0855864%" id="linearGradient-11">
            <stop stop-color="#546E7A" offset="0%"></stop>
            <stop stop-color="#263238" offset="100%"></stop>
        </linearGradient>
        <linearGradient x1="-46722.0369%" y1="50.0556898%" x2="-46622.0436%" y2="50.0556898%" id="linearGradient-12">
            <stop stop-color="#546E7A" offset="0%"></stop>
            <stop stop-color="#263238" offset="100%"></stop>
        </linearGradient>
        <linearGradient x1="-0.00341472447%" y1="50.0029785%" x2="100.018634%" y2="50.0029785%" id="linearGradient-13">
            <stop stop-color="#FFAB91" offset="0%"></stop>
            <stop stop-color="#FF8A65" offset="100%"></stop>
        </linearGradient>
        <linearGradient x1="99.9820162%" y1="49.9950172%" x2="0.0306036168%" y2="49.9950172%" id="linearGradient-14">
            <stop stop-color="#CC79EF" offset="0%"></stop>
            <stop stop-color="#5B24C4" offset="100%"></stop>
        </linearGradient>
        <linearGradient x1="69.137852%" y1="-3.82659062%" x2="1.73472617%" y2="151.964498%" id="linearGradient-15">
            <stop stop-color="#3955BB" offset="3%"></stop>
            <stop stop-color="#3853B8" offset="5%"></stop>
            <stop stop-color="#1A225E" offset="62%"></stop>
            <stop stop-color="#0E1339" offset="100%"></stop>
        </linearGradient>
        <linearGradient x1="99.886749%" y1="50.0311438%" x2="0.0560325683%" y2="50.0311438%" id="linearGradient-16">
            <stop stop-color="#CC79EF" offset="0%"></stop>
            <stop stop-color="#5B24C4" offset="100%"></stop>
        </linearGradient>
        <linearGradient x1="0.131632991%" y1="49.9361158%" x2="100.365526%" y2="49.9361158%" id="linearGradient-17">
            <stop stop-color="#FFAB91" offset="0%"></stop>
            <stop stop-color="#FF8A65" offset="100%"></stop>
        </linearGradient>
        <linearGradient x1="-70402.5797%" y1="50.0616129%" x2="-70302.6182%" y2="50.0616129%" id="linearGradient-18">
            <stop stop-color="#546E7A" offset="0%"></stop>
            <stop stop-color="#263238" offset="100%"></stop>
        </linearGradient>
        <linearGradient x1="-121009.688%" y1="50.0253252%" x2="-120909.774%" y2="50.0253252%" id="linearGradient-19">
            <stop stop-color="#546E7A" offset="0%"></stop>
            <stop stop-color="#263238" offset="100%"></stop>
        </linearGradient>
        <linearGradient x1="99.9981107%" y1="49.9818213%" x2="0.0306202073%" y2="49.9818213%" id="linearGradient-20">
            <stop stop-color="#1BE1A1" offset="0%"></stop>
            <stop stop-color="#98D358" offset="100%"></stop>
        </linearGradient>
        <linearGradient x1="63.1899483%" y1="-8.00964222%" x2="49.4832057%" y2="52.9666653%" id="linearGradient-21">
            <stop stop-color="#1BE1A1" offset="0%"></stop>
            <stop stop-color="#98D358" offset="100%"></stop>
        </linearGradient>
        <linearGradient x1="42.7932607%" y1="25.9361367%" x2="59.3012658%" y2="79.1687485%" id="linearGradient-22">
            <stop stop-color="#3955BB" offset="3%"></stop>
            <stop stop-color="#3853B8" offset="5%"></stop>
            <stop stop-color="#1A225E" offset="62%"></stop>
            <stop stop-color="#0E1339" offset="100%"></stop>
        </linearGradient>
        <linearGradient x1="-57667.4518%" y1="49.8028142%" x2="-57567.4373%" y2="49.8028142%" id="linearGradient-23">
            <stop stop-color="#1BE1A1" offset="0%"></stop>
            <stop stop-color="#98D358" offset="100%"></stop>
        </linearGradient>
    </defs>
    <g id="Final" stroke="none" stroke-width="1" fill="none" fill-rule="evenodd">
        <g id="Asset-6">
            <path d="M151.538122,154.040592 C168.543646,163.215976 168.638122,178.113373 151.73337,187.288757 C134.828619,196.464142 107.374144,196.464142 90.3812155,187.288757 C73.3882873,178.113373 73.2812155,163.215976 90.1733702,154.03429 C107.065525,144.852604 134.545193,144.871509 151.538122,154.040592 Z" id="Path" stroke="#FFFFFF" stroke-width="1.827"></path>
            <ellipse id="Oval" fill="url(#linearGradient-1)" fill-rule="nonzero" cx="99.6964641" cy="139.641036" rx="1.84541436" ry="1.84642012"></ellipse>
            <ellipse id="Oval" fill="#FFFFFF" fill-rule="nonzero" cx="85.9723757" cy="58.8459763" rx="1.11480663" ry="1.1154142"></ellipse>
            <ellipse id="Oval" fill="url(#linearGradient-2)" fill-rule="nonzero" cx="149.182541" cy="127.396686" rx="1.37933702" ry="1.38008876"></ellipse>
            <path d="M227.483536,0 L163.404199,171.931331 C163.404199,171.931331 160.336906,194.050562 116.796464,193.54642 C79.6803315,193.143107 76.9531492,169.259379 76.9531492,169.259379 L0,0.44112426" id="Path" fill="url(#linearGradient-3)" fill-rule="nonzero" opacity="0.7"></path>
            <path d="M153.616575,139.004556 C143.281348,135.915863 132.545799,134.37622 121.759558,134.435769 C103.607735,134.435769 86.5518232,138.51932 73.7158011,145.936509 C63.4872928,151.872781 56.9055249,159.296272 54.6507182,167.557899 L63.4369061,168.33932 C65.3956906,161.199408 71.120884,154.702278 80.0078453,149.604142 C91.1622099,143.157426 105.988508,139.603225 121.765856,139.603225 C132.619222,139.513695 143.403345,141.339761 153.622873,144.997544 L153.616575,139.004556 Z" id="Path" fill="url(#linearGradient-4)" fill-rule="nonzero"></path>
            <path d="M73.6906077,201.448846 C64.3375691,196.023018 57.9447514,189.210799 55.2301657,181.730592 L63.8966851,180.722308 C66.2522652,187.219438 71.801105,193.143107 79.9889503,197.87574 C83.9232836,200.11143 88.0741466,201.942015 92.3777901,203.339379 L87.9689503,207.794734 C83.0300115,206.179714 78.2672545,204.068348 73.7535912,201.492959 L73.6906077,201.448846 Z" id="Path" fill="url(#linearGradient-5)" fill-rule="nonzero"></path>
            <path d="M104.017127,211.601006 L106.353812,206.635207 C112.216295,207.540099 118.147109,207.926002 124.077348,207.788432 C129.327598,207.682855 134.561177,207.160266 139.728729,206.225592 C148.087132,204.807066 156.141344,201.968119 163.542762,197.831627 C179.049282,188.870503 184.68,175.775414 178.224199,163.638195 L186.720663,162.132071 C194.14011,176.084201 187.665414,191.158047 169.82221,201.467751 C162.150829,205.878994 152.678122,209.275651 142.411823,211.122071 C136.469256,212.205014 130.450109,212.814 124.41116,212.943284 C117.586918,213.097114 110.762424,212.647945 104.017127,211.601006 Z" id="Path" fill="url(#linearGradient-6)" fill-rule="nonzero"></path>
            <path d="M136.522873,68.355355 C136.522873,68.355355 136.214254,74.7201479 135.729282,78.9927515 C135.244309,83.265355 124.952818,75.7095266 124.952818,75.7095266 L124.952818,70.8382544 L136.522873,68.355355 Z" id="Path" fill="#FF2C9C" fill-rule="nonzero"></path>
            <path d="M131.043315,147.524556 C130.885856,147.908964 128.221657,151.16068 125.557459,151.973609 C124.772338,152.252313 123.93871,152.368098 123.107403,152.313905 C122.868636,152.276134 122.659409,152.133155 122.537379,151.92437 C122.415349,151.715585 122.393396,151.46303 122.477569,151.236302 C123.378178,148.75099 125.213298,146.715881 127.591823,145.564704 C132.082541,143.346479 131.043315,147.524556 131.043315,147.524556 Z" id="Path" fill="url(#linearGradient-7)" fill-rule="nonzero"></path>
            <path d="M131.931381,148.772308 C131.345407,150.166442 130.904301,151.617182 130.615028,153.101627 C130.426077,154.305266 131.087403,155.868107 131.629061,156.882692 C131.788778,157.188026 132.081277,157.401728 132.420584,157.460984 C132.759891,157.520241 133.10745,157.41832 133.361105,157.185178 C134.577424,156.126359 135.350905,154.648295 135.527735,153.044911 C135.836354,149.717574 135.527735,149.137811 135.527735,149.137811 L131.931381,148.772308 Z" id="Path" fill="url(#linearGradient-8)" fill-rule="nonzero"></path>
            <path d="M138.355691,108.573284 C138.560969,111.510526 138.560969,114.458527 138.355691,117.395769 C138.009282,122.033876 136.76221,143.743491 136.529171,148.961361 C136.529171,148.961361 136.642541,150.543107 133.587845,150.221716 C130.533149,149.900325 130.778785,148.116923 130.778785,148.116923 C130.778785,148.116923 126.483315,148.060207 126.369945,145.526893 C126.256575,142.99358 121.961105,115.278373 121.961105,105.308964 L138.355691,108.573284 Z" id="Path" fill="url(#linearGradient-9)" fill-rule="nonzero"></path>
            <path d="M123.447514,73.6992604 C124.019247,73.4626472 124.654297,73.4271006 125.24884,73.598432 C128.095691,74.4176627 138.802873,77.5622485 140.572707,79.0683728 C142.61337,80.8139645 137.511713,90.6132249 137.587293,93.8271302 C137.662873,97.0410355 138.021878,100.828402 138.305304,104.319586 C138.588729,107.810769 138.972928,109.726509 136.119779,111.213728 C133.26663,112.700947 128.391713,112.770266 124.738674,109.984882 C121.085635,107.199497 121.75326,105.296361 121.90442,103.279793 C122.05558,101.263225 123.296354,92.5226627 123.164088,90.0460651 C122.26817,89.3327699 121.510369,88.4613576 120.928177,87.4749408 C119.977127,85.8490828 121.658785,82.8620414 122.357901,80.9210947 C123.057017,78.9801479 121.961105,76.7556213 122.181547,75.1738757 C122.278221,74.4765715 122.773149,73.9000727 123.447514,73.6992604 Z" id="Path" fill="#F9CF47" fill-rule="nonzero"></path>
            <path d="M117.993149,92.0059172 L116.39337,99.5680473 C116.39337,99.5680473 108.394475,113.274408 108.293702,114.774231 C108.192928,116.274053 111.291713,118.775858 112.192376,117.673047 C113.093039,116.570237 113.294586,113.891982 114.081878,113.469763 L115.48011,112.770266 L114.680221,111.169615 C114.680221,111.169615 119.492155,103.349112 120.493591,102.088757 C121.495028,100.828402 122.294917,94.8858284 122.294917,94.8858284 L117.993149,92.0059172 Z" id="Path" fill="#FFC2B0" fill-rule="nonzero"></path>
            <ellipse id="Oval" fill="#FFFFFF" fill-rule="nonzero" transform="translate(130.912831, 77.551272) rotate(-82.700000) translate(-130.912831, -77.551272) " cx="130.912831" cy="77.5512718" rx="3.22017878" ry="4.05616829"></ellipse>
            <ellipse id="Oval" fill="#FFC2B0" fill-rule="nonzero" transform="translate(131.150261, 78.033369) rotate(-82.519114) translate(-131.150261, -78.033369) " cx="131.150261" cy="78.0333692" rx="2.29667391" ry="2.89291517"></ellipse>
            <path d="M129.613591,73.0438757 C129.613591,73.0438757 131.547182,71.4558284 131.925083,72.2561538 C132.302983,73.0564793 132.617901,76.5161538 132.617901,76.5161538 L128.775912,77.549645 L129.355359,74.045858 C129.355359,74.045858 128.59326,73.4030769 129.613591,73.0438757 Z" id="Path" fill="#FFC2B0" fill-rule="nonzero"></path>
            <ellipse id="Oval" fill="#FFC2B0" fill-rule="nonzero" transform="translate(129.336732, 68.917950) rotate(-3.380000) translate(-129.336732, -68.917950) " cx="129.336732" cy="68.91795" rx="5.73150257" ry="5.73460453"></ellipse>
            <path d="M132.189613,73.2644379 C132.221105,73.4471893 132.258895,73.6362426 132.290387,73.8378994 C131.906188,75.8355621 128.920773,76.7052071 128.920773,76.7052071 L129.361657,74.0521598 C129.361657,74.0521598 129.002652,73.7433728 129.103425,73.4219822 C130.281215,73.0627811 131.767624,72.7350888 132.189613,73.2644379 Z" id="Path" fill="#EA9C92" fill-rule="nonzero"></path>
            <path d="M123.611271,69.2565089 C123.800221,72.4073964 125.028398,76.6547929 128.190166,76.4657396 C131.351934,76.2766864 135.238011,71.7394083 135.055359,68.5759172 C134.934974,66.5305135 133.733119,64.7047421 131.90252,63.7863533 C130.071921,62.8679645 127.89069,62.9964834 126.180476,64.1234983 C124.470261,65.2505131 123.490886,67.2048035 123.611271,69.2502071 L123.611271,69.2565089 Z" id="Path" fill="#FFC2B0" fill-rule="nonzero"></path>
            <polygon id="Path" fill="#FFC2B0" fill-rule="nonzero" points="143.457348 93.1969527 142.814917 108.541775 140.572707 108.774941 139.111492 94.9551479"></polygon>
            <path d="M136.088287,91.9113905 C136.207956,91.3757396 137.190497,90.9346154 137.347956,90.2414201 C137.874927,87.3269056 138.194844,84.3786953 138.305304,81.4189349 L138.935138,88.6218639 C138.210829,90.7581657 137.593591,92.7180178 137.618785,93.8523373 C137.662873,95.7428698 137.807735,97.8224556 137.971492,99.9272485 L137.971492,99.9272485 C137.971492,99.9272485 135.345083,95.1883136 136.088287,91.9113905 Z" id="Path" fill="#DBB13A" fill-rule="nonzero"></path>
            <path d="M140.157017,78.7721893 C140.157017,78.7721893 141.952044,79.4590828 142.966077,84.9668343 C143.98011,90.4745858 144.74221,95.9949408 142.928287,96.7070414 C141.114365,97.419142 139.609061,97.9673964 139.073702,96.4801775 C138.538343,94.9929586 138.210829,87.9034615 138.147845,85.3512426 C138.084862,82.7990237 137.984088,79.2637278 140.157017,78.7721893 Z" id="Path" fill="#F9CF47" fill-rule="nonzero"></path>
            <path d="M130.778785,148.091716 C130.366952,148.078467 129.956554,148.036352 129.550608,147.96568 L129.550608,147.96568 L128.70663,114.225976 L130.778785,148.091716 Z" id="Path" fill="#000C3A" fill-rule="nonzero"></path>
            <path d="M134.022431,129.879586 L135.212818,128.323047 L147.759116,121.057101 C148.207351,120.733824 148.476032,120.217207 148.483425,119.664408 L148.483425,109.386213 L149.207735,108.440947 L148.527514,108.050237 L148.527514,108.050237 C148.377483,107.955366 148.186274,107.955366 148.036243,108.050237 L133.814586,116.286657 C133.366351,116.609934 133.09767,117.12655 133.090276,117.679349 L133.090276,128.871302 C133.059832,129.104621 133.161838,129.335477 133.354807,129.46997 L133.354807,129.46997 L134.022431,129.879586 Z" id="Path" fill="#396CAA" fill-rule="nonzero"></path>
            <path d="M142.701547,123.987426 L143.595912,123.47068 L148.489724,114.963284 L148.489724,109.379911 L149.214033,108.434645 L148.533812,108.043935 L148.533812,108.043935 C148.383781,107.949064 148.192573,107.949064 148.042541,108.043935 L133.820884,116.280355 C133.586003,116.435016 133.400243,116.653677 133.285525,116.910533 L142.701547,123.987426 Z" id="Path" fill="#396CAA" fill-rule="nonzero"></path>
            <path d="M148.880221,108.856864 L149.201436,108.440947 L148.521215,108.050237 L148.521215,108.050237 C148.371184,107.955366 148.179976,107.955366 148.029945,108.050237 L147.778011,108.195178 L148.880221,108.856864 Z" id="Path" fill="#396CAA" fill-rule="nonzero"></path>
            <path d="M133.68232,116.406391 C133.340521,116.716065 133.128925,117.143992 133.090276,117.603728 L134.48221,118.404053 L135.149834,117.244527 L133.68232,116.406391 Z" id="Path" fill="#396CAA" fill-rule="nonzero"></path>
            <path d="M134.488508,116.708876 L148.710166,108.472456 C149.11326,108.23929 149.440773,108.472456 149.440773,109.02071 L149.440773,120.212663 C149.43338,120.765462 149.164699,121.282078 148.716464,121.605355 L134.501105,129.816568 C134.098011,130.049734 133.770497,129.816568 133.770497,129.268314 L133.770497,118.076361 C133.784267,117.533616 134.04965,117.028181 134.488508,116.708876 Z" id="Path" fill="#D4ECFF" fill-rule="nonzero"></path>
            <path d="M134.274365,116.58284 L148.496022,108.34642 C148.67271,108.209304 148.925088,108.231262 149.07547,108.396834 C148.948538,108.375624 148.818265,108.402592 148.710166,108.472456 L134.488508,116.708876 C134.040274,117.032153 133.771593,117.548769 133.764199,118.101568 L133.764199,129.293521 C133.754691,129.472067 133.808194,129.648279 133.915359,129.791361 C133.701215,129.747249 133.550055,129.526686 133.550055,129.161183 L133.550055,117.969231 C133.559428,117.418664 133.827893,116.904799 134.274365,116.58284 L134.274365,116.58284 Z" id="Path" fill="#FFFFFF" fill-rule="nonzero"></path>
            <polygon id="Path" fill="#FFFFFF" fill-rule="nonzero" points="137.404641 124.737337 138.084862 124.340325 138.084862 118.523787 137.404641 118.914497"></polygon>
            <polygon id="Path" fill="#FFFFFF" fill-rule="nonzero" points="138.991823 123.82358 139.665746 123.426568 139.665746 117.61003 138.991823 118.00074"></polygon>
            <polygon id="Path" fill="#FFFFFF" fill-rule="nonzero" points="140.572707 122.903521 141.24663 122.512811 141.24663 116.696272 140.572707 117.086982"></polygon>
            <path d="M142.796022,108.390533 C143.071847,109.954706 143.240197,111.535956 143.29989,113.123166 C143.211713,114.270089 142.594475,116.160621 142.128398,116.122811 C141.66232,116.085 142.128398,111.509911 141.297017,111.963639 C140.465635,112.417367 140.390055,113.223994 140.037348,112.921509 C139.684641,112.619024 140.667182,108.73713 140.415249,107.041953 C140.163315,105.346775 142.796022,108.390533 142.796022,108.390533 Z" id="Path" fill="#FFC2B0" fill-rule="nonzero"></path>
            <path d="M127.132044,69.420355 C124.253702,70.4412426 123.699448,69.8173669 123.667956,69.785858 C123.667956,69.6094083 123.617569,69.4392604 123.611271,69.2565089 C123.574664,68.6390339 123.638478,68.0197077 123.800221,67.4226923 L131.257459,66.4144083 C130.240368,67.8333942 128.793962,68.8873054 127.132044,69.420355 L127.132044,69.420355 Z" id="Path" fill="#EA9C92" fill-rule="nonzero"></path>
            <path d="M123.403425,63.5407988 C124.083646,62.9610355 126.552597,60.087426 130.904751,60.761716 C133.64453,61.1839349 135.943425,63.0555621 136.45989,67.3155621 C136.762994,70.1775121 135.793359,73.0280892 133.808287,75.110858 C133.70166,75.0660568 133.598503,75.0133973 133.499669,74.9533136 C132.403757,74.2286095 132.284088,73.8315976 132.284088,73.8315976 L132.044751,71.6574852 C132.042052,71.3390822 132.277165,71.0686901 132.592707,71.0273077 C132.919525,70.991791 133.213145,70.8113588 133.392597,70.5357692 C134.022431,69.7102367 133.732707,68.4309763 132.473039,68.3805621 C132.009384,68.4176422 131.585429,68.1180607 131.465304,67.6684615 C131.426608,67.529868 131.331904,67.4136959 131.203992,67.3479105 C131.076079,67.2821251 130.926543,67.2726855 130.791381,67.3218639 C129.361657,67.8386095 125.834586,68.9603254 123.560884,68.3112426 C120.663646,67.5109172 122.729503,64.1268639 123.403425,63.5407988 Z" id="Path" fill="#FF2C9C" fill-rule="nonzero"></path>
            <path d="M126.899006,74.0080473 L125.148066,73.5291124 C125.64606,74.2881802 126.374709,74.8669993 127.226519,75.1801775 C128.448398,75.5141716 128.637348,74.4806805 128.637348,74.4806805 L126.899006,74.0080473 Z" id="Path" fill="#FFFFFF" fill-rule="nonzero"></path>
            <polygon id="Path" fill="#396CAA" fill-rule="nonzero" points="139.816906 112.833284 141.309613 111.976243 140.749061 112.896302 139.99326 113.17358"></polygon>
            <ellipse id="Oval" fill="#FFFFFF" fill-rule="nonzero" cx="133.272928" cy="70.7059172" rx="1" ry="1"></ellipse>
            <path d="M132.31558,107.760355 C132.31558,107.760355 125.292928,112.480385 124.978011,112.587515 C124.663094,112.694645 110.61779,113.948698 110.61779,113.948698 C110.61779,113.948698 104.319448,113.406746 106.007403,115.618669 C107.695359,117.830592 110.189503,118.341036 113.445746,117.666746 C116.701989,116.992456 125.979448,116.942041 125.979448,116.942041 L137.984088,111.957337 L132.31558,107.760355 Z" id="Path" fill="url(#linearGradient-10)" fill-rule="nonzero"></path>
            <path d="M152.76,172.322041 C154.086151,172.954498 154.874326,174.350303 154.731381,175.813225 C154.719514,176.393666 154.621883,176.969157 154.441657,177.521006 C154.038564,178.371746 152.709613,179.543876 150.587072,178.699438 C148.46453,177.855 143.75337,173.431154 143.577017,170.50713 C143.255801,165.156923 149.409282,170.891538 152.76,172.322041 Z" id="Path" fill="url(#linearGradient-11)" fill-rule="nonzero"></path>
            <path d="M140.301878,181.22645 C140.301878,181.22645 140.812044,184.333225 140.566409,184.900385 C140.320773,185.467544 138.840663,186.683787 136.661436,186.419112 C134.48221,186.154438 128.209061,183.992929 126.810829,179.852663 C124.644199,173.437456 138.922541,180.331598 138.922541,180.331598 L140.301878,181.22645 Z" id="Path" fill="url(#linearGradient-12)" fill-rule="nonzero"></path>
            <path d="M134.154696,131.606272 L133.669724,180.060621 C133.647391,181.662909 134.747319,183.062864 136.308729,183.419467 C136.493481,183.448876 136.690829,183.474083 136.900773,183.495089 C138.006707,183.66265 139.114528,183.204242 139.779116,182.304053 C140.17652,181.729021 140.395603,181.049493 140.40895,180.350503 L141.038785,159.661775 L144.124972,141.166065 L148.414144,173.928994 C148.456872,174.788231 148.887981,175.581347 149.585635,176.084201 C150.162386,176.461482 150.843546,176.646753 151.531823,176.61355 C152.533024,176.574669 153.472042,176.117477 154.120442,175.353195 C154.539625,174.867216 154.764008,174.243091 154.750276,173.601302 L153.049724,153.864142 L152.41989,128.745266 L134.154696,131.606272 Z" id="Path" fill="#D4ECFF" fill-rule="nonzero"></path>
            <path d="M140.453039,88.2248521 L141.221436,92.6360947 C141.190216,93.5847982 140.503905,94.3841834 139.571271,94.5581361 C137.889613,94.9740533 137.373149,93.8901479 137.373149,93.8901479 L136.61105,88.9180473 L140.453039,88.2248521 Z" id="Path" fill="#FFC2B0" fill-rule="nonzero"></path>
            <path d="M131.156685,85.817574 C131.235224,86.3896264 131.268918,86.9669496 131.257459,87.5442604 C131.23716,87.6737053 131.23716,87.8055255 131.257459,87.9349704 C131.377127,88.3571893 131.887293,88.5651479 132.057348,88.9432544 C132.276219,89.605291 132.417823,90.2904354 132.479337,90.9850296 C132.50402,91.2852158 132.638588,91.56572 132.857238,91.7727515 C133.047595,91.8844233 133.266794,91.9370596 133.487072,91.9239941 C135.061657,91.9239941 136.674033,91.2938166 138.191934,90.9409172 C139.709834,90.5880178 141.259227,89.9893491 142.27326,88.647071 C143.69239,86.7097583 144.095382,84.2084379 143.356575,81.9230769 C142.166188,78.1420118 138.469061,75.9426923 135.105746,77.0202959 C133.205008,77.6738474 131.735104,79.2031925 131.156685,81.1290533 C130.627624,82.7675148 130.967735,84.2610355 131.156685,85.817574 Z" id="Path" fill="url(#linearGradient-13)" fill-rule="nonzero"></path>
            <path d="M140.245193,92.7306213 C140.358564,92.6865089 147.381215,88.1618343 149.969834,92.8944675 C154.196022,100.60784 151.103536,109.449231 152.615138,128.65074 C152.867072,131.864645 148.294475,133.824497 146.127845,135.059645 C144.216283,136.186177 142.047512,136.802444 139.829503,136.849349 C137.63768,136.849349 133.430387,134.914704 133.587845,132.047396 C134.286961,118.857781 133.121768,107.74145 132.044751,96.9528107 C132.05105,96.9465089 133.398895,95.5034024 140.245193,92.7306213 Z" id="Path" fill="url(#linearGradient-14)" fill-rule="nonzero"></path>
            <path d="M144.143867,141.159763 L148.414144,173.928994 C148.456872,174.788231 148.887981,175.581347 149.585635,176.084201 C149.702639,176.161583 149.824679,176.231057 149.950939,176.29216 C149.062873,175.624172 146.474254,148.148432 145.99558,145.092071 C145.516906,142.03571 144.143867,141.159763 144.143867,141.159763 Z" id="Path" fill="#396CAA" fill-rule="nonzero"></path>
            <path d="M142.76453,91.4828698 L141.788287,90.4808876 C141.788287,90.4808876 140.188508,92.1193491 138.897348,92.402929 C138.142644,92.6226199 137.371884,92.7827558 136.592155,92.8818639 L135.96232,94.6148521 C135.96232,94.6148521 141.082873,94.2430473 142.76453,91.4828698 Z" id="Path" fill="#FFFFFF" fill-rule="nonzero"></path>
            <path d="M135.754475,85.9310059 C135.48696,85.9316173 135.235752,85.8024213 135.080552,85.5844083 C134.816022,85.2 134.979779,83.4228994 134.160994,83.1330178 C132.901326,82.6729882 129.834033,84.2799408 129.506519,79.6481361 C129.336464,77.240858 130.507956,76.6043787 130.501657,75.2810059 C130.501657,75.2810059 130.400884,75.9111834 136.592155,75.5330769 C142.783425,75.1549704 144.78,80.6186095 144.943757,83.2401479 C145.107514,85.8616864 143.822652,90.1721006 139.590166,90.7581657 C138.89105,90.8589941 135.943425,88.4832249 136.019006,88.1744379 C136.094586,87.8656509 137.209392,87.8782544 137.045635,86.9771006 C137.015547,86.6660179 136.861882,86.3800491 136.619125,86.183368 C136.376368,85.9866868 136.064849,85.8957649 135.754475,85.9310059 L135.754475,85.9310059 Z" id="Path" fill="url(#linearGradient-15)" fill-rule="nonzero"></path>
            <path d="M135.35768,98.1186391 L141.026188,111.64855 L132.208508,114.799438 C132.208508,114.799438 130.004088,104.886746 130.004088,103.456243 C130.004088,102.02574 129.216796,97.6586095 132.044751,96.9402071 C134.872707,96.2218047 135.35768,98.1186391 135.35768,98.1186391 Z" id="Path" fill="url(#linearGradient-16)" fill-rule="nonzero"></path>
            <path d="M140.226298,111.459497 C140.477978,112.8733 140.583507,114.309274 140.541215,115.744704 C140.383757,117.320148 135.502541,139.69145 135.502541,139.69145 C135.502541,139.69145 134.299558,141.052633 133.877569,141.052633 C133.45558,141.052633 132.302983,138.847012 132.832044,135.072249 C133.361105,131.297485 133.890166,128.556213 133.890166,128.556213 L135.672597,119.009024 L134.52,113.967604 L140.226298,111.459497 Z" id="Path" fill="url(#linearGradient-17)" fill-rule="nonzero"></path>
            <path d="M92.6297238,158.231272 C92.7934807,158.640888 95.6025414,162.05645 98.4116022,162.913491 C99.2390027,163.207694 100.117691,163.329919 100.993923,163.272692 C101.250394,163.240316 101.478216,163.09296 101.613013,162.872262 C101.747811,162.651565 101.774942,162.381497 101.68674,162.138373 C100.732069,159.532403 98.8005336,157.400905 96.3016575,156.195799 C91.5275138,153.832633 92.6297238,158.231272 92.6297238,158.231272 Z" id="Path" fill="url(#linearGradient-18)" fill-rule="nonzero"></path>
            <path d="M91.6912707,159.548343 C92.3081895,161.017645 92.7725087,162.54651 93.0769061,164.110828 C93.278453,165.371183 92.579337,167.022249 92.0061878,168.112456 C91.8359492,168.430842 91.5285466,168.652953 91.1729403,168.71451 C90.8173341,168.776067 90.4532187,168.6702 90.1859669,168.427544 C88.905473,167.312092 88.0915107,165.755272 87.9059669,164.066716 C87.578453,160.562929 87.9059669,159.951657 87.9059669,159.951657 L91.6912707,159.548343 Z" id="Path" fill="url(#linearGradient-19)" fill-rule="nonzero"></path>
            <path d="M84.9268508,117.213018 C84.710167,120.309701 84.710167,123.417754 84.9268508,126.514438 C85.2921547,131.398314 86.6022099,154.242249 86.8478453,159.75 C86.8478453,159.75 86.7281768,161.413669 89.9466298,161.048166 C93.1650829,160.682663 92.9068508,158.836243 92.9068508,158.836243 C92.9068508,158.836243 97.4290608,158.773225 97.5739227,156.107574 C97.7187845,153.441923 102.203204,124.258402 102.203204,113.765947 L84.9268508,117.213018 Z" id="Path" fill="#D4ECFF" fill-rule="nonzero"></path>
            <path d="M92.9068508,158.842544 C93.3398017,158.828707 93.7712483,158.784486 94.198011,158.710207 L94.198011,158.710207 L95.1049724,123.187101 L92.9068508,158.842544 Z" id="Path" fill="#396CAA" fill-rule="nonzero"></path>
            <path d="M89.7072928,84.8029882 C82.4012155,87.834142 82.5458666,92.1571598 82.5458666,92.1571598 C82.5458666,92.1571598 83.9758011,107.999822 83.4908287,118.580503 C83.2892818,122.991746 106.977348,123.338343 103.443978,111.54142 C99.2807735,97.6271006 100.842762,86.3343195 98.8902762,84.6643491 C96.9377901,82.9943787 91.5967956,84.021568 89.7072928,84.8029882 Z" id="Path" fill="url(#linearGradient-20)" fill-rule="nonzero"></path>
            <path d="M88.9451934,98.4463314 L93.2280663,105.737485 L113.880331,115.530444 C113.880331,115.530444 115.341547,118.290621 114.692818,118.303225 C114.044088,118.315828 111.921547,119.116154 110.498122,118.303225 C109.074696,117.490296 107.260773,116.26145 107.260773,116.26145 L89.9781215,109.329497 L85.298453,103.204172 L88.9451934,98.4463314 Z" id="Path" fill="#FFC2B0" fill-rule="nonzero"></path>
            <path d="M86.2872928,90.7455621 C85.720442,88.3823964 83.7175691,87.4245266 82.8043094,89.6742604 C81.9477348,91.7979586 80.5746961,94.085503 81.0848619,97.2742012 C81.3556906,98.9819822 83.1192265,103.19787 83.8561326,104.577959 C84.1547001,105.122877 84.7087705,105.479432 85.3281725,105.525244 C85.9475744,105.571057 86.5480218,105.299893 86.9234254,104.804822 L90.5764641,100.034379 L86.3187845,90.890503 C86.3187845,90.890503 86.3250829,90.8400888 86.2872928,90.7455621 Z" id="Path" fill="url(#linearGradient-21)" fill-rule="nonzero"></path>
            <ellipse id="Oval" fill="#FFC2B0" fill-rule="nonzero" transform="translate(91.002812, 87.702087) rotate(-14.440000) translate(-91.002812, -87.702087) " cx="91.0028121" cy="87.7020874" rx="3.76653648" ry="2.77268719"></ellipse>
            <path d="M86.9171271,88.7478994 L86.9171271,88.7478994 C86.7066608,87.8292764 86.9556652,86.8656212 87.5847514,86.1641716 C88.9982826,84.5640899 91.2412824,83.9830857 93.2532597,84.695858 C94.1418866,85.0047742 94.825289,85.7261449 95.0860773,86.630503 C95.5332597,88.3571893 94.0531492,90.2351183 91.7983425,90.8211834 C91.3580031,90.9344028 90.9051437,90.9915704 90.4504972,90.9913649 C88.7436464,90.9976331 87.2698343,90.1153846 86.9171271,88.7478994 Z M90.4316022,85.452071 C89.6009363,85.6488331 88.8536507,86.1031834 88.2964641,86.7502367 C87.85685,87.2266809 87.673925,87.8860393 87.8051934,88.5210355 L87.8051934,88.5210355 C88.1201105,89.7813905 89.820663,90.411568 91.5841989,89.9389349 C93.3477348,89.4663018 94.5318232,88.1051183 94.2106077,86.8699704 C94.0235076,86.2571474 93.5556232,85.7702824 92.9509392,85.5592012 C92.5176045,85.3893857 92.0558723,85.3038332 91.5904972,85.3071302 C91.1995823,85.305473 90.8100813,85.3541871 90.4316022,85.452071 L90.4316022,85.452071 Z" id="Shape" fill="#FFFFFF" fill-rule="nonzero"></path>
            <path d="M92.6360221,84.443787 C92.5940236,85.3138127 92.6150732,86.1857396 92.6990055,87.0527219 C92.7367956,87.7837278 90.1796685,88.4643195 89.5498343,87.8026331 C88.92,87.1409467 89.1530387,86.460355 88.9955801,83.9774556 C88.8381215,81.4945562 92.6360221,84.443787 92.6360221,84.443787 Z" id="Path" fill="#FFC2B0" fill-rule="nonzero"></path>
            <path d="M88.9262983,83.4292012 C88.9262983,83.4292012 89.9970166,86.5422781 93.0958011,87.4245266 L92.6612155,85.1054734 L88.9262983,83.4292012 Z" id="Path" fill="#EA9C92" fill-rule="nonzero"></path>
            <path d="M102.467735,83.5048225 L106.397901,81.809645 C106.847984,81.6150509 107.195455,81.2399439 107.355249,80.7761538 L111.235028,69.5274852 L113.030055,69.842574 L109.880884,83.8388166 C109.734848,84.4927965 109.318184,85.0539954 108.734586,85.3827515 L102.190608,89.0566864 L102.467735,83.5048225 Z" id="Path" fill="#FFC2B0" fill-rule="nonzero"></path>
            <path d="M86.7092818,77.2282544 C85.6511602,81.3370118 89.638011,85.2378107 93.461105,85.8301775 C94.4163251,86.0590961 95.4238272,85.8537951 96.2134807,85.2693195 C96.7933391,84.6245131 97.1394298,83.8032097 97.1960221,82.9376627 C97.3934846,81.7072054 97.511299,80.4652705 97.5487293,79.2196154 C97.6810822,78.3066143 97.6144762,77.3757713 97.3534807,76.4909467 C96.4292077,74.2531159 94.1778494,72.8577261 91.7636623,73.0263825 C89.3494752,73.1950389 87.3137701,74.8899253 86.7092818,77.2345562 L86.7092818,77.2282544 Z" id="Path" fill="#FFC2B0" fill-rule="nonzero"></path>
            <path d="M96.5032044,76.7619231 C96.2870819,76.7083476 96.0631963,76.6934137 95.8418785,76.7178107 C95.5212859,76.8064127 95.2125388,76.9333642 94.9223204,77.0959172 C94.3565236,77.3237349 93.7245813,77.3237349 93.1587845,77.0959172 C92.9601274,76.9961683 92.7479256,76.9261035 92.5289503,76.8879586 C91.899116,76.8312426 91.5967956,77.4299112 91.1685083,77.7639053 C90.740221,78.0978994 90.2363536,78.2869527 89.9088398,78.8352071 C89.8260426,78.9965271 89.69354,79.1268923 89.5309392,79.2070118 C89.1278453,79.3645562 88.1893923,77.745 87.3769061,77.8269231 C86.5644199,77.9088462 86.1172376,78.5642308 86.9360221,79.5221006 C87.2383425,79.875 88.1956906,82.2066568 87.061989,81.7277219 C86.2558011,81.3811243 85.5125967,79.3078402 85.1409945,78.5768343 C84.6344308,77.7882603 84.3897535,76.859744 84.4418785,75.923787 C84.6749171,74.5247929 86.1928177,73.5795266 86.3313812,72.1427219 C86.3143398,71.7730895 86.3743986,71.4039556 86.5077348,71.0588166 C86.6457408,70.8582489 86.8320263,70.6957021 87.0493923,70.5861834 C87.7614395,70.1648898 88.545046,69.8786214 89.360884,69.7417456 C90.3686188,69.5715976 91.4897238,69.6094083 92.2896133,68.9666272 C92.5298685,68.7091813 92.8133901,68.495891 93.1272928,68.3364497 C93.3346967,68.290232 93.5497232,68.290232 93.7571271,68.3364497 C94.6166188,68.4503868 95.4208619,68.8241459 96.0623204,69.4077515 C96.4150276,69.729142 96.6921547,70.1135503 97.0889503,70.3971302 C98.0148066,71.102929 98.720221,70.4979586 99.2870718,71.720503 C99.7708728,72.6695236 99.8982606,73.7607363 99.6460773,74.7957692 C99.3265407,76.0211915 98.2029696,76.8630219 96.9377901,76.8249408 C96.8307182,76.8312426 96.6669613,76.793432 96.5032044,76.7619231 Z" id="Path" fill="url(#linearGradient-22)" fill-rule="nonzero"></path>
            <path d="M113.030055,69.842574 L113.370166,69.4455621 C113.765132,68.9895093 114.020904,68.4295681 114.107072,67.8323077 L114.346409,66.1938462 C114.425315,65.6827223 114.217251,65.1695411 113.804751,64.8578698 L113.760663,64.8263609 C113.546041,64.6852516 113.279173,64.6487585 113.034578,64.7270716 C112.789983,64.8053846 112.593869,64.9901127 112.500994,65.2296746 L111.694807,67.1832249 C111.694807,67.1832249 111.94674,66.1686391 111.625525,66.0615089 C111.304309,65.9543787 110.932707,67.2336391 111.203536,67.9520414 C111.349831,68.4734123 111.349831,69.0250197 111.203536,69.5463905 L113.030055,69.842574 Z" id="Path" fill="#FFC2B0" fill-rule="nonzero"></path>
            <path d="M96.8748066,83.8577219 C96.8748066,83.8577219 103.43768,82.5595562 105.440552,81.9671893 C107.443425,81.3748225 108.281105,86.8636686 108.129945,88.2689645 C107.978785,89.6742604 101.151381,91.224497 100.345193,93.6191716 C99.5390055,96.0138462 96.8748066,83.8577219 96.8748066,83.8577219 Z" id="Path" fill="url(#linearGradient-23)" fill-rule="nonzero"></path>
            <path d="M122.219337,75.167574 C122.219337,75.167574 116.09105,89.2709467 116.991713,91.3757396 C117.892376,93.4805325 122.030387,95.5286095 122.030387,95.5286095 L124.127735,85.4457692 C124.127735,85.4457692 124.077348,74.4680769 122.219337,75.167574 Z" id="Path" fill="#F9CF47" fill-rule="nonzero"></path>
        </g>
    </g>
</svg>