<?xml version="1.0" encoding="UTF-8"?>
<svg width="87px" height="87px" viewBox="0 0 87 87" version="1.1" xmlns="http://www.w3.org/2000/svg" xmlns:xlink="http://www.w3.org/1999/xlink">
    <!-- Generator: Sketch 55.2 (78181) - https://sketchapp.com -->
    <title>ecommerce</title>
    <desc>Created with Sketch.</desc>
    <g id="Page-1" stroke="none" stroke-width="1" fill="none" fill-rule="evenodd" opacity="0.899999976">
        <g id="TractionToday-v.3" transform="translate(-677.000000, -1648.000000)" fill="#53A082" fill-rule="nonzero">
            <g id="ecommerce" transform="translate(677.000000, 1648.000000)">
                <polygon id="Path" points="47.7096774 64.5483871 50.516129 64.5483871 50.516129 67.3548387 47.7096774 67.3548387"></polygon>
                <polygon id="Path" points="42.0967742 64.5483871 44.9032258 64.5483871 44.9032258 67.3548387 42.0967742 67.3548387"></polygon>
                <polygon id="Path" points="36.483871 64.5483871 39.2903226 64.5483871 39.2903226 67.3548387 36.483871 67.3548387"></polygon>
                <path d="M71.5645161,0 C63.5268387,0 56.9120323,6.177 56.2005968,14.0322581 L7.01612903,14.0322581 C3.14743548,14.0322581 0,17.1796935 0,21.0483871 L0,65.9516129 C0,69.8203065 3.14743548,72.9677419 7.01612903,72.9677419 L30.3279194,72.9677419 L28.4574194,78.5806452 L28.0645161,78.5806452 C24.969,78.5806452 22.4516129,81.0980323 22.4516129,84.1935484 C22.4516129,85.7413065 23.7103065,87 25.2580645,87 L61.7419355,87 C63.2896935,87 64.5483871,85.7413065 64.5483871,84.1935484 C64.5483871,81.0980323 62.031,78.5806452 58.9354839,78.5806452 L58.5425806,78.5806452 L56.6720806,72.9677419 L79.983871,72.9677419 C83.8525645,72.9677419 87,69.8203065 87,65.9516129 L87,15.4354839 C87,6.92491935 80.0750806,0 71.5645161,0 Z M71.5645161,2.80645161 C78.5287258,2.80645161 84.1935484,8.47267742 84.1935484,15.4354839 C84.1935484,22.3982903 78.5287258,28.0645161 71.5645161,28.0645161 C64.6003065,28.0645161 58.9354839,22.3982903 58.9354839,15.4354839 C58.9354839,8.47267742 64.6003065,2.80645161 71.5645161,2.80645161 Z M61.7433387,84.1935484 L25.2580645,84.1935484 C25.2580645,82.6457903 26.5167581,81.3870968 28.0645161,81.3870968 L58.9354839,81.3870968 C60.4832419,81.3870968 61.7419355,82.6457903 61.7433387,84.1935484 Z M55.5859839,78.5806452 L31.4140161,78.5806452 L33.2845161,72.9677419 L53.7154839,72.9677419 L55.5859839,78.5806452 Z M79.983871,70.1612903 L7.01612903,70.1612903 C4.69519355,70.1612903 2.80645161,68.2725484 2.80645161,65.9516129 L2.80645161,64.5483871 L32.855129,64.5483871 L35.6615806,61.7419355 L51.3384194,61.7419355 L54.144871,64.5483871 L84.1935484,64.5483871 L84.1935484,65.9516129 C84.1935484,68.2725484 82.3048065,70.1612903 79.983871,70.1612903 Z M84.1935484,61.7419355 L55.3067419,61.7419355 L52.5002903,58.9354839 L34.4997097,58.9354839 L31.6932581,61.7419355 L2.80645161,61.7419355 L2.80645161,21.0483871 C2.80645161,18.7274516 4.69519355,16.8387097 7.01612903,16.8387097 L56.2005968,16.8387097 C56.9120323,24.6939677 63.5268387,30.8709677 71.5645161,30.8709677 C76.7845161,30.8709677 81.3983226,28.2595645 84.1935484,24.2828226 L84.1935484,61.7419355 Z" id="Shape"></path>
                <polygon id="Path" points="65.5404677 17.2498548 63.5563065 19.2340161 68.7580645 24.4357742 80.9759516 12.2178871 78.9917903 10.2337258 68.7580645 20.4674516"></polygon>
                <path d="M71.5645161,8.41935484 L71.5645161,5.61290323 C66.1494677,5.61290323 61.7419355,10.0190323 61.7419355,15.4354839 L64.5483871,15.4354839 C64.5483871,11.5667903 67.6958226,8.41935484 71.5645161,8.41935484 Z" id="Path"></path>
                <path d="M37.3314194,27.5102419 C36.6690968,24.5311935 34.0745323,22.4516129 31.0225161,22.4516129 L19.4922097,22.4516129 C16.4401935,22.4516129 13.8470323,24.5311935 13.1847097,27.5102419 L8.57370968,48.2639516 C8.47127419,48.7214032 8.41935484,49.1942903 8.41935484,49.6671774 C8.41935484,53.231371 11.3170161,56.1290323 14.8798065,56.1290323 L35.6349194,56.1290323 C39.1991129,56.1290323 42.0967742,53.231371 42.0967742,49.6685806 C42.0967742,49.1942903 42.0448548,48.7214032 41.9438226,48.2667581 L37.3314194,27.5102419 Z M21.0483871,25.2580645 L29.4677419,25.2580645 L29.4677419,32.2741935 C29.4677419,34.595129 27.579,36.483871 25.2580645,36.483871 C22.937129,36.483871 21.0483871,34.595129 21.0483871,32.2741935 L21.0483871,25.2580645 Z M35.6363226,53.3225806 L14.8798065,53.3225806 C12.8647742,53.3225806 11.2258065,51.6836129 11.2258065,49.6685806 C11.2258065,49.4005645 11.2552742,49.1353548 11.3128065,48.8757581 L15.9252097,28.1192419 C16.2044516,26.8619516 17.0912903,25.8895161 18.2405323,25.4769677 L18.2405323,32.2741935 C18.2405323,36.1428871 21.3879677,39.2903226 25.2566613,39.2903226 C29.1253548,39.2903226 32.2727903,36.1428871 32.2727903,32.2741935 L32.2727903,25.4769677 C33.4220323,25.8909194 34.3102742,26.8633548 34.5881129,28.1192419 L39.2019194,48.8771613 C39.2608548,49.1339516 39.2903226,49.4005645 39.2903226,49.6685806 C39.2903226,51.6836129 37.6513548,53.3225806 35.6363226,53.3225806 Z" id="Shape"></path>
                <polygon id="Path" points="47.7096774 33.6774194 50.516129 33.6774194 50.516129 36.483871 47.7096774 36.483871"></polygon>
                <polygon id="Path" points="53.3225806 33.6774194 78.5806452 33.6774194 78.5806452 36.483871 53.3225806 36.483871"></polygon>
                <polygon id="Path" points="47.7096774 39.2903226 78.5806452 39.2903226 78.5806452 42.0967742 47.7096774 42.0967742"></polygon>
                <polygon id="Path" points="47.7096774 44.9032258 70.1612903 44.9032258 70.1612903 47.7096774 47.7096774 47.7096774"></polygon>
                <polygon id="Path" points="72.9677419 44.9032258 78.5806452 44.9032258 78.5806452 47.7096774 72.9677419 47.7096774"></polygon>
                <polygon id="Path" points="47.7096774 50.516129 78.5806452 50.516129 78.5806452 53.3225806 47.7096774 53.3225806"></polygon>
                <polygon id="Path" points="64.5483871 56.1290323 67.3548387 56.1290323 67.3548387 58.9354839 64.5483871 58.9354839"></polygon>
                <polygon id="Path" points="70.1612903 56.1290323 72.9677419 56.1290323 72.9677419 58.9354839 70.1612903 58.9354839"></polygon>
                <polygon id="Path" points="75.7741935 56.1290323 78.5806452 56.1290323 78.5806452 58.9354839 75.7741935 58.9354839"></polygon>
            </g>
        </g>
    </g>
</svg>