<svg xmlns="http://www.w3.org/2000/svg" xmlns:xlink="http://www.w3.org/1999/xlink" viewBox="0 0 900.91 787.01"><defs><style>.cls-1,.cls-5,.cls-7{isolation:isolate;}.cls-2{fill:url(#linear-gradient);}.cls-3{fill:url(#linear-gradient-2);}.cls-4{fill:url(#linear-gradient-3);}.cls-5{opacity:0.7;fill:url(#linear-gradient-4);}.cls-6,.cls-79,.cls-80,.cls-81,.cls-92,.cls-93,.cls-94,.cls-95,.cls-96{fill:none;stroke-miterlimit:10;}.cls-6{stroke:#fff;stroke-width:3.46px;}.cls-7{opacity:0.16;fill:url(#linear-gradient-5);}.cls-115,.cls-116,.cls-8{fill:#fff;}.cls-8{opacity:0.65;}.cls-9{fill:url(#linear-gradient-6);}.cls-10{fill:url(#linear-gradient-7);}.cls-11{fill:#3f99de;}.cls-12{fill:#f9f9f9;}.cls-13{fill:url(#linear-gradient-8);}.cls-14{fill:url(#linear-gradient-9);}.cls-15{fill:url(#linear-gradient-10);}.cls-16{fill:url(#linear-gradient-11);}.cls-17{fill:url(#linear-gradient-12);}.cls-18{fill:url(#linear-gradient-13);}.cls-19{fill:url(#linear-gradient-14);}.cls-20{fill:url(#linear-gradient-15);}.cls-21{fill:url(#linear-gradient-16);}.cls-22{fill:url(#linear-gradient-17);}.cls-23{fill:url(#linear-gradient-18);}.cls-24{fill:url(#linear-gradient-19);}.cls-25{fill:#263238;}.cls-26{fill:url(#linear-gradient-20);}.cls-27{fill:url(#linear-gradient-21);}.cls-28{fill:url(#linear-gradient-22);}.cls-29{fill:url(#linear-gradient-23);}.cls-30{fill:#bc6e5c;}.cls-31{fill:#9b574c;}.cls-32{fill:url(#linear-gradient-24);}.cls-33{fill:url(#linear-gradient-25);}.cls-34{fill:url(#linear-gradient-26);}.cls-35{fill:url(#linear-gradient-27);}.cls-36{fill:url(#linear-gradient-28);}.cls-37{fill:url(#linear-gradient-29);}.cls-38{fill:url(#linear-gradient-30);}.cls-39{fill:url(#linear-gradient-31);}.cls-40{fill:url(#linear-gradient-32);}.cls-41{fill:url(#linear-gradient-33);}.cls-42{fill:url(#linear-gradient-34);}.cls-43{fill:url(#linear-gradient-35);}.cls-44{fill:url(#linear-gradient-36);}.cls-45{fill:url(#linear-gradient-37);}.cls-46{fill:url(#linear-gradient-38);}.cls-47{fill:url(#linear-gradient-39);}.cls-48{fill:url(#linear-gradient-40);}.cls-49{fill:url(#linear-gradient-41);}.cls-50{fill:url(#linear-gradient-42);}.cls-51{fill:url(#linear-gradient-43);}.cls-52{fill:url(#linear-gradient-44);}.cls-53{fill:url(#linear-gradient-45);}.cls-54{fill:#fffdfd;}.cls-55{fill:url(#linear-gradient-46);}.cls-56{fill:url(#linear-gradient-47);}.cls-57{fill:url(#linear-gradient-48);}.cls-58{fill:url(#linear-gradient-49);}.cls-59{fill:url(#linear-gradient-50);}.cls-60{fill:url(#linear-gradient-51);}.cls-61{fill:url(#linear-gradient-52);}.cls-62{fill:url(#linear-gradient-53);}.cls-63{fill:url(#linear-gradient-54);}.cls-64{fill:url(#linear-gradient-55);}.cls-65{fill:url(#linear-gradient-56);}.cls-66{fill:url(#linear-gradient-57);}.cls-67{fill:url(#linear-gradient-58);}.cls-68{fill:url(#linear-gradient-59);}.cls-69{fill:url(#linear-gradient-60);}.cls-70{fill:url(#linear-gradient-61);}.cls-71{fill:url(#linear-gradient-62);}.cls-72{fill:url(#linear-gradient-63);}.cls-73{fill:url(#linear-gradient-64);}.cls-74{fill:url(#linear-gradient-65);}.cls-75{fill:url(#linear-gradient-66);}.cls-76{fill:url(#linear-gradient-67);}.cls-77{fill:url(#linear-gradient-68);}.cls-78{fill:url(#linear-gradient-69);}.cls-79{stroke-width:3px;stroke:url(#linear-gradient-70);}.cls-79,.cls-80,.cls-81{opacity:0.3;}.cls-80,.cls-81{stroke-width:2.09px;}.cls-80{stroke:url(#linear-gradient-71);}.cls-81{stroke:url(#linear-gradient-72);}.cls-82{fill:url(#linear-gradient-73);}.cls-83{fill:url(#linear-gradient-74);}.cls-84{fill:url(#linear-gradient-75);}.cls-85{fill:url(#linear-gradient-76);}.cls-86{opacity:0.2;fill:url(#linear-gradient-77);}.cls-87{fill:url(#linear-gradient-78);}.cls-88{fill:url(#linear-gradient-79);}.cls-89{fill:url(#linear-gradient-80);}.cls-90{fill:url(#linear-gradient-81);}.cls-91{fill:url(#linear-gradient-82);}.cls-92{stroke:url(#linear-gradient-83);}.cls-93{stroke:url(#linear-gradient-84);}.cls-94{stroke:url(#linear-gradient-85);}.cls-95{stroke:url(#linear-gradient-86);}.cls-96{stroke:url(#linear-gradient-87);}.cls-97{fill:url(#linear-gradient-88);}.cls-98{fill:url(#linear-gradient-89);}.cls-99{fill:url(#linear-gradient-90);}.cls-100{fill:url(#linear-gradient-91);}.cls-101{fill:url(#linear-gradient-92);}.cls-102{fill:url(#linear-gradient-93);}.cls-103{fill:#081929;}.cls-104{fill:url(#linear-gradient-94);}.cls-105{fill:url(#linear-gradient-95);}.cls-106{fill:url(#linear-gradient-96);}.cls-107{fill:url(#linear-gradient-97);}.cls-108{fill:url(#linear-gradient-98);}.cls-109{fill:url(#linear-gradient-99);}.cls-110{fill:url(#linear-gradient-100);}.cls-111{fill:url(#linear-gradient-101);}.cls-112{fill:url(#linear-gradient-102);}.cls-113{fill:#ffbf00;}.cls-114{fill:#f9cf47;}.cls-115{opacity:0.4;mix-blend-mode:screen;}.cls-117{fill:url(#linear-gradient-103);}</style><linearGradient id="linear-gradient" x1="375.77" y1="-171.59" x2="271.33" y2="2117.47" gradientUnits="userSpaceOnUse"><stop offset="0" stop-color="#dafce7"/><stop offset="1" stop-color="#74db9f"/></linearGradient><linearGradient id="linear-gradient-2" x1="221.48" y1="-178.63" x2="117.03" y2="2110.43" xlink:href="#linear-gradient"/><linearGradient id="linear-gradient-3" x1="614.71" y1="-160.69" x2="510.27" y2="2128.37" xlink:href="#linear-gradient"/><linearGradient id="linear-gradient-4" x1="-444.98" y1="1553.62" x2="-445.37" y2="1556.12" gradientTransform="matrix(178.04, 0, 0, -176.19, 79779.63, 274541.78)" gradientUnits="userSpaceOnUse"><stop offset="0" stop-color="#d4d6d9"/><stop offset="1" stop-color="#41a1f7" stop-opacity="0"/></linearGradient><linearGradient id="linear-gradient-5" x1="455.95" y1="713.2" x2="451.45" y2="138.82" gradientUnits="userSpaceOnUse"><stop offset="0" stop-color="#76e4de"/><stop offset="0.79" stop-color="#253c73"/><stop offset="1" stop-color="#141257" stop-opacity="0"/></linearGradient><linearGradient id="linear-gradient-6" x1="413.76" y1="493.15" x2="365.9" y2="662.32" gradientUnits="userSpaceOnUse"><stop offset="0" stop-color="#ff7600"/><stop offset="0.73" stop-color="#f4f37f" stop-opacity="0"/></linearGradient><linearGradient id="linear-gradient-7" x1="432.9" y1="498.59" x2="385.04" y2="667.76" xlink:href="#linear-gradient-6"/><linearGradient id="linear-gradient-8" x1="465.1" y1="564.82" x2="472.66" y2="564.82" gradientUnits="userSpaceOnUse"><stop offset="0" stop-color="#cc79ef"/><stop offset="1" stop-color="#5b24c4"/></linearGradient><linearGradient id="linear-gradient-9" x1="372.66" y1="696.83" x2="378.14" y2="696.83" gradientUnits="userSpaceOnUse"><stop offset="0" stop-color="#5fb4b4"/><stop offset="1" stop-color="#74db9f"/></linearGradient><linearGradient id="linear-gradient-10" x1="344.85" y1="571.9" x2="347.97" y2="571.9" xlink:href="#linear-gradient-9"/><linearGradient id="linear-gradient-11" x1="390.93" y1="479.9" x2="395.28" y2="479.9" gradientUnits="userSpaceOnUse"><stop offset="0" stop-color="#ff7600"/><stop offset="1" stop-color="#f4f37f"/></linearGradient><linearGradient id="linear-gradient-12" x1="286.03" y1="631.59" x2="290.94" y2="631.59" xlink:href="#linear-gradient-8"/><linearGradient id="linear-gradient-13" x1="566.49" y1="286.79" x2="571.77" y2="286.79" xlink:href="#linear-gradient-9"/><linearGradient id="linear-gradient-14" x1="279.88" y1="574.15" x2="283.78" y2="574.15" xlink:href="#linear-gradient-9"/><linearGradient id="linear-gradient-15" x1="136.03" y1="376.86" x2="140.95" y2="376.86" xlink:href="#linear-gradient-8"/><linearGradient id="linear-gradient-16" x1="228.85" y1="524.14" x2="232.74" y2="524.14" xlink:href="#linear-gradient-11"/><linearGradient id="linear-gradient-17" x1="740.01" y1="262.54" x2="744.36" y2="262.54" xlink:href="#linear-gradient-11"/><linearGradient id="linear-gradient-18" x1="751.82" y1="225.49" x2="755.39" y2="225.49" xlink:href="#linear-gradient-8"/><linearGradient id="linear-gradient-19" x1="674.17" y1="468.29" x2="673.66" y2="403.74" xlink:href="#linear-gradient-8"/><linearGradient id="linear-gradient-20" x1="-680.01" y1="1562.21" x2="-677.36" y2="1562.21" gradientTransform="matrix(-12.85, -0.31, 0.21, -8.61, -8364.22, 13913.67)" gradientUnits="userSpaceOnUse"><stop offset="0" stop-color="#546e7a"/><stop offset="1" stop-color="#263238"/></linearGradient><linearGradient id="linear-gradient-21" x1="-622.61" y1="1564.46" x2="-620.07" y2="1564.46" gradientTransform="matrix(-16.86, -0.4, 0.19, -7.91, -10173.84, 12785.26)" xlink:href="#linear-gradient-20"/><linearGradient id="linear-gradient-22" x1="-1067.45" y1="1574.71" x2="-1067.45" y2="1577.01" gradientTransform="matrix(-4.74, -0.11, 0.08, -3.23, -4510.84, 5639.31)" xlink:href="#linear-gradient-20"/><linearGradient id="linear-gradient-23" x1="784.53" y1="628.71" x2="548.02" y2="561.7" gradientUnits="userSpaceOnUse"><stop offset="0" stop-color="#00061f"/><stop offset="1" stop-color="#74db9f"/></linearGradient><linearGradient id="linear-gradient-24" x1="699.5" y1="411.48" x2="715.64" y2="436.07" gradientUnits="userSpaceOnUse"><stop offset="0.03" stop-color="#3955bb"/><stop offset="0.05" stop-color="#3853b8"/><stop offset="0.62" stop-color="#1a225e"/><stop offset="1" stop-color="#0e1339"/></linearGradient><linearGradient id="linear-gradient-25" x1="699.77" y1="577.75" x2="665.58" y2="411.78" xlink:href="#linear-gradient-8"/><linearGradient id="linear-gradient-26" x1="420.42" y1="503.6" x2="407.46" y2="540.23" xlink:href="#linear-gradient-8"/><linearGradient id="linear-gradient-27" x1="43.35" y1="342.27" x2="49.88" y2="395.35" gradientTransform="matrix(-0.81, -0.41, -0.33, 0.94, 548.08, 105.19)" xlink:href="#linear-gradient-8"/><linearGradient id="linear-gradient-28" x1="381.99" y1="391.44" x2="374.38" y2="440.48" xlink:href="#linear-gradient-8"/><linearGradient id="linear-gradient-29" x1="471.3" y1="427.65" x2="477.83" y2="480.74" xlink:href="#linear-gradient-8"/><linearGradient id="linear-gradient-30" x1="558.23" y1="457.64" x2="489.32" y2="478.78" xlink:href="#linear-gradient-8"/><linearGradient id="linear-gradient-31" x1="408.17" y1="371.98" x2="469.78" y2="394.57" gradientUnits="userSpaceOnUse"><stop offset="0" stop-color="#dafce7"/><stop offset="0.9" stop-color="#7edea6"/><stop offset="1" stop-color="#74db9f"/></linearGradient><linearGradient id="linear-gradient-32" x1="449.32" y1="397.48" x2="429.6" y2="449.5" xlink:href="#linear-gradient-23"/><linearGradient id="linear-gradient-33" x1="392.94" y1="382.87" x2="354.05" y2="366.81" xlink:href="#linear-gradient-23"/><linearGradient id="linear-gradient-34" x1="509.89" y1="395.33" x2="474.34" y2="381.83" xlink:href="#linear-gradient-23"/><linearGradient id="linear-gradient-35" x1="493.06" y1="240.52" x2="424.58" y2="430.74" gradientTransform="translate(659.85 -195.22) rotate(74.44)" xlink:href="#linear-gradient-23"/><linearGradient id="linear-gradient-36" x1="450.62" y1="363.82" x2="473.45" y2="297.88" gradientTransform="translate(661.81 -195.53) rotate(74.44)" xlink:href="#linear-gradient-23"/><linearGradient id="linear-gradient-37" x1="391.81" y1="482.2" x2="439.81" y2="499.8" xlink:href="#linear-gradient-31"/><linearGradient id="linear-gradient-38" x1="456.4" y1="384.03" x2="403.04" y2="532.23" gradientTransform="translate(756.39 -77.81) rotate(74.44)" xlink:href="#linear-gradient-23"/><linearGradient id="linear-gradient-39" x1="423.33" y1="480.09" x2="441.11" y2="428.71" gradientTransform="translate(757.92 -78.05) rotate(74.44)" xlink:href="#linear-gradient-23"/><linearGradient id="linear-gradient-40" x1="441.62" y1="251.3" x2="508.67" y2="275.89" xlink:href="#linear-gradient-31"/><linearGradient id="linear-gradient-41" x1="413.26" y1="253.46" x2="363.86" y2="234.7" xlink:href="#linear-gradient-23"/><linearGradient id="linear-gradient-42" x1="527.72" y1="112.86" x2="459.24" y2="303.08" gradientTransform="translate(562.23 -322.04) rotate(74.44)" xlink:href="#linear-gradient-23"/><linearGradient id="linear-gradient-43" x1="485.28" y1="236.16" x2="508.11" y2="170.22" gradientTransform="translate(564.19 -322.34) rotate(74.44)" xlink:href="#linear-gradient-23"/><linearGradient id="linear-gradient-44" x1="593.93" y1="170.74" x2="435.83" y2="115.79" xlink:href="#linear-gradient-23"/><linearGradient id="linear-gradient-45" x1="516.74" y1="162.72" x2="436.96" y2="384.32" xlink:href="#linear-gradient-23"/><linearGradient id="linear-gradient-46" x1="322.81" y1="275.52" x2="361.42" y2="293.55" xlink:href="#linear-gradient-23"/><linearGradient id="linear-gradient-47" x1="47.05" y1="125.81" x2="-30.15" y2="340.24" gradientTransform="matrix(0, 0.88, -1, 0, 554.94, 267.72)" xlink:href="#linear-gradient-23"/><linearGradient id="linear-gradient-48" x1="297.47" y1="278.7" x2="336.36" y2="273.91" xlink:href="#linear-gradient-23"/><linearGradient id="linear-gradient-49" x1="477.7" y1="402.1" x2="516.31" y2="420.14" gradientTransform="matrix(-0.53, -0.85, -0.85, 0.53, 1166.84, 645.74)" xlink:href="#linear-gradient-23"/><linearGradient id="linear-gradient-50" x1="262.65" y1="188.78" x2="185.46" y2="403.21" gradientTransform="matrix(0, -0.88, -1, 0, 871.41, 652.83)" xlink:href="#linear-gradient-23"/><linearGradient id="linear-gradient-51" x1="452.36" y1="405.28" x2="491.25" y2="400.49" gradientTransform="matrix(-0.53, -0.85, -0.85, 0.53, 1166.84, 645.74)" xlink:href="#linear-gradient-23"/><linearGradient id="linear-gradient-52" x1="398.24" y1="190.89" x2="398.24" y2="224.49" xlink:href="#linear-gradient-23"/><linearGradient id="linear-gradient-53" x1="400.11" y1="188.41" x2="399.27" y2="199.96" xlink:href="#linear-gradient-23"/><linearGradient id="linear-gradient-54" x1="430.97" y1="236.1" x2="405.83" y2="246.03" xlink:href="#linear-gradient-31"/><linearGradient id="linear-gradient-55" x1="400.03" y1="245.16" x2="345.5" y2="224.45" xlink:href="#linear-gradient-31"/><linearGradient id="linear-gradient-56" x1="458.66" y1="364.03" x2="458.66" y2="399.99" gradientTransform="translate(-150.94 18.6) rotate(-7.64)" xlink:href="#linear-gradient-23"/><linearGradient id="linear-gradient-57" x1="460.66" y1="361.38" x2="459.76" y2="373.74" gradientTransform="translate(-150.94 18.6) rotate(-7.64)" xlink:href="#linear-gradient-23"/><linearGradient id="linear-gradient-58" x1="493.68" y1="412.41" x2="466.78" y2="423.04" gradientTransform="translate(-150.94 18.6) rotate(-7.64)" xlink:href="#linear-gradient-31"/><linearGradient id="linear-gradient-59" x1="460.58" y1="422.11" x2="402.22" y2="399.95" gradientTransform="translate(-150.94 18.6) rotate(-7.64)" xlink:href="#linear-gradient-31"/><linearGradient id="linear-gradient-60" x1="305.22" y1="226.14" x2="305.22" y2="264.42" gradientTransform="matrix(-0.75, -0.66, -0.66, 0.75, 954.36, 361.19)" xlink:href="#linear-gradient-23"/><linearGradient id="linear-gradient-61" x1="307.36" y1="223.31" x2="306.39" y2="236.48" gradientTransform="matrix(-0.75, -0.66, -0.66, 0.75, 954.36, 361.19)" xlink:href="#linear-gradient-23"/><linearGradient id="linear-gradient-62" x1="342.51" y1="277.65" x2="313.87" y2="288.96" gradientTransform="matrix(-0.75, -0.66, -0.66, 0.75, 954.36, 361.19)" xlink:href="#linear-gradient-31"/><linearGradient id="linear-gradient-63" x1="307.27" y1="287.97" x2="245.14" y2="264.37" gradientTransform="matrix(-0.75, -0.66, -0.66, 0.75, 954.36, 361.19)" xlink:href="#linear-gradient-31"/><linearGradient id="linear-gradient-64" x1="309.07" y1="438.63" x2="316.53" y2="499.25" xlink:href="#linear-gradient-8"/><linearGradient id="linear-gradient-65" x1="284.16" y1="440.82" x2="355.18" y2="564.82" xlink:href="#linear-gradient-8"/><linearGradient id="linear-gradient-66" x1="-123.13" y1="358.41" x2="-115.58" y2="419.74" gradientTransform="matrix(-0.66, -0.39, -0.33, 0.94, 536.94, 102.66)" xlink:href="#linear-gradient-8"/><linearGradient id="linear-gradient-67" x1="508.33" y1="528" x2="446.61" y2="555.9" xlink:href="#linear-gradient-8"/><linearGradient id="linear-gradient-68" x1="446.72" y1="413.37" x2="436.57" y2="428.59" xlink:href="#linear-gradient-31"/><linearGradient id="linear-gradient-69" x1="431.86" y1="432.71" x2="417.91" y2="481.32" xlink:href="#linear-gradient-31"/><linearGradient id="linear-gradient-70" x1="588.47" y1="488.23" x2="664.28" y2="488.23" gradientTransform="matrix(0.87, -0.5, 0, 1.15, 15.86, -105.43)" xlink:href="#linear-gradient-31"/><linearGradient id="linear-gradient-71" x1="-311.4" y1="455.69" x2="-228.97" y2="455.69" gradientTransform="matrix(-0.87, 0.5, 0, 1.15, 48.91, -124.52)" xlink:href="#linear-gradient-31"/><linearGradient id="linear-gradient-72" x1="302.65" y1="664.35" x2="399.49" y2="664.35" gradientTransform="matrix(0.87, -0.5, 0, 1.15, 289.39, -263.36)" xlink:href="#linear-gradient-31"/><linearGradient id="linear-gradient-73" x1="-445.51" y1="1556.67" x2="-445.51" y2="1557.77" gradientTransform="matrix(112.92, 0, 0, -81.31, 50513.97, 127010.01)" xlink:href="#linear-gradient-9"/><linearGradient id="linear-gradient-74" x1="-445.48" y1="1558.72" x2="-445.48" y2="1559.4" gradientTransform="matrix(112.92, 0, 0, -81.31, 50513.97, 127010.01)" xlink:href="#linear-gradient-9"/><linearGradient id="linear-gradient-75" x1="-441.58" y1="1558.71" x2="-441.58" y2="1559.26" gradientTransform="matrix(112.92, 0, 0, -81.31, 50513.97, 127010.01)" xlink:href="#linear-gradient-9"/><linearGradient id="linear-gradient-76" x1="-441.65" y1="1561.09" x2="-441.65" y2="1562.11" gradientTransform="matrix(112.92, 0, 0, -81.31, 50513.97, 127010.01)" xlink:href="#linear-gradient-9"/><linearGradient id="linear-gradient-77" x1="674.26" y1="572.65" x2="686.82" y2="454.63" gradientUnits="userSpaceOnUse"><stop offset="0" stop-color="#953ade"/><stop offset="1" stop-color="#3c0a56"/></linearGradient><linearGradient id="linear-gradient-78" x1="766.47" y1="649.21" x2="509.12" y2="517.44" xlink:href="#linear-gradient-23"/><linearGradient id="linear-gradient-79" x1="187.89" y1="291.81" x2="227.78" y2="291.81" gradientTransform="matrix(0.87, -0.5, 0, 1.15, 27.76, 59.71)" xlink:href="#linear-gradient-8"/><linearGradient id="linear-gradient-80" x1="199.24" y1="274.76" x2="217.08" y2="274.76" gradientTransform="matrix(0.87, -0.5, 0, 1.15, 27.76, 59.71)" xlink:href="#linear-gradient-8"/><linearGradient id="linear-gradient-81" x1="257.49" y1="275.59" x2="137.83" y2="368.22" gradientTransform="matrix(0.87, -0.5, 0, 1.15, 27.76, 59.71)" xlink:href="#linear-gradient-8"/><linearGradient id="linear-gradient-82" x1="250.43" y1="266.47" x2="130.76" y2="359.1" gradientTransform="matrix(0.87, -0.5, 0, 1.15, 27.76, 59.71)" xlink:href="#linear-gradient-8"/><linearGradient id="linear-gradient-83" x1="207.53" y1="441.51" x2="218.94" y2="441.51" xlink:href="#linear-gradient-8"/><linearGradient id="linear-gradient-84" x1="184.19" y1="454.79" x2="201.32" y2="454.79" xlink:href="#linear-gradient-8"/><linearGradient id="linear-gradient-85" x1="185.86" y1="467.04" x2="204.2" y2="467.04" xlink:href="#linear-gradient-8"/><linearGradient id="linear-gradient-86" x1="208.71" y1="467.61" x2="220.01" y2="467.61" xlink:href="#linear-gradient-8"/><linearGradient id="linear-gradient-87" x1="209.99" y1="453.72" x2="229.81" y2="453.72" xlink:href="#linear-gradient-8"/><linearGradient id="linear-gradient-88" x1="198.03" y1="455.97" x2="213.42" y2="455.97" xlink:href="#linear-gradient-8"/><linearGradient id="linear-gradient-89" x1="214.65" y1="429.31" x2="222.73" y2="429.31" xlink:href="#linear-gradient-8"/><linearGradient id="linear-gradient-90" x1="226.05" y1="452.53" x2="234.14" y2="452.53" xlink:href="#linear-gradient-8"/><linearGradient id="linear-gradient-91" x1="179.03" y1="453.38" x2="187.12" y2="453.38" xlink:href="#linear-gradient-8"/><linearGradient id="linear-gradient-92" x1="181.14" y1="476.04" x2="189.23" y2="476.04" xlink:href="#linear-gradient-8"/><linearGradient id="linear-gradient-93" x1="215.81" y1="478.16" x2="223.9" y2="478.16" xlink:href="#linear-gradient-8"/><linearGradient id="linear-gradient-94" x1="639.24" y1="115.67" x2="654.91" y2="115.67" gradientUnits="userSpaceOnUse"><stop offset="0.01" stop-color="#000c3a"/><stop offset="0.02" stop-color="#03113c"/><stop offset="0.16" stop-color="#204656"/><stop offset="0.3" stop-color="#3a736c"/><stop offset="0.45" stop-color="#4f997f"/><stop offset="0.59" stop-color="#5fb68d"/><stop offset="0.73" stop-color="#6bca97"/><stop offset="0.87" stop-color="#72d79d"/><stop offset="1" stop-color="#74db9f"/></linearGradient><linearGradient id="linear-gradient-95" x1="638.71" y1="114.25" x2="655.43" y2="114.25" gradientUnits="userSpaceOnUse"><stop offset="0" stop-color="#b4dbd5"/><stop offset="1" stop-color="#40d0c4"/></linearGradient><linearGradient id="linear-gradient-96" x1="638.7" y1="112" x2="655.42" y2="112" xlink:href="#linear-gradient-95"/><linearGradient id="linear-gradient-97" x1="638.7" y1="109.74" x2="655.42" y2="109.74" xlink:href="#linear-gradient-95"/><linearGradient id="linear-gradient-98" x1="638.69" y1="107.49" x2="655.41" y2="107.49" xlink:href="#linear-gradient-95"/><linearGradient id="linear-gradient-99" x1="639.24" y1="115.61" x2="654.91" y2="115.61" xlink:href="#linear-gradient-94"/><linearGradient id="linear-gradient-100" x1="639.24" y1="113.31" x2="654.91" y2="113.31" xlink:href="#linear-gradient-94"/><linearGradient id="linear-gradient-101" x1="639.24" y1="111.1" x2="654.91" y2="111.1" xlink:href="#linear-gradient-94"/><linearGradient id="linear-gradient-102" x1="639.24" y1="108.91" x2="654.91" y2="108.91" xlink:href="#linear-gradient-94"/><linearGradient id="linear-gradient-103" x1="643.87" y1="278.77" x2="658.93" y2="278.77" gradientTransform="matrix(0.87, -0.5, 0, 1.15, 88.12, 285.72)" xlink:href="#linear-gradient-8"/></defs><title>Main Illustration</title><g class="cls-1"><g id="Layer_2" data-name="Layer 2"><g id="Layer_1-2" data-name="Layer 1"><path class="cls-2" d="M612.75,388.41A588.76,588.76,0,0,0,441,363.81c-97.85,0-189.83,22-259,62-55.12,32-90.63,72-102.77,116.51l47.35,4.21C137.09,508,168,473,215.87,445.53,276,410.79,355.95,391.65,441,391.65a497.74,497.74,0,0,1,171.76,29.06Z"/><path class="cls-3" d="M182,724.9c-50.42-29.23-85-66-99.54-106.25l46.72-5.43c12.6,35,42.56,66.92,86.51,92.32A360.67,360.67,0,0,0,282.46,735L258.6,759A414.85,414.85,0,0,1,182,724.9Z"/><path class="cls-4" d="M345.32,779.58l12.6-26.75a544,544,0,0,0,95.54,6.23,534.73,534.73,0,0,0,84.37-8.41,400.67,400.67,0,0,0,128.4-45.22c83.61-48.29,113.95-118.91,79.16-184.23l45.8-8.12c40,75.16,5.08,156.38-91.09,211.95-41.34,23.85-92.43,42.06-147.77,52a615,615,0,0,1-97.06,9.8A625.36,625.36,0,0,1,345.32,779.58Z"/><path class="cls-5" d="M821.59,133.78,720.23,596.28h0C690.5,681.4,544.54,784.92,314.78,723c-59.53-16-147-75.18-147-136.84h0l-80-412.93"/><path class="cls-6" d="M641.93,692c-108.53,62.66-285,62.34-394.25-.71s-109.76-165-1.23-227.62,285-62.34,394.25.71S750.46,629.33,641.93,692Z"/><path class="cls-7" d="M900.91,8.92,739.72,599C692.4,664.65,608.33,742.65,442.58,739.71c-175.71-3.13-259.91-90.71-295-144.13L0,15.68c2.72,5.74,166.18,48,172,51.88L436.94,2c11.59,7.82,30.32,7.82,41.82,0L716.67,67.56C722.33,63.7,898,14.68,900.91,8.92Z"/><polygon class="cls-8" points="291.39 217.65 219.39 259.22 219.39 207.41 291.39 165.84 291.39 217.65"/><polygon class="cls-8" points="719.93 116.28 647.92 157.86 647.92 106.05 719.93 64.48 719.93 116.28"/><path class="cls-9" d="M419.56,591.61c-5.23,14.88-13.17,27.54-21.42,39.43l-.07-5.14c-8,9.13-9.92,24.69-13.47,38.21a117.65,117.65,0,0,1-12.71,30.65c-1.79-23.44-3.57-47.27-.58-70.46,1-7.88,2.59-15.81,1.94-23.77-5,14.25-9.48,28.9-13.32,43.86-.51-7.23-.32-14.52-.12-21.78.93-35.17,2.06-71.49,12.92-103.24,8.8,4.37,18.24,5.34,27.43,7.58,8.13,2,22.87,5.18,24.57,18.7A102.85,102.85,0,0,1,419.56,591.61Z"/><path class="cls-10" d="M438.7,597.06c-5.23,14.88-13.17,27.54-21.42,39.43l-.07-5.14c-8,9.13-9.92,24.69-13.47,38.21A117.65,117.65,0,0,1,391,700.21c-1.79-23.44-3.57-47.27-.58-70.46,1-7.88,2.59-15.81,1.94-23.77-5,14.25-9.48,28.9-13.32,43.86-.51-7.23-.32-14.52-.12-21.78.93-35.17,2.06-71.49,12.92-103.24,8.8,4.37,18.24,5.34,27.43,7.58,8.13,2,22.87,5.18,24.57,18.7A102.85,102.85,0,0,1,438.7,597.06Z"/><path class="cls-11" d="M209.67,402.94a3.69,3.69,0,0,1-1.67,2.91c-.92.53-1.67.1-1.67-1A3.69,3.69,0,0,1,208,402C208.9,401.44,209.67,401.87,209.67,402.94Z"/><circle class="cls-12" cx="358.11" cy="448.97" r="3.55"/><circle class="cls-13" cx="468.88" cy="564.82" r="3.78"/><circle class="cls-14" cx="375.4" cy="696.83" r="2.74"/><circle class="cls-15" cx="346.41" cy="571.9" r="1.56"/><circle class="cls-16" cx="393.11" cy="479.9" r="2.18"/><circle class="cls-17" cx="288.49" cy="631.59" r="2.46"/><circle class="cls-18" cx="569.13" cy="286.79" r="2.64"/><circle class="cls-12" cx="242.11" cy="619.51" r="1.95"/><circle class="cls-19" cx="281.83" cy="574.15" r="1.95"/><circle class="cls-12" cx="502.11" cy="490.58" r="1.76"/><circle class="cls-12" cx="132.9" cy="428.66" r="3.55"/><circle class="cls-20" cx="138.49" cy="376.86" r="2.46"/><circle class="cls-12" cx="187.26" cy="550.71" r="1.95"/><circle class="cls-21" cx="230.8" cy="524.14" r="1.95"/><circle class="cls-12" cx="216.6" cy="550.55" r="1.76"/><circle class="cls-12" cx="411.54" cy="581" r="1.79"/><circle class="cls-12" cx="654.31" cy="223.72" r="3.55"/><circle class="cls-12" cx="544.78" cy="669.16" r="1.56"/><circle class="cls-22" cx="742.19" cy="262.54" r="2.18"/><circle class="cls-12" cx="624.58" cy="537.66" r="2.46"/><circle class="cls-12" cx="570.54" cy="537.15" r="1.95"/><circle class="cls-23" cx="753.6" cy="225.49" r="1.79"/><path class="cls-24" d="M710.22,451.55l-35.44-18A25.67,25.67,0,0,1,664,423.31l-19.62-34.73-7,11.08,12.61,26.16a87.61,87.61,0,0,0,39.26,40.08l10.2,5.18Z"/><path class="cls-25" d="M671.11,684.64l-24.72-15.79a11.14,11.14,0,0,0-.93,3.75c.37,2.13,1,3.49,4.09,5.73a13,13,0,0,0,4.7,2c.65,0,.95-.89.95-.89a15.5,15.5,0,0,1,5,2.29s-.54,1.2-.28,1.4c.74.59,2.18,2.08,3,2.89,1.74,1.73,4.35,3.69,6.41,4s8.25-1.35,8.26-1.94a10.6,10.6,0,0,1,.58-2.55Z"/><path class="cls-26" d="M647.37,667.45c1.34-.73,6-3.11,9.46-.11h0l1.12,1a7.24,7.24,0,0,0,.67.48,3.82,3.82,0,0,0,2.23.6l1.74,0,3.55.09a29.08,29.08,0,0,1,6.28.81c2.2.77,6,4.53,6,4.53s.92.3.91,2-1.09,7.42-1.21,8.67-7.59,3.46-10.19,1.91-6.07-6.22-9.43-7.49-8.46-2.33-10.73-5.66S646,668.18,647.37,667.45Z"/><path class="cls-25" d="M562.35,653.8s.08,2,.18,2.82,2.84,2.56,6.93,4.49,15.78,3.39,16,3.31.6-1.39.76-1.39a8,8,0,0,1,1.85,0c.34.13-.4,1.38.31,1.64s13.2,1.7,13.44,1.56a13.81,13.81,0,0,0,1-2.48C601.26,664.7,562.35,653.8,562.35,653.8Z"/><path class="cls-27" d="M601.08,648a93.75,93.75,0,0,0-8.77-4c-.83,0-9.26,3.8-11.2,4.11a57,57,0,0,1-11.44-.08,6.65,6.65,0,0,0-5,1.27,6.27,6.27,0,0,0-2.47,4.38c-.26,4.2,18.34,7.83,23,8s16.32,3.43,17.54,2.05,3-11.49,3.2-12.74c.39-2.78-4.87-3-4.87-3Z"/><path class="cls-28" d="M667,669.58l-.59,4.21s-.11,1,3.43,3.12S678,677,678,677l.66-4.73Z"/><path class="cls-29" d="M725.76,540.09a80.67,80.67,0,0,1-4.63,23.4c-3.43,9.82-28.42,42.83-29.89,46.37s-10.74,63.4-10.74,63.4a12.06,12.06,0,0,1-10.23,1.2,18.4,18.4,0,0,1-7.63-5.12s9.61-55.49,10.37-61.48,13.55-35.56,13.55-35.56a49.46,49.46,0,0,0-7-1.66c-2.23-.18-41.37,22.48-45.39,25.73S605,648.81,605,648.81c-4.07,1.94-7.22,1.92-9.6,1.09a11.11,11.11,0,0,1-6-5.69s26.7-58,30.86-62.58,50.08-42.09,50.08-42.09l55.28-5.66A41.11,41.11,0,0,1,725.76,540.09Z"/><path class="cls-30" d="M628.11,464.51l-.21,0a5.24,5.24,0,0,0-.52-4.09,14.16,14.16,0,0,0-2.58-2.5,10.74,10.74,0,0,1-3-9.45,14.93,14.93,0,0,1,5.12-8.72c.43-.38.88-.73,1.28-1.14a28.53,28.53,0,0,1,2.36-2.65c.93-.74,2.39-1,3.24-.22a3.46,3.46,0,0,1,.65,2.75,45.41,45.41,0,0,0-.4,6.05,34.74,34.74,0,0,0,.5,3.59c.14.73.91,2.42.74,3.09a15.64,15.64,0,0,0,.49-3.46c-.05-1.37,1-1.62,1.71-1.21s1.27,3.69.85,5.55a43,43,0,0,1-1.79,5.12,25.9,25.9,0,0,0,.51,4.06C637.1,461.46,629.68,464.13,628.11,464.51Z"/><path class="cls-30" d="M714.31,421.69c1.63,6.56-4.48,13.44-4.1,13.9s2.14,12.53,2.14,12.53c-1.24,2.68-5.51,3.62-8.06,4.26a18.94,18.94,0,0,1-4.65.9c-2.43-.06-1.89-2.14-1.88-4a4.54,4.54,0,0,0-.36-2.22,3.53,3.53,0,0,0-1.44-1.31c-2.23-1.24-4.89-1.32-7.42-1.68s-5.24-1.19-6.62-3.34c-2.24-3.48.18-8.46-1.79-12.1a6,6,0,0,1-.83-1.74c-.27-1.58,1.34-2.76,2.66-3.69a22.24,22.24,0,0,0,5-4.77,22.08,22.08,0,0,1,3.62-4.36c1.3-1,3-1.4,4.38-2.29a13.69,13.69,0,0,0,1.91-1.12C702,405.77,712.68,415.13,714.31,421.69Z"/><path class="cls-31" d="M702.9,448.83a3.89,3.89,0,0,0,1.34,3,3.74,3.74,0,0,0,1.93.47c1.77.07,3.71-.22,4.93-1.5a5.61,5.61,0,0,0,1.12-4.79c-.28-1.68-2-9.77-1.84-11.78,0,.73-4.05,2.9-4.68,3.11-1.1.38-3.48.48-4.11,1.66s.51,2.78.77,4A54.06,54.06,0,0,1,702.9,448.83Z"/><path class="cls-32" d="M698.27,436.87c-.59-2,1.12-2.59-.25-6.78s-4.34-2.14-5.17-2.15-1.79,3.23-2.42,4-1.4-1.61-1.3-3a15.34,15.34,0,0,1,1.26-3.62,18.24,18.24,0,0,0,1.28-6.36c-.08-4.51-1.73-9.29-1.13-13.62a9.75,9.75,0,0,1,1.12-3.93,3.33,3.33,0,0,1,3.47-1.65c.64.17,1.26.61,1.9.43a2.48,2.48,0,0,0,1-.79A6.94,6.94,0,0,1,710,404c.55-1.5,2.76-1.74,4.09-.84a8,8,0,0,1,2.56,4c2.25-.19,4.31,1.51,5.26,3.55,1.5,3.21,1.94,9.45-.24,12.46-1,1.44-2.64,2.44-3.73,3.85s-1.66,3.35-2.84,4.8-2.89,2.69-4.1,4.29-3.58,2.57-5.81,3S699,439.46,698.27,436.87Z"/><path class="cls-33" d="M731.32,490.71c-1,15.69-2.92,46.68-2.92,46.68s-5.28,8.66-19,12.2c-8.14,2.1-19.27,2.4-34-1.94a120.12,120.12,0,0,1-11.52-4.05c.45-6.55,1-13.11,1.77-19.63q1.59-14.52,4.07-28.95c0-.26.08-.53.13-.79-11,6.77-26,15.08-32,14.33-2.73-.32-4.82-3.75-6.39-8.54-4.18-12.65-4.86-34.88-4.86-34.88,2.46-6.51,11.84-4.37,11.84-4.37s5.05,25.31,7.65,25.95c2.32.59,30.76-23.38,36.45-28.2.32-.31.66-.58,1-.86a77.51,77.51,0,0,1,19.6-6.76c1.62-.3,3-.66,4.29-1,6.88-2,9-4.67,13.14-.59a24.08,24.08,0,0,1,1.83,2C727.07,457.11,732.67,468.93,731.32,490.71Z"/><path class="cls-34" d="M373.18,500.46s-4.23,14.65-2.82,18.6,29.87,29.31,58.62,26.49,28.46-10.15,28.46-10.15l-1.13-9.86Z"/><path class="cls-35" d="M363.79,420.19l25.89,11.42c9.39,8.58,15.61,21.11,17.29,34.86l3.94,32.24-3,5.38-75.55-65.43,4.06-7.74C342.13,420.13,353.52,415.66,363.79,420.19Z"/><path class="cls-36" d="M360.81,425,386,436.37c9.83,9,16.35,22.11,18.11,36.5L408,504.09l-77.8-58.62,2.77-7.23C337.68,425.82,349.83,420,360.81,425Z"/><path class="cls-37" d="M505.44,453.13l-31.36-1.64a50.77,50.77,0,0,0-30.95,23.37l-16,27.15,1.13,6.2,103.29-24.06-1.41-8.82A26.42,26.42,0,0,0,505.44,453.13Z"/><path class="cls-38" d="M506.79,458.81l-30.63-1.38a53.17,53.17,0,0,0-32.41,24.47l-15.48,26.3L531.42,491.3l-.24-7.77A25.54,25.54,0,0,0,506.79,458.81Z"/><path class="cls-39" d="M384.45,313.05s-11,60.87-11.84,83.7c0,0,36.07,62,127.94,36.07,0,0,28-58.05,32.69-71.58Z"/><path class="cls-40" d="M420.24,424.65,424,409s16.27,13.1,36.49,9l-6.06,21.35S416.65,434.37,420.24,424.65Z"/><path class="cls-41" d="M379.1,347.15s5.35,7.89,10.15,10.43l-8.74,50.16-7.89-11Z"/><polygon class="cls-42" points="507.89 368.43 483.37 423.24 504.79 424.37 531.28 365.47 507.89 368.43"/><ellipse class="cls-43" cx="458.43" cy="336.72" rx="25.36" ry="78.2" transform="translate(11.08 688.03) rotate(-74.44)"/><ellipse class="cls-44" cx="459.61" cy="337.86" rx="20.11" ry="62.02" transform="translate(10.84 690) rotate(-74.44)"/><path class="cls-45" d="M371.78,440.54s2.06,42.14,1.4,59.92c0,0,25.93,42.84,81.16,27.62,0,0,29.74-39.46,33.37-50Z"/><ellipse class="cls-46" cx="429.41" cy="458.98" rx="19.76" ry="60.93" transform="translate(-127.93 749.55) rotate(-74.44)"/><ellipse class="cls-47" cx="430.33" cy="459.87" rx="15.67" ry="48.32" transform="translate(-128.11 751.08) rotate(-74.44)"/><path class="cls-48" d="M548.45,319.53c-104.82,30.45-160-44-160-44,1.92-16.67,7.84-35.58,14-51.77,2.22-5.92,4.47-11.44,6.58-16.36,5.62-13.18,10.15-22,10.15-22l148.78,48.19C569.59,249.63,548.45,319.53,548.45,319.53Z"/><path class="cls-49" d="M428.41,224.14l-17.69,72.75S392,282.24,391,276.62c-.63-3.75,6.55-33.48,11.38-52.82,2.22-5.92,4.47-11.44,6.58-16.36a9.2,9.2,0,0,0,.48.93C413.9,216.12,428.41,224.14,428.41,224.14Z"/><ellipse class="cls-50" cx="493.09" cy="209.06" rx="25.36" ry="78.2" transform="translate(159.43 628.01) rotate(-74.44)"/><ellipse class="cls-51" cx="494.27" cy="210.2" rx="20.11" ry="62.02" transform="translate(159.19 629.97) rotate(-74.44)"/><path class="cls-52" d="M435.6,160s43.54-66.79,87.08-74c0,0,36.78,28.32,41,98.49,0,0-15.31,13.82-40.58,14.37C494.33,199.54,454.13,185.53,435.6,160Z"/><circle class="cls-53" cx="476.39" cy="274.8" r="30.22"/><circle class="cls-54" cx="476.14" cy="276.11" r="22.15"/><path class="cls-55" d="M343.19,283.42c-6,15.59-18.22,25.39-27.38,21.89-.57-.22-5.4-2-5.92-2.32-7.81-4.64-5.47-17.63.12-32.25s13.23-25.71,22.13-24.06c.63.12,4.64,1.94,5.25,2.17C346.55,252.35,349.15,267.83,343.19,283.42Z"/><ellipse class="cls-56" cx="320.69" cy="274.76" rx="30.22" ry="17.76" transform="translate(-50.43 476.27) rotate(-69.09)"/><path class="cls-57" d="M312.44,272.12c-4.2,11-2.61,21.8,3.39,25a7.59,7.59,0,0,1-3.66-.45c-6.73-2.55-8.62-13.9-4.26-25.34s13.36-18.59,20.09-16a7.15,7.15,0,0,1,.84.39C322.77,256.14,316,262.69,312.44,272.12Z"/><path class="cls-54" d="M332.23,280.59c-3.6,9.43-10.33,16-16.39,16.48-6-3.15-7.6-14-3.39-25,3.6-9.43,10.33-16,16.39-16.48C334.84,258.79,336.43,269.63,332.23,280.59Z"/><path class="cls-58" d="M554.9,441.45c-10,13.33-11.84,28.92-4,34.83.49.37,4.57,3.5,5.11,3.78,8.08,4.15,17.84-4.73,27.26-17.22S598,438,591.9,431.3c-.44-.47-4.11-2.91-4.63-3.3C579.44,422.1,565,428.12,554.9,441.45Z"/><ellipse class="cls-59" cx="574.2" cy="455.92" rx="30.22" ry="17.76" transform="matrix(0.6, -0.8, 0.8, 0.6, -135.51, 639.98)"/><path class="cls-60" d="M580.81,461.5c-7.05,9.38-17.08,13.79-22.94,10.38a7.59,7.59,0,0,0,2.33,2.86c5.73,4.34,16.36-.08,23.74-9.85s8.65-21.19,2.92-25.54a7.15,7.15,0,0,0-.78-.51C588.86,444.27,586.89,453.44,580.81,461.5Z"/><path class="cls-54" d="M563.13,449.23c-6.08,8.06-8,17.24-5.26,22.65,5.86,3.41,15.89-1,22.94-10.38,6.08-8.06,8-17.24,5.26-22.65C580.21,435.44,570.18,439.85,563.13,449.23Z"/><path class="cls-61" d="M405.48,197l-8.56,23.71L391,210.54s-.42-10.57,6.34-12A64,64,0,0,1,405.48,197Z"/><path class="cls-62" d="M405.48,197l-4.54-1.8s-11.84,2.43-6.34,11C394.6,206.17,395,196.66,405.48,197Z"/><path class="cls-63" d="M396.71,294.45l4.65.28,18.81-69.19s-23.18-16.77-24.59-22.4l-1.55,2Z"/><path class="cls-64" d="M401.36,195.11s-12.26,3.8-6.34,11S415.52,226,415.52,226l-18.81,68.48s-22.83-19.87-24.1-25.36,18.6-63.83,18.6-63.83A11.09,11.09,0,0,1,401.36,195.11Z"/><path class="cls-65" d="M360.57,323.89l-5.71,26.36-7.72-9.92s-2-11.15,5-13.68S360.57,323.89,360.57,323.89Z"/><path class="cls-66" d="M360.57,323.89l-5.08-1.26s-12.21,4.26-5.16,12.56C350.33,335.19,349.43,325,360.57,323.89Z"/><path class="cls-67" d="M365.13,428.52l5-.36,10.11-76.06s-27-14.49-29.26-20.27l-1.36,2.31Z"/><path class="cls-68" d="M355.93,322.49s-12.46,5.78-5.16,12.56,24.57,18.16,24.57,18.16l-10.21,75.31S338.09,410.69,336,405s10.65-70.35,10.65-70.35A11.87,11.87,0,0,1,355.93,322.49Z"/><path class="cls-69" d="M565.1,328.51l-10.56,26.7,12.7-4.2s8.33-8.71,3.67-15.07S565.1,328.51,565.1,328.51Z"/><path class="cls-70" d="M565.1,328.51l5.24,1.89s8.28,11-2.87,14.17C567.46,344.57,574.27,336.13,565.1,328.51Z"/><path class="cls-71" d="M499.1,418.39l-4.18-3.26L531,341.84s32.44,3.15,37.89-.6l-.16,2.85Z"/><path class="cls-72" d="M570,330s7.6,12.49-2.87,14.17-32.49,1.51-32.49,1.51L499.1,418.39s34.48.24,39.7-3.5S571,346.34,571,346.34A12.64,12.64,0,0,0,570,330Z"/><path class="cls-73" d="M369.51,464.25l-4.86-4.85-55.44,14.07a50.77,50.77,0,0,0-30.95,23.37l-16,27.15,1.13,6.2L366.7,506.13Z"/><path class="cls-74" d="M369.51,464.25,311.3,479.42a53.17,53.17,0,0,0-32.41,24.47l-15.48,26.3,103.14-16.91Z"/><path class="cls-75" d="M452.95,484.89l35,38.48c7.46,8.32,12,20.63,12.69,34.24l1.56,31.92-2.8,5.41L439.2,531.56Z"/><path class="cls-76" d="M451.2,490.92l33.39,37.25c7.81,8.71,12.59,21.61,13.29,35.86l1.52,30.91-62.47-56.59Z"/><path class="cls-77" d="M417.71,410.28l-12.26,35.09a48.23,48.23,0,0,0,16.91,11.55c7.3,2.85,17.14,2.47,24.52,2.82l10.71-35.79-9.37-.46a45,45,0,0,1-24.76-8.91Z"/><path class="cls-78" d="M416.16,414.93,403.9,450a48.23,48.23,0,0,0,16.91,11.55c7.3,2.85,17.14,2.47,24.52,2.82L456,428.6l-9.37-.46a45,45,0,0,1-24.76-8.91Z"/><polyline class="cls-79" points="526.17 174.88 552.87 137.36 591.14 115.28"/><polygon class="cls-8" points="694.57 94.48 590.94 154.31 590.94 79.76 694.57 19.93 694.57 94.48"/><polyline class="cls-80" points="318.16 265.36 264.57 258.15 247.21 268.45"/><polygon class="cls-8" points="176.26 330.21 248.26 288.64 248.26 236.84 176.26 278.41 176.26 330.21"/><polyline class="cls-81" points="551.92 371.33 605.51 302.25 635.36 285.02"/><polygon class="cls-8" points="710.35 291.98 638.35 333.55 638.35 281.75 710.35 240.17 710.35 291.98"/><polygon class="cls-12" points="269.82 467.45 145.33 539.31 145.33 424.37 269.82 352.51 269.82 467.45"/><polygon class="cls-82" points="269.82 371.02 145.33 442.87 145.33 425.09 269.82 353.24 269.82 371.02"/><path class="cls-11" d="M157.66,426.87a4.7,4.7,0,0,1-2.13,3.7c-1.17.68-2.13.13-2.13-1.23a4.7,4.7,0,0,1,2.13-3.7C156.71,425,157.66,425.51,157.66,426.87Z"/><path class="cls-11" d="M165.55,422.31a4.7,4.7,0,0,1-2.13,3.7c-1.17.68-2.13.13-2.13-1.23a4.7,4.7,0,0,1,2.13-3.7C164.6,420.4,165.55,421,165.55,422.31Z"/><path class="cls-11" d="M173.44,417.76a4.7,4.7,0,0,1-2.13,3.7c-1.17.68-2.13.13-2.13-1.23a4.7,4.7,0,0,1,2.13-3.7C172.45,415.85,173.44,416.4,173.44,417.76Z"/><polygon class="cls-12" points="248.9 291.15 172.36 335.34 172.36 264.66 248.9 220.48 248.9 291.15"/><polygon class="cls-83" points="248.9 231.86 172.36 276.04 172.36 265.11 248.9 220.93 248.9 231.86"/><path class="cls-11" d="M179.94,266.2a2.89,2.89,0,0,1-1.31,2.28c-.72.42-1.31.08-1.31-.76a2.89,2.89,0,0,1,1.31-2.28C179.36,265,179.94,265.36,179.94,266.2Z"/><path class="cls-11" d="M184.79,263.4a2.89,2.89,0,0,1-1.31,2.28c-.72.42-1.31.08-1.31-.76a2.89,2.89,0,0,1,1.31-2.28C184.21,262.22,184.79,262.58,184.79,263.4Z"/><path class="cls-11" d="M189.64,260.6a2.89,2.89,0,0,1-1.31,2.28c-.72.42-1.31.08-1.31-.76a2.89,2.89,0,0,1,1.31-2.28C189,259.42,189.64,259.76,189.64,260.6Z"/><polygon class="cls-12" points="682.69 289.14 620.22 325.2 620.22 267.52 682.69 231.47 682.69 289.14"/><polygon class="cls-84" points="682.69 240.75 620.22 276.81 620.22 267.89 682.69 231.83 682.69 240.75"/><path class="cls-11" d="M626.42,268.78a2.36,2.36,0,0,1-1.07,1.86c-.59.34-1.07.07-1.07-.62a2.36,2.36,0,0,1,1.07-1.86C625.94,267.82,626.42,268.1,626.42,268.78Z"/><path class="cls-11" d="M630.37,266.49a2.36,2.36,0,0,1-1.07,1.86c-.59.34-1.07.07-1.07-.62a2.36,2.36,0,0,1,1.07-1.86C629.89,265.53,630.37,265.82,630.37,266.49Z"/><path class="cls-11" d="M634.33,264.21a2.36,2.36,0,0,1-1.07,1.86c-.59.34-1.07.07-1.07-.62a2.36,2.36,0,0,1,1.07-1.86C633.84,263.25,634.33,263.53,634.33,264.21Z"/><polygon class="cls-12" points="701.09 106.55 585.69 173.16 585.69 66.61 701.09 0 701.09 106.55"/><polygon class="cls-85" points="701.09 17.15 585.69 83.76 585.69 67.28 701.09 0.67 701.09 17.15"/><path class="cls-11" d="M597.12,68.92a4.36,4.36,0,0,1-2,3.43c-1.09.63-2,.12-2-1.14a4.36,4.36,0,0,1,2-3.43C596.24,67.15,597.12,67.66,597.12,68.92Z"/><path class="cls-11" d="M604.43,64.7a4.36,4.36,0,0,1-2,3.43c-1.09.63-2,.12-2-1.14a4.36,4.36,0,0,1,2-3.43C603.55,62.93,604.43,63.46,604.43,64.7Z"/><path class="cls-11" d="M611.74,60.48a4.36,4.36,0,0,1-2,3.43c-1.09.63-2,.12-2-1.14a4.36,4.36,0,0,1,2-3.43C610.83,58.71,611.74,59.22,611.74,60.48Z"/><path class="cls-30" d="M644.61,392.08c0,2.25-3.72,6.36-6,6.31a2.81,2.81,0,0,1-1.76-1L632.3,393l-.29-.28c-1.93-1.85-3.92-3.79-4.86-6.3-1.05-2.81-.64-6-1.49-8.84-.06-.22-.14-.44-.22-.66a18.66,18.66,0,0,1-1.26-3.3,2.68,2.68,0,0,1,1.31-3c1-.39,2.12.17,3.06.73,6,3.55,10.54,7.19,13,13.84C642.34,387.31,644.64,389.84,644.61,392.08Z"/><path class="cls-31" d="M635.26,391.88a2.61,2.61,0,0,1-3,1.17l-.29-.28c-1.93-1.85-3.92-3.79-4.86-6.3-1.05-2.81-.64-6-1.49-8.84a3.37,3.37,0,0,1,1.49-.39c1.95-.09,9.31,3.56,8.19,6.12-.73,1.66-2.33-.54-3.19.9-.7,1.19,1.37,3.16,2,3.92C635.06,389.21,635.85,390.65,635.26,391.88Z"/><path class="cls-31" d="M693.3,431.93a2.15,2.15,0,0,1-.12-1.49,1.09,1.09,0,0,1,1.1-.53,1.92,1.92,0,0,1,1.12.63,3.26,3.26,0,0,1,.27,4,4.25,4.25,0,0,1-1.21,1.08,2.29,2.29,0,0,1-.85.36c-1,.14-2.43-1.13-1.9-2.16S693.78,433.66,693.3,431.93Z"/><path class="cls-86" d="M731.32,490.71c-1,15.69-2.92,46.68-2.92,46.68s1.88,13.57-19,12.2a84.21,84.21,0,0,1-17.84-3.52c-.58-7.17-1-14.35-1.42-21.54q-.54-9.84-.82-19.71c-.08-3.25,1.66-16.58-1.88-17.41a6.48,6.48,0,0,0-3.59.47A68.65,68.65,0,0,0,669.65,495c0-.26.08-.53.13-.79-11,6.77-26,15.08-32,14.33-2.73-.32-4.82-3.75-6.39-8.54,36.68-16.67,46.18-29.38,56.86-37.57,7.8-6,17.63-8.67,32.26-13.16a24.08,24.08,0,0,1,1.83,2C727.07,457.11,732.67,468.93,731.32,490.71Z"/><path class="cls-87" d="M725.76,540.09a80.67,80.67,0,0,1-4.63,23.4c-3.43,9.82-28.42,42.83-29.89,46.37s-10.74,63.4-10.74,63.4a12.06,12.06,0,0,1-10.23,1.2l11.68-62.32,12-38.67-7.4-1.17a49.46,49.46,0,0,0-7-1.66c-2.23-.18-41.37,22.48-45.39,25.73S605,648.81,605,648.81c-4.07,1.94-7.22,1.92-9.6,1.09l35.84-62.54L685.7,551.7Z"/><path class="cls-88" d="M225,292.68l-34.55,19.95c0-10.95,7.73-24.29,17.27-29.79S225,281.73,225,292.68Z"/><path class="cls-89" d="M215.76,268.43c0,4.9-3.46,10.86-7.73,13.33s-7.73.49-7.73-4.4S203.77,266.49,208,264,215.76,263.54,215.76,268.43Z"/><path class="cls-90" d="M237.59,285.43l-23.38,13.5c0-7.41,5.23-16.43,11.69-20.16S237.59,278,237.59,285.43Z"/><path class="cls-91" d="M231.32,269a11.52,11.52,0,0,1-5.23,9c-2.89,1.67-5.23.33-5.23-3a11.52,11.52,0,0,1,5.23-9C229,264.37,231.32,265.71,231.32,269Z"/><line class="cls-92" x1="207.98" y1="452.03" x2="218.49" y2="431"/><line class="cls-93" x1="201.27" y1="455.64" x2="184.24" y2="453.95"/><line class="cls-94" x1="203.85" y1="458.6" x2="186.21" y2="475.49"/><line class="cls-95" x1="209.15" y1="457.89" x2="219.57" y2="477.32"/><line class="cls-96" x1="210.05" y1="454.84" x2="229.76" y2="452.59"/><circle class="cls-97" cx="205.73" cy="455.97" r="7.7"/><circle class="cls-98" cx="218.69" cy="429.31" r="4.04"/><circle class="cls-99" cx="230.09" cy="452.53" r="4.04"/><circle class="cls-100" cx="183.07" cy="453.38" r="4.04"/><circle class="cls-101" cx="185.18" cy="476.04" r="4.04"/><circle class="cls-102" cx="219.85" cy="478.16" r="4.04"/><polygon class="cls-103" points="649.92 119.81 644.15 119.81 644.18 116.19 649.94 116.19 649.92 119.81"/><path class="cls-103" d="M649.11,118.65c1.1.66,1.06,1.72-.08,2.36a4.49,4.49,0,0,1-4.07,0c-1.1-.66-1.06-1.72.08-2.36A4.49,4.49,0,0,1,649.11,118.65Z"/><g class="cls-1"><path class="cls-104" d="M652.73,112.51c3,1.8,2.89,4.67-.23,6.42a12.2,12.2,0,0,1-11.08-.11c-3-1.8-2.89-4.67.23-6.42A12.2,12.2,0,0,1,652.73,112.51Z"/><path class="cls-105" d="M641.26,118.05a6.36,6.36,0,0,1-1.38-1.09,5.1,5.1,0,0,1-.42-.51,4.19,4.19,0,0,1-.41-.71,3.7,3.7,0,0,1-.24-.71,3.47,3.47,0,0,1-.09-.71,3.79,3.79,0,0,1,0-.54,3.57,3.57,0,0,1,.18-.71,4.14,4.14,0,0,1,.69-1.21,5.77,5.77,0,0,1,1.1-1,9.22,9.22,0,0,1,3.5-1.52,13.19,13.19,0,0,1,2.42-.31c.27,0,.69,0,1.2,0s.69.05,1.18.12c0,0,.52.07,1.14.22a10.48,10.48,0,0,1,1.09.32,9.33,9.33,0,0,1,1,.43c.19.09.44.23.63.34a.53.53,0,0,0-.16-.06,1.34,1.34,0,0,0-.88.21,10.31,10.31,0,0,0-9.35-.09c-2.64,1.47-2.72,3.9-.19,5.42a10.31,10.31,0,0,0,9.35.09c2.64-1.47,2.72-3.9.19-5.42a1.34,1.34,0,0,1,.88-.21.53.53,0,0,1,.16.06c.19.12.43.27.61.41a6.12,6.12,0,0,1,.67.57,5.24,5.24,0,0,1,.46.52,4.34,4.34,0,0,1,.45.72,3.65,3.65,0,0,1,.36,1.27,3.29,3.29,0,0,1,0,.61,3.38,3.38,0,0,1-.14.71,3.9,3.9,0,0,1-.3.7,4.55,4.55,0,0,1-.37.57,5.69,5.69,0,0,1-1.08,1.06,8,8,0,0,1-1.7,1,10.45,10.45,0,0,1-1.9.61A12.34,12.34,0,0,1,641.26,118.05Z"/><path class="cls-106" d="M641.25,115.8a6.36,6.36,0,0,1-1.38-1.09,5.09,5.09,0,0,1-.42-.51,4.24,4.24,0,0,1-.41-.71,3.7,3.7,0,0,1-.24-.71,3.5,3.5,0,0,1-.09-.71,3.79,3.79,0,0,1,0-.53,3.57,3.57,0,0,1,.18-.71,3.9,3.9,0,0,1,.34-.71,4.51,4.51,0,0,1,.42-.58,6.18,6.18,0,0,1,1.2-1.07,8.57,8.57,0,0,1,1.44-.79c.21-.09.5-.21.72-.28a10.5,10.5,0,0,1,1.18-.33,13.18,13.18,0,0,1,2.42-.31c.1,0,.61,0,1.2,0s.69.05,1.18.12c0,0,.52.07,1.14.22a10.5,10.5,0,0,1,1.09.32,9.29,9.29,0,0,1,1,.43c.19.09.44.23.63.34a.52.52,0,0,0-.16-.06,1.34,1.34,0,0,0-.88.21,10.31,10.31,0,0,0-9.35-.09c-2.64,1.47-2.72,3.9-.19,5.42a10.31,10.31,0,0,0,9.35.09c2.64-1.47,2.72-3.9.19-5.42a1.34,1.34,0,0,1,.88-.21.52.52,0,0,1,.16.06c.18.12.43.27.61.41a6.15,6.15,0,0,1,.67.58,4.49,4.49,0,0,1,.9,1.24,3.65,3.65,0,0,1,.35,1.27,3.29,3.29,0,0,1,0,.61,3.4,3.4,0,0,1-.14.71,3.89,3.89,0,0,1-.3.71,4.57,4.57,0,0,1-.37.57,5.7,5.7,0,0,1-1.08,1.06,8,8,0,0,1-1.69,1,10.47,10.47,0,0,1-1.9.61A12.35,12.35,0,0,1,641.25,115.8Z"/><path class="cls-107" d="M641.24,113.54a6.35,6.35,0,0,1-1.38-1.09,5.09,5.09,0,0,1-.42-.51,4.19,4.19,0,0,1-.41-.71,3.7,3.7,0,0,1-.24-.71,3.5,3.5,0,0,1-.09-.71,3.79,3.79,0,0,1,0-.53,3.55,3.55,0,0,1,.18-.71,3.92,3.92,0,0,1,.34-.71,4.5,4.5,0,0,1,.41-.58,6.14,6.14,0,0,1,1.19-1.07,8.48,8.48,0,0,1,1.44-.79,10.68,10.68,0,0,1,1.9-.61,13.19,13.19,0,0,1,2.42-.31c.27,0,.69,0,1.2,0s.69.05,1.18.12c0,0,.52.07,1.14.22a10.48,10.48,0,0,1,1.09.32,9.34,9.34,0,0,1,1,.43c.19.09.44.23.63.34a.52.52,0,0,0-.16-.06,1.34,1.34,0,0,0-.88.21,10.31,10.31,0,0,0-9.35-.09c-2.64,1.47-2.72,3.9-.19,5.42a10.31,10.31,0,0,0,9.35.09c2.64-1.47,2.72-3.9.19-5.42a1.34,1.34,0,0,1,.88-.21.52.52,0,0,1,.16.06c.18.12.43.27.61.41a6.12,6.12,0,0,1,.68.58,4.49,4.49,0,0,1,.9,1.24,3.64,3.64,0,0,1,.35,1.27,3.29,3.29,0,0,1,0,.6,3.4,3.4,0,0,1-.14.71,4.07,4.07,0,0,1-.67,1.28,5.7,5.7,0,0,1-1.08,1.06,8,8,0,0,1-1.69,1,10.46,10.46,0,0,1-1.9.61A12.34,12.34,0,0,1,641.24,113.54Z"/><path class="cls-108" d="M641.24,111.28a6.35,6.35,0,0,1-1.38-1.09,5.11,5.11,0,0,1-.42-.51A4.2,4.2,0,0,1,639,109a3.69,3.69,0,0,1-.24-.71,3.5,3.5,0,0,1-.09-.71,3.79,3.79,0,0,1,0-.53,3.56,3.56,0,0,1,.18-.71,3.92,3.92,0,0,1,.34-.71,4.5,4.5,0,0,1,.41-.58,6.14,6.14,0,0,1,1.19-1.07,8.48,8.48,0,0,1,1.44-.79,10.69,10.69,0,0,1,1.9-.61,13.19,13.19,0,0,1,2.42-.31c.27,0,.69,0,1.2,0s.69.05,1.18.12c0,0,.52.07,1.14.22a10.5,10.5,0,0,1,1.09.32,9.31,9.31,0,0,1,1,.43c.19.09.44.23.63.34a.53.53,0,0,0-.16-.06,1.34,1.34,0,0,0-.88.21,10.31,10.31,0,0,0-9.35-.09c-2.64,1.47-2.72,3.9-.19,5.42a10.31,10.31,0,0,0,9.35.09c2.64-1.47,2.72-3.9.19-5.42a1.34,1.34,0,0,1,.88-.21.53.53,0,0,1,.16.06,7.14,7.14,0,0,1,1.06.78,5.07,5.07,0,0,1,.82.94,3.79,3.79,0,0,1,.62,1.56,3.47,3.47,0,0,1-.19,1.74,4.55,4.55,0,0,1-1.06,1.58,6.07,6.07,0,0,1-.62.54c-.18.14-.43.3-.63.43a9.17,9.17,0,0,1-1.31.65,11.84,11.84,0,0,1-3.47.78,13.2,13.2,0,0,1-1.81,0,12.53,12.53,0,0,1-1.79-.22c-.32-.07-.74-.17-1.05-.26l-.56-.18A9.3,9.3,0,0,1,641.24,111.28Z"/><path class="cls-109" d="M652.5,116a12.2,12.2,0,0,1-11.08-.11,4.06,4.06,0,0,1-2.15-2.75c-.18,1.25.53,2.54,2.15,3.52a12.2,12.2,0,0,0,11.08.11c1.77-1,2.57-2.35,2.38-3.66A4.22,4.22,0,0,1,652.5,116Z"/><path class="cls-110" d="M652.5,113.74a12.2,12.2,0,0,1-11.08-.11,4.06,4.06,0,0,1-2.15-2.75c-.18,1.25.53,2.54,2.15,3.52a12.2,12.2,0,0,0,11.08.11c1.77-1,2.57-2.35,2.38-3.66A4.22,4.22,0,0,1,652.5,113.74Z"/><path class="cls-111" d="M652.5,111.53a12.2,12.2,0,0,1-11.08-.11,4.06,4.06,0,0,1-2.15-2.75c-.18,1.25.53,2.54,2.15,3.52a12.2,12.2,0,0,0,11.08.11c1.77-1,2.57-2.35,2.38-3.66A4.22,4.22,0,0,1,652.5,111.53Z"/><path class="cls-112" d="M652.5,109.34a11.37,11.37,0,0,1-5.46,1.09,11.09,11.09,0,0,1-5.61-1.2,4.06,4.06,0,0,1-2.15-2.75c-.18,1.25.53,2.54,2.15,3.52a12.2,12.2,0,0,0,11.08.11c1.77-1,2.57-2.35,2.38-3.66A4.22,4.22,0,0,1,652.5,109.34Z"/></g><path class="cls-113" d="M652.92,102.52c3.11,1.87,3,4.86-.24,6.67a12.63,12.63,0,0,1-11.49-.12c-3.11-1.87-3-4.86.24-6.67A12.63,12.63,0,0,1,652.92,102.52Z"/><path class="cls-114" d="M664.57,82.25c-.78-9.5-7.92-16.14-17.47-16.14H647c-9.56,0-16.69,6.65-17.47,16.14-.38,4.65-.44,8.79,7.21,17.76a9.81,9.81,0,0,1,2.25,6c.1,1.21,5.93,2,8.1,2.15,2.18-.16,8-.94,8.1-2.15a9.81,9.81,0,0,1,2.25-6C665.06,91,665,86.91,664.57,82.25Z"/><ellipse class="cls-115" cx="636.87" cy="80.28" rx="6.38" ry="4.75" transform="translate(357.33 658.12) rotate(-71.37)"/><ellipse class="cls-115" cx="643.26" cy="73.91" rx="1.75" ry="2.36" transform="translate(51.27 336.2) rotate(-30.45)"/><path class="cls-116" d="M655.69,84.14l-.05,0V84.1a3.13,3.13,0,0,0-1.09,1.19,2,2,0,0,1-.73.82.63.63,0,0,1-.72,0,1,1,0,0,0-1.1.08,3.13,3.13,0,0,0-1.09,1.19,2,2,0,0,1-.72.82.63.63,0,0,1-.72,0,1,1,0,0,0-1.09.07,3.13,3.13,0,0,0-1.09,1.19,2,2,0,0,1-.72.82.63.63,0,0,1-.72,0,1,1,0,0,0-1.09.07,3.09,3.09,0,0,0-1.09,1.19,2,2,0,0,1-.72.82.62.62,0,0,1-.72,0,1,1,0,0,0-1.1.08v.07a.71.71,0,0,0-.08.71l5.29,14.39v3h.59v-3.16h0v0h0a.89.89,0,0,0-.05-.26L641.66,93l.18.07a1,1,0,0,0,1.1-.08A3.13,3.13,0,0,0,644,91.82a2,2,0,0,1,.72-.82.63.63,0,0,1,.72,0,1,1,0,0,0,1.09-.07,3.13,3.13,0,0,0,1.09-1.19,2,2,0,0,1,.72-.82.63.63,0,0,1,.72,0,1,1,0,0,0,1.09-.07,3.11,3.11,0,0,0,1.09-1.19,2,2,0,0,1,.72-.82.64.64,0,0,1,.73,0,1,1,0,0,0,1.09-.07,3.13,3.13,0,0,0,1.09-1.19,3.92,3.92,0,0,1,.26-.4L650,105.35a1.2,1.2,0,0,0,0,.42v4.87h.59v-5.47l5.19-20.43C655.89,84.36,655.84,84.09,655.69,84.14Z"/><path class="cls-117" d="M651.68,282.92a12.38,12.38,0,0,1-1.93.31A4,4,0,0,1,648,283a2.59,2.59,0,0,1-1.27-1.06,4.2,4.2,0,0,1-.49-2.26,9,9,0,0,1,.44-2.76,11.93,11.93,0,0,1,1.18-2.59,12.41,12.41,0,0,1,1.74-2.23,11.78,11.78,0,0,1,2.09-1.71v-2.33l1.35-.78v2.33a10.37,10.37,0,0,1,1.4-.61,6.31,6.31,0,0,1,1.41-.33,4.21,4.21,0,0,1,1.31.05,2.62,2.62,0,0,1,1.1.5l-1.55,2.26a2,2,0,0,0-1.65-.65,4.62,4.62,0,0,0-2,.6v8.9a17.05,17.05,0,0,1,2.1-.26,4.14,4.14,0,0,1,1.83.27,2.69,2.69,0,0,1,1.3,1.14,4.71,4.71,0,0,1,.49,2.4,8.94,8.94,0,0,1-.44,2.73,11.54,11.54,0,0,1-1.21,2.61,13.3,13.3,0,0,1-1.82,2.3,11.64,11.64,0,0,1-2.26,1.79v2.33l-1.35.78v-2.33a6.71,6.71,0,0,1-3.43,1,3.94,3.94,0,0,1-2.53-1l1.61-2.22a1.83,1.83,0,0,0,.93.72,3.7,3.7,0,0,0,1.17.2,4.26,4.26,0,0,0,1.2-.16,4.46,4.46,0,0,0,1-.42Zm0-10.72a7.55,7.55,0,0,0-2.48,2.62,6.83,6.83,0,0,0-1,3.55q0,1.75,1,2.18a3.79,3.79,0,0,0,2.54,0ZM653,291.43a8.5,8.5,0,0,0,1.28-1,7.91,7.91,0,0,0,1.2-1.45,8,8,0,0,0,.87-1.85,7,7,0,0,0,.34-2.22,2.21,2.21,0,0,0-1-2.18,4,4,0,0,0-2.65-.18Z"/></g></g></g></svg>