<svg xmlns="http://www.w3.org/2000/svg" xmlns:xlink="http://www.w3.org/1999/xlink" viewBox="0 0 361.18 337.97"><defs><style>.cls-1,.cls-6{isolation:isolate;}.cls-2{fill:none;stroke:#fff;stroke-miterlimit:10;stroke-width:2.9px;}.cls-3{fill:url(#linear-gradient);}.cls-31,.cls-4{fill:#fff;}.cls-5{fill:url(#linear-gradient-2);}.cls-6{opacity:0.7;fill:url(#linear-gradient-3);}.cls-7{fill:url(#linear-gradient-4);}.cls-8{fill:url(#linear-gradient-5);}.cls-9{fill:url(#linear-gradient-6);}.cls-10{fill:url(#linear-gradient-7);}.cls-11{fill:url(#linear-gradient-8);}.cls-12{fill:url(#linear-gradient-9);}.cls-13{fill:url(#linear-gradient-10);}.cls-14{fill:url(#linear-gradient-11);}.cls-15{fill:url(#linear-gradient-12);}.cls-16{fill:url(#linear-gradient-13);}.cls-17{fill:url(#linear-gradient-14);}.cls-18{fill:url(#linear-gradient-15);}.cls-19{fill:#081929;}.cls-20{fill:url(#linear-gradient-16);}.cls-21{fill:url(#linear-gradient-17);}.cls-22{fill:url(#linear-gradient-18);}.cls-23{fill:url(#linear-gradient-19);}.cls-24{fill:url(#linear-gradient-20);}.cls-25{fill:url(#linear-gradient-21);}.cls-26{fill:url(#linear-gradient-22);}.cls-27{fill:url(#linear-gradient-23);}.cls-28{fill:url(#linear-gradient-24);}.cls-29{fill:#ffbf00;}.cls-30{fill:#f9cf47;}.cls-31{opacity:0.4;mix-blend-mode:screen;}.cls-32{fill:url(#linear-gradient-25);}.cls-33{fill:url(#linear-gradient-26);}</style><linearGradient id="linear-gradient" x1="-2173.79" y1="1011.4" x2="-2172.05" y2="1011.4" gradientTransform="matrix(3.37, 0, 0, -3.37, 7474.35, 3630.59)" gradientUnits="userSpaceOnUse"><stop offset="0" stop-color="#bad9d4"/><stop offset="1" stop-color="#6cccc3"/></linearGradient><linearGradient id="linear-gradient-2" x1="-1840.47" y1="1002.34" x2="-1838.73" y2="1002.34" gradientTransform="matrix(2.52, 0, 0, -2.52, 4866.78, 2727.58)" gradientUnits="userSpaceOnUse"><stop offset="0" stop-color="#ee7d31"/><stop offset="1" stop-color="#f4f18e"/></linearGradient><linearGradient id="linear-gradient-3" x1="-3102.07" y1="1046.17" x2="-3102.28" y2="1047.51" gradientTransform="matrix(178.04, 0, 0, -176.19, 552526.87, 184701.24)" gradientUnits="userSpaceOnUse"><stop offset="0" stop-color="#d4d6d9"/><stop offset="1" stop-color="#41a1f7" stop-opacity="0"/></linearGradient><linearGradient id="linear-gradient-4" x1="86.77" y1="240.23" x2="243.9" y2="240.23" gradientUnits="userSpaceOnUse"><stop offset="0" stop-color="#dafce7"/><stop offset="1" stop-color="#74db9f"/></linearGradient><linearGradient id="linear-gradient-5" x1="87.72" y1="308.25" x2="146.63" y2="308.25" xlink:href="#linear-gradient-4"/><linearGradient id="linear-gradient-6" x1="165.15" y1="297.63" x2="301.25" y2="297.63" xlink:href="#linear-gradient-4"/><linearGradient id="linear-gradient-7" x1="-2912.44" y1="1149.27" x2="-2911.34" y2="1149.27" gradientTransform="matrix(12.66, 2.23, 1.5, -8.48, 35285.14, 16518.37)" gradientUnits="userSpaceOnUse"><stop offset="0" stop-color="#546e7a"/><stop offset="1" stop-color="#263238"/></linearGradient><linearGradient id="linear-gradient-8" x1="-2961.85" y1="1158.21" x2="-2960.79" y2="1158.21" gradientTransform="matrix(16.61, 2.93, 1.38, -7.8, 47769, 17977.44)" xlink:href="#linear-gradient-7"/><linearGradient id="linear-gradient-9" x1="-2643.55" y1="1293.19" x2="-2643.55" y2="1294.19" gradientTransform="matrix(5.55, 0.98, 0.62, -3.49, 14067.73, 7370.82)" gradientUnits="userSpaceOnUse"><stop offset="0" stop-color="#ffab91"/><stop offset="1" stop-color="#ff8a65"/></linearGradient><linearGradient id="linear-gradient-10" x1="-2554.05" y1="1317.91" x2="-2554.05" y2="1318.9" gradientTransform="matrix(4.67, 0.82, 0.56, -3.18, 11344.39, 6566.61)" xlink:href="#linear-gradient-9"/><linearGradient id="linear-gradient-11" x1="145.09" y1="235.59" x2="192.27" y2="235.59" gradientUnits="userSpaceOnUse"><stop offset="0" stop-color="#cc79ef"/><stop offset="1" stop-color="#5b24c4"/></linearGradient><linearGradient id="linear-gradient-12" x1="-3000.55" y1="1071.15" x2="-3000.58" y2="1070.48" gradientTransform="matrix(22.06, 3.9, 6.72, -38.07, 59175.91, 52611.21)" gradientUnits="userSpaceOnUse"><stop offset="0" stop-color="#1be1a1"/><stop offset="1" stop-color="#98d358"/></linearGradient><linearGradient id="linear-gradient-13" x1="-2921.37" y1="1101.68" x2="-2921.37" y2="1102.79" gradientTransform="matrix(13.28, 2.35, 2.82, -15.99, 35859.32, 24642.76)" xlink:href="#linear-gradient-9"/><linearGradient id="linear-gradient-14" x1="154.54" y1="159.48" x2="167.16" y2="159.48" gradientUnits="userSpaceOnUse"><stop offset="0.03" stop-color="#3955bb"/><stop offset="0.05" stop-color="#3853b8"/><stop offset="0.62" stop-color="#1a225e"/><stop offset="1" stop-color="#0e1339"/></linearGradient><linearGradient id="linear-gradient-15" x1="-3054.48" y1="1069.79" x2="-3054.82" y2="1068.13" gradientTransform="matrix(40.09, 7.08, 7.22, -40.92, 114892.73, 65557.75)" xlink:href="#linear-gradient-12"/><linearGradient id="linear-gradient-16" x1="180.06" y1="167.94" x2="226.79" y2="167.94" gradientUnits="userSpaceOnUse"><stop offset="0.01" stop-color="#000c3a"/><stop offset="0.02" stop-color="#03113c"/><stop offset="0.16" stop-color="#204656"/><stop offset="0.3" stop-color="#3a736c"/><stop offset="0.45" stop-color="#4f997f"/><stop offset="0.59" stop-color="#5fb68d"/><stop offset="0.73" stop-color="#6bca97"/><stop offset="0.87" stop-color="#72d79d"/><stop offset="1" stop-color="#74db9f"/></linearGradient><linearGradient id="linear-gradient-17" x1="178.49" y1="163.73" x2="228.34" y2="163.73" gradientUnits="userSpaceOnUse"><stop offset="0" stop-color="#b4dbd5"/><stop offset="1" stop-color="#40d0c4"/></linearGradient><linearGradient id="linear-gradient-18" x1="178.47" y1="157" x2="228.32" y2="157" xlink:href="#linear-gradient-17"/><linearGradient id="linear-gradient-19" x1="178.45" y1="150.27" x2="228.3" y2="150.27" xlink:href="#linear-gradient-17"/><linearGradient id="linear-gradient-20" x1="178.43" y1="143.54" x2="228.28" y2="143.54" xlink:href="#linear-gradient-17"/><linearGradient id="linear-gradient-21" x1="180.07" y1="167.78" x2="226.78" y2="167.78" xlink:href="#linear-gradient-16"/><linearGradient id="linear-gradient-22" x1="180.07" y1="160.91" x2="226.78" y2="160.91" xlink:href="#linear-gradient-16"/><linearGradient id="linear-gradient-23" x1="180.07" y1="154.32" x2="226.78" y2="154.32" xlink:href="#linear-gradient-16"/><linearGradient id="linear-gradient-24" x1="180.07" y1="147.78" x2="226.78" y2="147.78" xlink:href="#linear-gradient-16"/><linearGradient id="linear-gradient-25" x1="-2654.89" y1="1140.34" x2="-2654.89" y2="1141.42" gradientTransform="matrix(5.68, 1, 1.7, -9.63, 13328.07, 13792.52)" xlink:href="#linear-gradient-9"/><linearGradient id="linear-gradient-26" x1="172.79" y1="167.16" x2="191.57" y2="169.99" gradientTransform="matrix(1, 0, 0, 1, 0, 0)" xlink:href="#linear-gradient-12"/></defs><title>Actionable Insight</title><g class="cls-1"><g id="Layer_2" data-name="Layer 2"><g id="Layer_1-2" data-name="Layer 1"><path class="cls-2" d="M240.6,244.44c27,14.56,27.15,38.2.31,52.76s-70.43,14.56-97.41,0-27.15-38.2-.33-52.77S213.62,229.89,240.6,244.44Z"/><circle class="cls-3" cx="158.29" cy="221.59" r="2.93"/><circle class="cls-4" cx="136.5" cy="93.38" r="1.77"/><circle class="cls-5" cx="236.86" cy="202.16" r="2.19"/><path class="cls-6" d="M361.18,0,259.44,272.83s-4.87,35.1-74,34.3c-58.93-.64-63.26-38.54-63.26-38.54L0,.7"/><path class="cls-7" d="M243.9,220.58a173.39,173.39,0,0,0-50.58-7.25c-28.82,0-55.9,6.48-76.28,18.25C100.8,241,90.35,252.78,86.77,265.89l13.95,1.24c3.11-11.33,12.2-21.64,26.31-29.73,17.71-10.23,41.25-15.87,66.3-15.87a146.58,146.58,0,0,1,50.58,8.56Z"/><path class="cls-8" d="M117,319.67c-14.85-8.61-25-19.42-29.31-31.29l13.76-1.6C105.19,297.09,114,306.49,127,314a106.22,106.22,0,0,0,19.67,8.67l-7,7.07a122.18,122.18,0,0,1-22.57-10Z"/><path class="cls-9" d="M165.15,335.78l3.71-7.88A160.21,160.21,0,0,0,197,329.73a157.48,157.48,0,0,0,24.85-2.48,118,118,0,0,0,37.81-13.32c24.62-14.22,33.56-35,23.31-54.26l13.49-2.39c11.78,22.14,1.5,46.06-26.83,62.42-12.18,7-27.22,12.39-43.52,15.32a181.12,181.12,0,0,1-28.58,2.89A184.17,184.17,0,0,1,165.15,335.78Z"/><path class="cls-10" d="M165.95,269.13c-1.2,1.21-3.37,1.24-4.85,1.49s-3.28,1.93-4.47,2.37-4-1.11-4-1.64.1-3,.24-3.74.54-.75.54-.75a10.67,10.67,0,0,1,2.83-1.41,11.74,11.74,0,0,1,2.63.18l1.45.26.71.13a1.55,1.55,0,0,0,1-.07l.31-.15.54-.31h0c1.68-1,3.36.41,3.85.83S167.16,267.91,165.95,269.13Z"/><path class="cls-11" d="M187.18,262s-2.16-.34-2.24.86c0,.54-.15,4.94.23,5.62s5.41.29,7.32.58,9.79.3,10-1.48a2.71,2.71,0,0,0-2.56-3,23,23,0,0,1-4.67-.91c-.76-.29-3.88-2.59-4.21-2.65a38.35,38.35,0,0,0-3.91,1Z"/><path class="cls-12" d="M186,261.89a12.78,12.78,0,0,0,.25,1.31,14.82,14.82,0,0,0,2.91.83c1.34.19,2.86-1.33,2.86-1.33l-.24-2.08Z"/><path class="cls-13" d="M153.53,265.74l-.13,2a4.13,4.13,0,0,0,3.36.65c1.62-.59,1.66-1,1.66-1l.11-1.82Z"/><path class="cls-14" d="M168.13,210.7s15.55,19.54,16.85,21.8,7.29,28.82,7.29,28.82-2.55,3.88-6.76.64c0,0-6.09-22.72-7.45-24.42s-15.4-14.44-16.32-14.54a20,20,0,0,0-3,.12s2.71,13.47,2.52,16-1,26.67-1,26.67-4.1,3.4-7.6.17c0,0,1.27-25.9,1-27.51S146,221,145.41,216.57c-1-7.86.67-12.8.67-12.8Z"/><path class="cls-15" d="M155.28,168.66s12.6-8.87,15.85-12.91,7.4-8.48,7.82-14.25c0,0,3.84-1.66,5.55.37,0,0-2.58,11.78-6.36,17.61s-20.21,19.32-20.21,19.32S154.76,173.07,155.28,168.66Z"/><path class="cls-16" d="M161.42,155.27a13.19,13.19,0,0,1,6,2.72s2.86.43,2.57.94a4.28,4.28,0,0,1-.89,1,13.13,13.13,0,0,1,1,5.42c-.22,2.62-4.5,2.82-4.68,3.4s-.74,4.52-.74,4.52-3.63.11-4.9-1.26c0,0-.2-4.59-.12-4.82s-3.28-2.2-3.55-5.08S158.68,154,161.42,155.27Z"/><path class="cls-17" d="M159.62,167.79s-5.18-1-5.07-5.31,1.65-5.38,1.53-6.94a7.84,7.84,0,0,0-1.14-3.15s2-1.44,3.56-.44c0,0,.17-.41-.39-1,0,0,2.85.05,3.94,2.25l.06-1s2,3,2.32,5,2.32,3.83,2.56,4.39.26,1.61-.09,1.4-1.18-1.39-1.5-1.28-1.78-.31-1.73,1.57.79,1.87.85,2.78S163,168.54,159.62,167.79Z"/><path class="cls-18" d="M170,175.67a4.33,4.33,0,0,0-.34-.44,31.38,31.38,0,0,0-7.41-4.45c-4.11-1.67-4.55-3.74-7-2.12s-6.44,6-7.88,16.51c-.92,6.67-2.75,19.85-2.75,19.85s4.28,12.28,25.79,7.92C171.37,205.9,171.9,178.17,170,175.67Z"/><polygon class="cls-19" points="211.9 180.28 194.72 180.28 194.79 169.5 211.97 169.5 211.9 180.28"/><path class="cls-19" d="M209.51,176.83c3.29,2,3.17,5.13-.25,7a13.38,13.38,0,0,1-12.15-.12c-3.28-2-3.17-5.13.25-7A13.38,13.38,0,0,1,209.51,176.83Z"/><g class="cls-1"><path class="cls-20" d="M220.28,158.54c8.93,5.38,8.63,13.94-.68,19.13s-24.1,5-33-.33-8.63-13.94.68-19.13S211.35,153.16,220.28,158.54Z"/><path class="cls-21" d="M186.07,175.05A19,19,0,0,1,182,171.8a15.21,15.21,0,0,1-1.26-1.52,12.51,12.51,0,0,1-1.23-2.12,11,11,0,0,1-.72-2.11,10.36,10.36,0,0,1-.26-2.11,11.29,11.29,0,0,1,.1-1.6,10.64,10.64,0,0,1,.53-2.11,12.34,12.34,0,0,1,2.06-3.6,17.2,17.2,0,0,1,3.27-3.08A27.49,27.49,0,0,1,194.88,149a39.33,39.33,0,0,1,7.21-.92c.79,0,2.06,0,3.59,0s2.06.16,3.52.35c0,0,1.55.2,3.4.65a31.24,31.24,0,0,1,3.24,1,27.82,27.82,0,0,1,3,1.28c.58.27,1.32.7,1.87,1a1.57,1.57,0,0,0-.49-.19,4,4,0,0,0-2.62.62c-7.54-4.54-20-4.67-27.9-.28s-8.12,11.62-.58,16.16,20,4.67,27.9.28,8.12-11.62.58-16.16a4,4,0,0,1,2.62-.62,1.57,1.57,0,0,1,.49.19c.55.35,1.29.81,1.81,1.21a18.24,18.24,0,0,1,2,1.71,15.63,15.63,0,0,1,1.36,1.56,13,13,0,0,1,1.33,2.15,10.88,10.88,0,0,1,1.06,3.79,9.82,9.82,0,0,1,0,1.81,10.09,10.09,0,0,1-.42,2.1,11.64,11.64,0,0,1-.89,2.1,13.56,13.56,0,0,1-1.11,1.71,17,17,0,0,1-3.21,3.15,23.82,23.82,0,0,1-5.06,2.91,31.17,31.17,0,0,1-5.65,1.82C203,180.47,192.82,179.14,186.07,175.05Z"/><path class="cls-22" d="M186.05,168.32a19,19,0,0,1-4.12-3.25,15.17,15.17,0,0,1-1.26-1.52,12.63,12.63,0,0,1-1.24-2.12,11,11,0,0,1-.72-2.12,10.43,10.43,0,0,1-.26-2.11,11.29,11.29,0,0,1,.1-1.6,10.65,10.65,0,0,1,.53-2.11,11.64,11.64,0,0,1,1-2.11,13.44,13.44,0,0,1,1.24-1.73,18.44,18.44,0,0,1,3.57-3.2,25.55,25.55,0,0,1,4.29-2.35c.63-.27,1.48-.62,2.14-.83a31.32,31.32,0,0,1,3.52-1,39.32,39.32,0,0,1,7.21-.92c.29,0,1.82-.06,3.59,0,1.45.08,2.06.16,3.52.35,0,0,1.55.2,3.4.65a31.32,31.32,0,0,1,3.24,1,27.7,27.7,0,0,1,3,1.28c.58.27,1.32.7,1.87,1a1.56,1.56,0,0,0-.49-.19,4,4,0,0,0-2.62.62c-7.54-4.54-20-4.67-27.9-.28s-8.12,11.62-.58,16.16,20,4.67,27.9.28,8.12-11.62.58-16.16a4,4,0,0,1,2.62-.62,1.56,1.56,0,0,1,.49.19c.55.35,1.29.81,1.81,1.21a18.35,18.35,0,0,1,2,1.72,13.39,13.39,0,0,1,2.68,3.71,10.88,10.88,0,0,1,1.06,3.79,9.8,9.8,0,0,1,0,1.81,10.14,10.14,0,0,1-.42,2.11,11.59,11.59,0,0,1-.89,2.1,13.64,13.64,0,0,1-1.11,1.71,17,17,0,0,1-3.21,3.15,23.8,23.8,0,0,1-5.05,2.9,31.22,31.22,0,0,1-5.66,1.82C203,173.74,192.8,172.41,186.05,168.32Z"/><path class="cls-23" d="M186,161.6a19,19,0,0,1-4.12-3.25,15.19,15.19,0,0,1-1.26-1.52,12.48,12.48,0,0,1-1.24-2.12,11,11,0,0,1-.72-2.12,10.45,10.45,0,0,1-.26-2.11,11.29,11.29,0,0,1,.1-1.59,10.6,10.6,0,0,1,.53-2.11,11.68,11.68,0,0,1,1-2.1,13.42,13.42,0,0,1,1.24-1.72,18.32,18.32,0,0,1,3.56-3.19,25.29,25.29,0,0,1,4.31-2.36,31.85,31.85,0,0,1,5.65-1.82,39.35,39.35,0,0,1,7.21-.92c.79,0,2.06,0,3.59,0s2.06.16,3.52.35c0,0,1.55.21,3.4.65a31.25,31.25,0,0,1,3.24,1,27.85,27.85,0,0,1,3,1.28c.58.27,1.32.7,1.87,1a1.56,1.56,0,0,0-.49-.19,4,4,0,0,0-2.62.62c-7.54-4.54-20-4.67-27.9-.28s-8.12,11.62-.58,16.16,20,4.67,27.9.28,8.12-11.62.58-16.16a4,4,0,0,1,2.62-.62,1.56,1.56,0,0,1,.49.19c.55.35,1.29.81,1.81,1.21a18.24,18.24,0,0,1,2,1.74,13.4,13.4,0,0,1,2.68,3.7,10.84,10.84,0,0,1,1.05,3.78,9.82,9.82,0,0,1,0,1.8,10.13,10.13,0,0,1-.42,2.11,12.14,12.14,0,0,1-2,3.81,17,17,0,0,1-3.21,3.15,23.79,23.79,0,0,1-5.05,2.9,31.21,31.21,0,0,1-5.66,1.82C202.93,167,192.78,165.69,186,161.6Z"/><path class="cls-24" d="M186,154.87a19,19,0,0,1-4.12-3.25,15.24,15.24,0,0,1-1.26-1.52A12.52,12.52,0,0,1,179.4,148a11,11,0,0,1-.72-2.12,10.43,10.43,0,0,1-.26-2.11,11.29,11.29,0,0,1,.1-1.59,10.62,10.62,0,0,1,.53-2.11,11.69,11.69,0,0,1,1-2.1,13.41,13.41,0,0,1,1.24-1.72,18.31,18.31,0,0,1,3.56-3.19,25.3,25.3,0,0,1,4.31-2.36,31.88,31.88,0,0,1,5.65-1.82,39.34,39.34,0,0,1,7.21-.92c.79,0,2.06,0,3.59,0s2.06.16,3.52.35c0,0,1.55.2,3.4.65a31.31,31.31,0,0,1,3.24,1,27.76,27.76,0,0,1,3,1.28c.58.27,1.32.7,1.87,1a1.57,1.57,0,0,0-.49-.19,4,4,0,0,0-2.62.62c-7.54-4.54-20-4.67-27.9-.28s-8.12,11.62-.58,16.16,20,4.67,27.9.28,8.12-11.62.58-16.16a4,4,0,0,1,2.62-.62,1.57,1.57,0,0,1,.49.19,21.31,21.31,0,0,1,3.17,2.33,15.13,15.13,0,0,1,2.46,2.81,11.3,11.3,0,0,1,1.85,4.65,10.35,10.35,0,0,1-.58,5.19,13.56,13.56,0,0,1-3.15,4.72,18.11,18.11,0,0,1-1.85,1.61c-.54.41-1.3.91-1.87,1.27a27.34,27.34,0,0,1-3.9,1.94,35.3,35.3,0,0,1-10.35,2.34,39.35,39.35,0,0,1-5.38.07,37.36,37.36,0,0,1-5.33-.66c-1-.19-2.21-.51-3.15-.76-.51-.14-1.18-.36-1.68-.54A27.73,27.73,0,0,1,186,154.87Z"/><path class="cls-25" d="M219.6,169.07c-9.31,5.19-24.1,5-33-.33-3.85-2.32-6-5.23-6.42-8.21-.54,3.74,1.58,7.58,6.42,10.49,8.93,5.38,23.72,5.53,33,.33,5.29-3,7.67-7,7.1-10.92C226.24,163.59,223.87,166.69,219.6,169.07Z"/><path class="cls-26" d="M219.6,162.2c-9.31,5.19-24.1,5-33-.33-3.85-2.32-6-5.23-6.42-8.21-.54,3.74,1.58,7.58,6.42,10.49,8.93,5.38,23.72,5.53,33,.33,5.29-3,7.67-7,7.1-10.92C226.24,156.72,223.87,159.82,219.6,162.2Z"/><path class="cls-27" d="M219.6,155.61c-9.31,5.19-24.1,5-33-.33-3.85-2.32-6-5.23-6.42-8.21-.54,3.74,1.58,7.58,6.42,10.49,8.93,5.38,23.72,5.53,33,.33,5.29-3,7.67-7,7.1-10.92C226.24,150.13,223.87,153.23,219.6,155.61Z"/><path class="cls-28" d="M219.6,149.07c-4.56,2.54-10.43,3.26-16.29,3.25-6.11,0-12.18-.84-16.74-3.59-3.85-2.32-6-5.23-6.42-8.21-.54,3.74,1.58,7.58,6.42,10.49,8.93,5.38,23.72,5.53,33,.33,5.29-3,7.67-7,7.1-10.92C226.24,143.59,223.87,146.69,219.6,149.07Z"/></g><path class="cls-29" d="M220.87,128.72c9.27,5.59,8.95,14.5-.71,19.9s-25,5.24-34.27-.35-8.95-14.5.71-19.9S211.61,123.13,220.87,128.72Z"/><path class="cls-30" d="M255.61,68.29C253.28,40,232,20.14,203.5,20.14h-.38c-28.5,0-49.78,19.83-52.12,48.15-1.15,13.88-1.32,26.21,21.5,53,4.77,5.6,6.18,11.41,6.7,18,.29,3.6,17.68,5.94,24.17,6.42,6.49-.48,23.88-2.82,24.17-6.42.53-6.6,1.94-12.41,6.71-18C257.08,94.5,256.76,82.17,255.61,68.29Z"/><ellipse class="cls-31" cx="172.98" cy="62.39" rx="19.04" ry="14.17" transform="translate(58.59 206.37) rotate(-71.37)"/><ellipse class="cls-31" cx="192.04" cy="43.4" rx="5.23" ry="7.02" transform="translate(4.5 103.31) rotate(-30.45)"/><path class="cls-4" d="M229.12,73.91,229,74v-.24a9.32,9.32,0,0,0-3.25,3.54,6.06,6.06,0,0,1-2.16,2.44,1.88,1.88,0,0,1-2.16.06,3,3,0,0,0-3.27.22,9.33,9.33,0,0,0-3.25,3.54A6,6,0,0,1,212.73,86a1.88,1.88,0,0,1-2.16.06,3,3,0,0,0-3.26.22,9.32,9.32,0,0,0-3.25,3.54,6,6,0,0,1-2.15,2.43,1.88,1.88,0,0,1-2.16.06,3,3,0,0,0-3.26.22,9.22,9.22,0,0,0-3.25,3.54,6.06,6.06,0,0,1-2.15,2.43,1.86,1.86,0,0,1-2.16.06,3,3,0,0,0-3.27.22V99a2.12,2.12,0,0,0-.25,2.11L201.18,144l0,.1V153H203v-9.41h0v-.14h0a2.64,2.64,0,0,0-.16-.79l-15.53-42.25a2.1,2.1,0,0,1,.54.22,3,3,0,0,0,3.27-.22,9.32,9.32,0,0,0,3.25-3.54,6,6,0,0,1,2.15-2.43,1.89,1.89,0,0,1,2.16-.06,3,3,0,0,0,3.26-.22,9.33,9.33,0,0,0,3.25-3.54,6,6,0,0,1,2.15-2.43,1.88,1.88,0,0,1,2.16-.06,3,3,0,0,0,3.26-.22A9.27,9.27,0,0,0,216,84.34a6.05,6.05,0,0,1,2.15-2.43,1.9,1.9,0,0,1,2.17-.07,3,3,0,0,0,3.26-.22,9.33,9.33,0,0,0,3.26-3.55,11.69,11.69,0,0,1,.79-1.18l-15.3,60.28a3.57,3.57,0,0,0-.13,1.26V153h1.76V136.72l0-.06,15.47-60.94C229.71,74.57,229.57,73.76,229.12,73.91Z"/><path class="cls-32" d="M190.18,149.69a11.41,11.41,0,0,0,.55-1.67,18.84,18.84,0,0,1-.3-2.3,3.49,3.49,0,0,1,.81-2.26c.32-.11.73.08.59.65a6.9,6.9,0,0,0-.09,1.49,15.68,15.68,0,0,0,1.43-4.23,3.66,3.66,0,0,1,2.57.23,2.73,2.73,0,0,1,1.19,2.25,8.75,8.75,0,0,1-1,3.66,6.49,6.49,0,0,1-1.38,2l-.51.12-.52,2.14Z"/><path class="cls-33" d="M165.58,177.15s12.6-8.87,15.85-12.91,7.4-8.48,7.82-14.25c0,0,3.84-1.66,5.55.37,0,0-2.58,11.78-6.36,17.61s-20.21,19.32-20.21,19.32S159.28,184.16,165.58,177.15Z"/></g></g></g></svg>