<?xml version="1.0" encoding="UTF-8"?>
<svg width="228px" height="213px" viewBox="0 0 228 213" version="1.1" xmlns="http://www.w3.org/2000/svg" xmlns:xlink="http://www.w3.org/1999/xlink">
    <!-- Generator: Sketch 55.2 (78181) - https://sketchapp.com -->
    <desc>Created with Sketch.</desc>
    <defs>
        <linearGradient x1="40.7235495%" y1="51.8566553%" x2="140.788396%" y2="51.8566553%" id="linearGradient-1">
            <stop stop-color="#BAD9D4" offset="0%"></stop>
            <stop stop-color="#6CCCC3" offset="100%"></stop>
        </linearGradient>
        <linearGradient x1="50.0547945%" y1="48.2648402%" x2="150.164384%" y2="48.2648402%" id="linearGradient-2">
            <stop stop-color="#EE7D31" offset="0%"></stop>
            <stop stop-color="#F4F18E" offset="100%"></stop>
        </linearGradient>
        <linearGradient x1="66.6549643%" y1="101.619692%" x2="56.3032283%" y2="46.0318319%" id="linearGradient-3">
            <stop stop-color="#D4D6D9" offset="0%"></stop>
            <stop stop-color="#41A1F7" stop-opacity="0" offset="100%"></stop>
        </linearGradient>
        <linearGradient x1="0%" y1="50.002453%" x2="99.9936362%" y2="50.002453%" id="linearGradient-4">
            <stop stop-color="#DAFCE7" offset="0%"></stop>
            <stop stop-color="#74DB9F" offset="100%"></stop>
        </linearGradient>
        <linearGradient x1="0.0508646999%" y1="49.9767225%" x2="99.9321804%" y2="49.9767225%" id="linearGradient-5">
            <stop stop-color="#DAFCE7" offset="0%"></stop>
            <stop stop-color="#74DB9F" offset="100%"></stop>
        </linearGradient>
        <linearGradient x1="0%" y1="50.0144267%" x2="99.9947677%" y2="50.0144267%" id="linearGradient-6">
            <stop stop-color="#DAFCE7" offset="0%"></stop>
            <stop stop-color="#74DB9F" offset="100%"></stop>
        </linearGradient>
        <linearGradient x1="83.0148953%" y1="13.8079911%" x2="21.0085729%" y2="83.0091554%" id="linearGradient-7">
            <stop stop-color="#000C3A" offset="1%"></stop>
            <stop stop-color="#03113C" offset="2%"></stop>
            <stop stop-color="#204656" offset="16%"></stop>
            <stop stop-color="#3A736C" offset="30%"></stop>
            <stop stop-color="#4F997F" offset="45%"></stop>
            <stop stop-color="#5FB68D" offset="59%"></stop>
            <stop stop-color="#6BCA97" offset="73%"></stop>
            <stop stop-color="#72D79D" offset="87%"></stop>
            <stop stop-color="#74DB9F" offset="100%"></stop>
        </linearGradient>
        <linearGradient x1="74.6662206%" y1="150.029544%" x2="36.0509%" y2="-26.5961764%" id="linearGradient-8">
            <stop stop-color="#000C3A" offset="1%"></stop>
            <stop stop-color="#03113C" offset="2%"></stop>
            <stop stop-color="#204656" offset="16%"></stop>
            <stop stop-color="#3A736C" offset="30%"></stop>
            <stop stop-color="#4F997F" offset="45%"></stop>
            <stop stop-color="#5FB68D" offset="59%"></stop>
            <stop stop-color="#6BCA97" offset="73%"></stop>
            <stop stop-color="#72D79D" offset="87%"></stop>
            <stop stop-color="#74DB9F" offset="100%"></stop>
        </linearGradient>
        <linearGradient x1="101.315402%" y1="-2.52468119%" x2="8.42968703%" y2="91.5984366%" id="linearGradient-9">
            <stop stop-color="#CC79EF" offset="0%"></stop>
            <stop stop-color="#5B24C4" offset="100%"></stop>
        </linearGradient>
        <linearGradient x1="5.66163735%" y1="121.297433%" x2="78.5316544%" y2="3.57953899%" id="linearGradient-10">
            <stop stop-color="#CC79EF" offset="0%"></stop>
            <stop stop-color="#5B24C4" offset="100%"></stop>
        </linearGradient>
    </defs>
    <g id="Final" stroke="none" stroke-width="1" fill="none" fill-rule="evenodd">
        <g id="Asset-3-Copy">
            <path d="M151.538122,153.956685 C168.543646,163.127072 168.638122,178.016354 151.73337,187.18674 C134.828619,196.357127 107.374144,196.357127 90.3812155,187.18674 C73.3882873,178.016354 73.2812155,163.127072 90.1733702,153.950387 C107.065525,144.773702 134.545193,144.792597 151.538122,153.956685 Z" id="Path" stroke="#FFFFFF" stroke-width="2.9"></path>
            <circle id="Oval" fill="url(#linearGradient-1)" fill-rule="nonzero" cx="99.6964641" cy="139.564972" r="1.84541436"></circle>
            <circle id="Oval" fill="#FFFFFF" fill-rule="nonzero" cx="85.9723757" cy="58.8139227" r="1.11480663"></circle>
            <circle id="Oval" fill="url(#linearGradient-2)" fill-rule="nonzero" cx="149.182541" cy="127.327293" r="1.37933702"></circle>
            <path d="M227.483536,0 L163.404199,171.83768 C163.404199,171.83768 160.336906,193.944862 116.796464,193.440994 C79.6803315,193.037901 76.9531492,169.167182 76.9531492,169.167182 L0,0.440883978" id="Path" fill="url(#linearGradient-3)" fill-rule="nonzero" opacity="0.7"></path>
            <path d="M153.616575,138.92884 C143.281348,135.841829 132.545799,134.303025 121.759558,134.362541 C103.607735,134.362541 86.5518232,138.443867 73.7158011,145.857017 C63.4872928,151.790055 56.9055249,159.209503 54.6507182,167.46663 L63.4369061,168.247624 C65.3956906,161.111602 71.120884,154.618011 80.0078453,149.522652 C91.1622099,143.079448 105.988508,139.527182 121.765856,139.527182 C132.619222,139.437702 143.403345,141.262773 153.622873,144.918564 L153.616575,138.92884 Z" id="Path" fill="url(#linearGradient-4)" fill-rule="nonzero"></path>
            <path d="M73.6906077,201.339116 C64.3375691,195.916243 57.9447514,189.107735 55.2301657,181.631602 L63.8966851,180.623867 C66.2522652,187.117459 71.801105,193.037901 79.9889503,197.767956 C83.9232836,200.002429 88.0741466,201.832016 92.3777901,203.228619 L87.9689503,207.681547 C83.0300115,206.067407 78.2672545,203.957191 73.7535912,201.383204 L73.6906077,201.339116 Z" id="Path" fill="url(#linearGradient-5)" fill-rule="nonzero"></path>
            <path d="M104.017127,211.485746 L106.353812,206.522652 C112.216295,207.427051 118.147109,207.812743 124.077348,207.675249 C129.327598,207.569729 134.561177,207.047424 139.728729,206.11326 C148.087132,204.695506 156.141344,201.858106 163.542762,197.723867 C179.049282,188.767624 184.68,175.679669 178.224199,163.549061 L186.720663,162.043757 C194.14011,175.988287 187.665414,191.053923 169.82221,201.358011 C162.150829,205.766851 152.678122,209.161657 142.411823,211.007072 C136.469256,212.089425 130.450109,212.698079 124.41116,212.827293 C117.586918,212.981039 110.762424,212.532114 104.017127,211.485746 Z" id="Path" fill="url(#linearGradient-6)" fill-rule="nonzero"></path>
            <path d="M97.7376796,144.471381 L97.7376796,165.016575 L93.4862983,167.535912 L86.5140331,137.97779 L49.6750276,116.720884 C46.4628729,114.869171 43.8616575,109.893481 43.8616575,105.610608 L39.8559116,75.9265193 C39.8559116,71.0893923 46.7840884,67.3166851 50.4308287,69.4140331 L90.740221,92.6738122 C94.62,94.9097238 97.7628729,100.918343 97.7628729,106.089282 L97.7376796,144.471381 Z" id="Path" fill="url(#linearGradient-7)" fill-rule="nonzero"></path>
            <path d="M93.4862983,146.971823 L93.4862983,167.535912 L82.2626519,140.453039 L45.4173481,119.221326 C42.2051934,117.369613 39.6039779,112.393923 39.6039779,108.11105 L39.6039779,76.8838674 C39.6039779,72.0467403 42.5453039,69.8171271 46.1794475,71.9144751 L86.4888398,95.1742541 C90.3686188,97.4101657 93.5114917,103.418785 93.5114917,108.589724 L93.4862983,146.971823 Z" id="Path" fill="url(#linearGradient-8)" fill-rule="nonzero"></path>
            <path d="M56.3701657,103.198343 C56.3701657,104.760331 55.419116,105.472044 54.2539227,104.798122 C52.9503725,103.867188 52.1634113,102.374997 52.1313812,100.773481 C52.1313812,99.2114917 53.0824309,98.499779 54.2476243,99.1737017 C55.5511745,100.104636 56.3381357,101.596826 56.3701657,103.198343 L56.3701657,103.198343 Z" id="Path" fill="#FFFFFF" fill-rule="nonzero"></path>
            <path d="M66.1325967,109.112486 C66.1325967,110.674475 65.181547,111.386188 64.0163536,110.712265 C62.709901,109.776041 61.9247362,108.275816 61.9001105,106.668729 C61.9001105,105.10674 62.8511602,104.395028 64.0163536,105.06895 C65.3228062,106.005174 66.107971,107.5054 66.1325967,109.112486 L66.1325967,109.112486 Z" id="Path" fill="#FFFFFF" fill-rule="nonzero"></path>
            <path d="M75.3533702,114.138564 C75.3533702,115.700552 74.4023204,116.412265 73.2371271,115.738343 C71.9306745,114.802119 71.1455097,113.301893 71.120884,111.694807 C71.120884,110.132818 72.0719337,109.421105 73.2371271,110.095028 C74.5435797,111.031251 75.3287445,112.531477 75.3533702,114.138564 Z" id="Path" fill="#FFFFFF" fill-rule="nonzero"></path>
            <path d="M124.234807,113.489834 L132.882431,118.465525 L131.893591,143.60221 L149.52895,128.114586 L198.05768,162.333481 C202.466519,164.852818 209.281326,157.874254 209.281326,152.029392 L209.281326,113.640994 C209.281326,107.796133 205.729061,101.000221 201.339116,98.4682873 L124.228508,53.9516022 C120.241657,51.6464088 113.307182,56.1623204 113.307182,61.5096133 L117.004309,99.7216575 C117.004309,105.005967 120.241657,111.190939 124.234807,113.489834 Z" id="Path" fill="url(#linearGradient-9)" fill-rule="nonzero"></path>
            <path d="M120.109392,117.243646 L128.757017,122.219337 L127.768177,147.337127 L145.403536,131.849503 L197.22,161.76663 C201.62884,164.285967 205.16221,161.609171 205.16221,155.764309 L205.16221,117.394807 C205.16221,111.549945 201.609945,104.754033 197.22,102.222099 L120.096796,57.7054144 C116.109945,55.400221 112.878895,57.8439779 112.878895,63.1660773 L112.878895,103.443978 C112.878895,108.759779 116.116243,114.944751 120.109392,117.243646 Z" id="Path" fill="url(#linearGradient-10)" fill-rule="nonzero"></path>
            <path d="M147.381215,104.735138 C147.381215,106.297127 146.430166,107.00884 145.264972,106.334917 C143.95852,105.398693 143.173355,103.898468 143.148729,102.291381 C143.148729,100.729392 144.099779,100.01768 145.264972,100.691602 C146.571425,101.627826 147.35659,103.128052 147.381215,104.735138 Z" id="Path" fill="#FFFFFF" fill-rule="nonzero"></path>
            <path d="M157.118453,110.649282 C157.118453,112.211271 156.167403,112.922983 155.00221,112.249061 C153.695757,111.312837 152.910593,109.812611 152.885967,108.205525 C152.885967,106.643536 153.837017,105.931823 155.00221,106.605746 C156.308663,107.54197 157.093827,109.042195 157.118453,110.649282 L157.118453,110.649282 Z" id="Path" fill="#FFFFFF" fill-rule="nonzero"></path>
            <path d="M166.351823,115.675359 C166.351823,117.237348 165.400773,117.949061 164.23558,117.275138 C162.929128,116.338914 162.143963,114.838689 162.119337,113.231602 C162.119337,111.669613 163.070387,110.957901 164.23558,111.631823 C165.542033,112.568047 166.327198,114.068273 166.351823,115.675359 Z" id="Path" fill="#FFFFFF" fill-rule="nonzero"></path>
        </g>
    </g>
</svg>