<?xml version="1.0" encoding="UTF-8"?>
<svg width="87px" height="87px" viewBox="0 0 87 87" version="1.1" xmlns="http://www.w3.org/2000/svg" xmlns:xlink="http://www.w3.org/1999/xlink">
    <!-- Generator: Sketch 55.2 (78181) - https://sketchapp.com -->
    <title>marketplace</title>
    <desc>Created with Sketch.</desc>
    <g id="Page-1" stroke="none" stroke-width="1" fill="none" fill-rule="evenodd" opacity="0.899999976">
        <g id="TractionToday-v.3" transform="translate(-380.000000, -1648.000000)" fill="#5CB18B" fill-rule="nonzero">
            <g id="marketplace" transform="translate(380.000000, 1648.000000)">
                <polygon id="Path" transform="translate(55.430320, 51.179253) rotate(-15.898187) translate(-55.430320, -51.179253) " points="47.4017816 49.7749605 63.458858 49.7749605 63.458858 52.5835452 47.4017816 52.5835452"></polygon>
                <polygon id="Path" transform="translate(67.362970, 47.775397) rotate(-15.898187) translate(-67.362970, -47.775397) " points="65.9032362 46.3711051 68.8227046 46.3711051 68.8227046 49.1796899 65.9032362 49.1796899"></polygon>
                <polygon id="Path" transform="translate(44.756721, 60.852486) rotate(-74.046738) translate(-44.756721, -60.852486) " points="43.3520437 59.4478085 46.1613989 59.4478085 46.1613989 62.2571637 43.3520437 62.2571637"></polygon>
                <polygon id="Path" transform="translate(39.285604, 59.322614) rotate(-74.030983) translate(-39.285604, -59.322614) " points="37.8822764 57.919987 40.688932 57.919987 40.688932 60.72524 37.8822764 60.72524"></polygon>
                <polygon id="Path" transform="translate(50.151292, 62.382333) rotate(-74.046738) translate(-50.151292, -62.382333) " points="48.7466148 60.978357 51.55597 60.978357 51.55597 63.7863083 48.7466148 63.7863083"></polygon>
                <polygon id="Path" points="16.8387097 5.61290323 19.6451613 5.61290323 19.6451613 8.41935484 16.8387097 8.41935484"></polygon>
                <polygon id="Path" points="22.4516129 5.61290323 30.8709677 5.61290323 30.8709677 8.41935484 22.4516129 8.41935484"></polygon>
                <polygon id="Path" points="18.2419355 78.5806452 29.4677419 78.5806452 29.4677419 81.3870968 18.2419355 81.3870968"></polygon>
                <path d="M87,29.4677419 C87,20.9571774 80.0750806,14.0322581 71.5645161,14.0322581 C63.0539516,14.0322581 56.1290323,20.9571774 56.1290323,29.4677419 C56.1290323,34.4155161 58.4976774,38.988629 62.3649677,41.8624355 L47.7096774,46.0496613 L47.7096774,38.1017903 L47.7096774,37.3594839 L47.7096774,7.01612903 C47.7096774,3.14743548 44.5622419,0 40.6935484,0 L7.01612903,0 C3.14743548,0 0,3.14743548 0,7.01612903 L0,37.3594839 L0,38.1017903 L0,79.983871 C0,83.8525645 3.14743548,87 7.01612903,87 L40.6935484,87 C44.0809355,87 46.9154516,84.5850484 47.5679516,81.3870968 L54.7258065,81.3870968 C58.5945,81.3870968 61.7419355,78.2396613 61.7419355,74.3709677 L61.7419355,73.023871 L71.1800323,75.720871 L78.1274032,75.7741935 L78.4810161,74.8915645 C78.5988871,74.5954839 81.3870968,67.5091935 81.3870968,57.5322581 C81.3870968,51.0240968 80.2027742,45.762 79.3454032,42.7969839 C84.0307742,40.0494677 87,34.9445323 87,29.4677419 Z M70.674871,42.4068871 C71.4326129,44.7600968 72.9677419,50.4080806 72.9677419,57.5322581 C72.9677419,64.6564355 71.4326129,70.3030161 70.674871,72.657629 L33.6774194,62.0857258 L33.6774194,52.9773871 L70.674871,42.4068871 Z M44.9032258,68.2136129 L53.3225806,70.6187419 L53.3225806,72.9677419 L44.9032258,72.9677419 L44.9032258,68.2136129 Z M36.483871,72.9677419 L8.41935484,72.9677419 L8.41935484,44.6829194 C10.0513065,44.2787903 11.4643548,43.2881129 12.4017097,41.9185645 C13.6267258,43.7175 15.6894677,44.9032258 18.0272419,44.9032258 C20.4618387,44.9032258 22.6522742,43.5954194 23.8548387,41.5972258 C25.0588065,43.5968226 27.2478387,44.9032258 29.6824355,44.9032258 C32.0188065,44.9032258 34.0829516,43.7175 35.3079677,41.9171613 C36.2453226,43.2881129 37.658371,44.2773871 39.2903226,44.6815161 L39.2903226,48.4547903 L33.6325161,50.0713065 C33.4178226,48.7368387 32.2657742,47.7096774 30.8709677,47.7096774 L28.0645161,47.7096774 C26.5167581,47.7096774 25.2580645,48.968371 25.2580645,50.516129 L25.2580645,64.5483871 C25.2580645,66.0961452 26.5167581,67.3548387 28.0645161,67.3548387 L30.8709677,67.3548387 C32.2657742,67.3548387 33.4178226,66.3276774 33.6325161,64.9932097 L36.483871,65.8070806 L36.483871,72.9677419 Z M40.9082419,42.0967742 C39.1528065,42.0967742 37.6275,40.9363065 37.1111129,39.2903226 L44.7025645,39.2903226 C44.1931935,40.9110484 42.6945484,42.0967742 40.9082419,42.0967742 Z M25.286129,36.483871 L25.2580645,36.3449516 L25.2580645,25.2580645 L31.1488065,25.2580645 L33.6437419,36.483871 L25.286129,36.483871 Z M22.4516129,36.3449516 L22.4235484,36.483871 L14.1122419,36.483871 L16.5594677,25.2580645 L22.4516129,25.2580645 L22.4516129,36.3449516 Z M21.824371,39.2903226 C21.3079839,40.9349032 19.7812742,42.0967742 18.0272419,42.0967742 C16.2409355,42.0967742 14.7422903,40.9110484 14.2329194,39.2903226 L21.824371,39.2903226 Z M33.4767581,39.2903226 C32.9673871,40.9110484 31.4687419,42.0967742 29.6824355,42.0967742 C27.927,42.0967742 26.4016935,40.9363065 25.8853065,39.2903226 L33.4767581,39.2903226 Z M36.483871,36.483871 L36.4698387,36.483871 L34.0254194,25.2580645 L41.0864516,25.2580645 L44.6997581,36.0965806 C44.7418548,36.222871 44.7657097,36.353371 44.7951774,36.483871 L36.483871,36.483871 Z M39.2903226,22.4516129 L8.41935484,22.4516129 L8.41935484,14.0322581 L39.2903226,14.0322581 L39.2903226,22.4516129 Z M6.62462903,25.2580645 L13.6856613,25.2580645 L11.253871,36.2088387 L11.1977419,36.483871 L2.91590323,36.483871 C2.94537097,36.3547742 2.96922581,36.222871 3.01132258,36.0965806 L6.62462903,25.2580645 Z M10.5985645,39.2903226 C10.0821774,40.9349032 8.55546774,42.0967742 6.80143548,42.0967742 C5.01512903,42.0967742 3.51648387,40.9110484 3.0071129,39.2903226 L10.5985645,39.2903226 Z M30.8737742,64.5483871 L28.0645161,64.5483871 L28.0645161,50.516129 L30.8709677,50.516129 L30.8737742,64.5483871 Z M42.0967742,47.6535484 L42.0967742,44.7839516 C43.1351613,44.600129 44.0837419,44.1791613 44.9032258,43.5799839 L44.9032258,46.8523065 L42.0967742,47.6535484 Z M7.01612903,2.80645161 L40.6935484,2.80645161 C43.0144839,2.80645161 44.9032258,4.69519355 44.9032258,7.01612903 L44.9032258,27.8371935 L43.1085,22.4516129 L42.0967742,22.4516129 L42.0967742,14.0322581 C42.0967742,12.4845 40.8380806,11.2258065 39.2903226,11.2258065 L8.41935484,11.2258065 C6.87159677,11.2258065 5.61290323,12.4845 5.61290323,14.0322581 L5.61290323,22.4516129 L4.60117742,22.4516129 L2.80645161,27.8371935 L2.80645161,7.01612903 C2.80645161,4.69519355 4.69519355,2.80645161 7.01612903,2.80645161 Z M40.6935484,84.1935484 L7.01612903,84.1935484 C4.69519355,84.1935484 2.80645161,82.3048065 2.80645161,79.983871 L2.80645161,43.5799839 C3.62593548,44.1791613 4.57451613,44.5987258 5.61290323,44.7839516 L5.61290323,72.9677419 C5.61290323,74.5155 6.87159677,75.7741935 8.41935484,75.7741935 L36.6255968,75.7741935 C37.2780968,78.9721452 40.1112097,81.3870968 43.5,81.3870968 L44.6450323,81.3870968 C44.0640968,83.0162419 42.5205484,84.1935484 40.6935484,84.1935484 L40.6935484,84.1935484 Z M58.9354839,74.3709677 C58.9354839,76.6919032 57.0467419,78.5806452 54.7258065,78.5806452 L43.5,78.5806452 C41.1790645,78.5806452 39.2903226,76.6919032 39.2903226,74.3709677 L39.2903226,66.6097258 L42.0967742,67.4109677 L42.0967742,72.9677419 C42.0967742,74.5155 43.3554677,75.7741935 44.9032258,75.7741935 L53.3225806,75.7741935 C54.8703387,75.7741935 56.1290323,74.5155 56.1290323,72.9677419 L56.1290323,71.4199839 L58.9354839,72.2212258 L58.9354839,74.3709677 Z M76.1867419,72.9677419 L73.5248226,72.9677419 C74.3821935,70.1823387 75.7741935,64.5876774 75.7741935,57.5322581 C75.7741935,50.4768387 74.3821935,44.8821774 73.5248226,42.0967742 L76.1867419,42.0967742 C76.8995806,44.2380968 78.5806452,50.0797258 78.5806452,57.5322581 C78.5806452,64.9847903 76.8995806,70.8264194 76.1867419,72.9677419 Z M78.1274032,39.2903226 L72.9677419,39.2903226 L72.9677419,36.483871 L77.1774194,36.483871 L77.1774194,32.2741935 C77.1774194,29.9532581 75.2886774,28.0645161 72.9677419,28.0645161 L70.1612903,28.0645161 C69.3867097,28.0645161 68.7580645,27.4344677 68.7580645,26.6612903 L68.7580645,25.2580645 L72.9677419,25.2580645 C73.7423226,25.2580645 74.3709677,25.8881129 74.3709677,26.6612903 L77.1774194,26.6612903 C77.1774194,24.3403548 75.2886774,22.4516129 72.9677419,22.4516129 L72.9677419,19.6451613 L70.1612903,19.6451613 L70.1612903,22.4516129 L65.9516129,22.4516129 L65.9516129,26.6612903 C65.9516129,28.9822258 67.8403548,30.8709677 70.1612903,30.8709677 L72.9677419,30.8709677 C73.7423226,30.8709677 74.3709677,31.5010161 74.3709677,32.2741935 L74.3709677,33.6774194 L70.1612903,33.6774194 C69.3867097,33.6774194 68.7580645,33.047371 68.7580645,32.2741935 L65.9516129,32.2741935 C65.9516129,34.595129 67.8403548,36.483871 70.1612903,36.483871 L70.1612903,39.6355161 L66.0568548,40.8086129 C61.7236935,38.6995645 58.9354839,34.3130806 58.9354839,29.4677419 C58.9354839,22.5049355 64.6003065,16.8387097 71.5645161,16.8387097 C78.5287258,16.8387097 84.1935484,22.5049355 84.1935484,29.4677419 C84.1935484,33.7475806 81.9708387,37.7411613 78.4319032,40.050871 L78.1274032,39.2903226 Z" id="Shape"></path>
                <polygon id="Path" points="11.2258065 47.7096774 22.4516129 47.7096774 22.4516129 50.516129 11.2258065 50.516129"></polygon>
                <polygon id="Path" points="11.2258065 53.3225806 22.4516129 53.3225806 22.4516129 56.1290323 11.2258065 56.1290323"></polygon>
                <polygon id="Path" points="11.2258065 58.9354839 22.4516129 58.9354839 22.4516129 61.7419355 11.2258065 61.7419355"></polygon>
                <polygon id="Path" points="11.2258065 64.5483871 14.0322581 64.5483871 14.0322581 67.3548387 11.2258065 67.3548387"></polygon>
                <polygon id="Path" points="16.8387097 64.5483871 19.6451613 64.5483871 19.6451613 67.3548387 16.8387097 67.3548387"></polygon>
            </g>
        </g>
    </g>
</svg>