<svg xmlns="http://www.w3.org/2000/svg" xmlns:xlink="http://www.w3.org/1999/xlink" viewBox="0 0 361.18 337.97"><defs><style>.cls-1,.cls-20{fill:none;stroke:#fff;stroke-miterlimit:10;}.cls-1{stroke-width:2.9px;}.cls-2{fill:url(#linear-gradient);}.cls-3{fill:#fff;}.cls-4{fill:url(#linear-gradient-2);}.cls-5{opacity:0.7;isolation:isolate;fill:url(#linear-gradient-3);}.cls-6{fill:url(#linear-gradient-4);}.cls-7{fill:url(#linear-gradient-5);}.cls-8{fill:url(#linear-gradient-6);}.cls-9{fill:url(#linear-gradient-7);}.cls-10{fill:url(#linear-gradient-8);}.cls-11{fill:url(#linear-gradient-9);}.cls-12{fill:url(#linear-gradient-10);}.cls-13{fill:url(#linear-gradient-11);}.cls-14{fill:url(#linear-gradient-12);}.cls-15{fill:url(#linear-gradient-13);}.cls-16{fill:url(#linear-gradient-14);}.cls-17{fill:url(#linear-gradient-15);}.cls-18{fill:url(#linear-gradient-16);}.cls-19{fill:url(#linear-gradient-17);}.cls-20{stroke-linecap:round;stroke-width:1.39px;}</style><linearGradient id="linear-gradient" x1="-2177.09" y1="1735.61" x2="-2175.36" y2="1735.61" gradientTransform="matrix(3.37, 0, 0, -3.37, 7485.46, 6071.61)" gradientUnits="userSpaceOnUse"><stop offset="0" stop-color="#bad9d4"/><stop offset="1" stop-color="#6cccc3"/></linearGradient><linearGradient id="linear-gradient-2" x1="-1843.3" y1="1782.52" x2="-1841.56" y2="1782.52" gradientTransform="matrix(2.52, 0, 0, -2.52, 4873.9, 4693.28)" gradientUnits="userSpaceOnUse"><stop offset="0" stop-color="#ee7d31"/><stop offset="1" stop-color="#f4f18e"/></linearGradient><linearGradient id="linear-gradient-3" x1="-3106.74" y1="1607.85" x2="-3106.95" y2="1609.19" gradientTransform="matrix(178.04, 0, 0, -176.19, 553358.01, 283666.7)" gradientUnits="userSpaceOnUse"><stop offset="0" stop-color="#d4d6d9"/><stop offset="1" stop-color="#41a1f7" stop-opacity="0"/></linearGradient><linearGradient id="linear-gradient-4" x1="86.77" y1="240.23" x2="239.14" y2="240.23" gradientUnits="userSpaceOnUse"><stop offset="0" stop-color="#dafce7"/><stop offset="1" stop-color="#74db9f"/></linearGradient><linearGradient id="linear-gradient-5" x1="87.72" y1="308.25" x2="146.63" y2="308.25" xlink:href="#linear-gradient-4"/><linearGradient id="linear-gradient-6" x1="165.15" y1="297.63" x2="301.25" y2="297.63" xlink:href="#linear-gradient-4"/><linearGradient id="linear-gradient-7" x1="1035.7" y1="3032.13" x2="1028.14" y2="3080.8" gradientTransform="matrix(0.87, -0.5, 0, 1.15, -693.58, -2803.05)" gradientUnits="userSpaceOnUse"><stop offset="0" stop-color="#b4dbd5"/><stop offset="1" stop-color="#40d0c4"/></linearGradient><linearGradient id="linear-gradient-8" x1="198.45" y1="142.69" x2="190.26" y2="214.48" gradientTransform="matrix(1, 0, 0, 1, 0, 0)" xlink:href="#linear-gradient-7"/><linearGradient id="linear-gradient-9" x1="204.39" y1="249.45" x2="177.52" y2="173.05" gradientUnits="userSpaceOnUse"><stop offset="0.04" stop-color="#000c3a"/><stop offset="1" stop-color="#40d0c4"/></linearGradient><linearGradient id="linear-gradient-10" x1="160.62" y1="176.22" x2="258.1" y2="176.22" xlink:href="#linear-gradient-4"/><linearGradient id="linear-gradient-11" x1="177.44" y1="132.59" x2="199.58" y2="162.94" xlink:href="#linear-gradient-4"/><linearGradient id="linear-gradient-12" x1="223.53" y1="254.17" x2="186.36" y2="198.42" gradientUnits="userSpaceOnUse"><stop offset="0.01" stop-color="#000c3a"/><stop offset="0.02" stop-color="#03113c"/><stop offset="0.16" stop-color="#204656"/><stop offset="0.3" stop-color="#3a736c"/><stop offset="0.45" stop-color="#4f997f"/><stop offset="0.59" stop-color="#5fb68d"/><stop offset="0.73" stop-color="#6bca97"/><stop offset="0.87" stop-color="#72d79d"/><stop offset="1" stop-color="#74db9f"/></linearGradient><linearGradient id="linear-gradient-13" x1="-3081.73" y1="1617.94" x2="-3081.19" y2="1617.94" gradientTransform="matrix(76.21, 0, -4.72, -46.81, 242690.19, 75903.69)" gradientUnits="userSpaceOnUse"><stop offset="0" stop-color="#ededed"/><stop offset="0.98" stop-color="#dfdfdf"/></linearGradient><linearGradient id="linear-gradient-14" x1="-3081.73" y1="1617.82" x2="-3081.19" y2="1617.82" gradientTransform="matrix(76.21, 0, -4.72, -46.82, 242689.93, 75901.09)" xlink:href="#linear-gradient-13"/><linearGradient id="linear-gradient-15" x1="-3081.73" y1="1618.04" x2="-3081.19" y2="1618.04" gradientTransform="matrix(76.21, 0, -4.72, -46.81, 242691.26, 75914.27)" xlink:href="#linear-gradient-13"/><linearGradient id="linear-gradient-16" x1="197.06" y1="108.22" x2="222.49" y2="201.63" xlink:href="#linear-gradient-4"/><linearGradient id="linear-gradient-17" x1="223.47" y1="92.9" x2="248.9" y2="186.3" xlink:href="#linear-gradient-4"/></defs><title>Weekly newsletter</title><g id="Layer_2" data-name="Layer 2"><g id="Layer_1-2" data-name="Layer 1"><path class="cls-1" d="M240.6,244.44c27,14.56,27.15,38.2.31,52.76s-70.43,14.56-97.41,0-27.15-38.2-.33-52.77S213.62,229.89,240.6,244.44Z"/><circle class="cls-2" cx="158.29" cy="221.59" r="2.93"/><circle class="cls-3" cx="136.5" cy="93.38" r="1.77"/><circle class="cls-4" cx="236.86" cy="202.16" r="2.19"/><path class="cls-5" d="M361.18,0,259.44,272.83s-4.87,35.1-74,34.3c-58.93-.64-63.26-38.54-63.26-38.54L0,.7"/><path class="cls-6" d="M237.36,218.76a173.39,173.39,0,0,0-44-5.43c-28.82,0-55.9,6.48-76.28,18.25C100.8,241,90.35,252.78,86.77,265.89l13.95,1.24c3.11-11.33,12.2-21.64,26.31-29.73,17.71-10.23,41.25-15.87,66.3-15.87a146.58,146.58,0,0,1,44.39,6.5C239.79,228.67,239.55,219.32,237.36,218.76Z"/><path class="cls-7" d="M117,319.67c-14.85-8.61-25-19.42-29.31-31.29l13.76-1.6C105.19,297.09,114,306.49,127,314a106.22,106.22,0,0,0,19.67,8.67l-7,7.07a122.18,122.18,0,0,1-22.57-10Z"/><path class="cls-8" d="M165.15,335.78l3.71-7.88A160.21,160.21,0,0,0,197,329.73a157.48,157.48,0,0,0,24.85-2.48,118,118,0,0,0,37.81-13.32c24.62-14.22,33.56-35,23.31-54.26l13.49-2.39c11.78,22.14,1.5,46.06-26.83,62.42-12.18,7-27.22,12.39-43.52,15.32a181.12,181.12,0,0,1-28.58,2.89A184.17,184.17,0,0,1,165.15,335.78Z"/><path class="cls-9" d="M240.54,248.09l-73.37,42.36a5.16,5.16,0,0,1-7.66-3.59l-8.74-50.7a5.16,5.16,0,0,1,2.5-5.34l73.37-42.36A5.16,5.16,0,0,1,234.3,192l8.74,50.7A5.16,5.16,0,0,1,240.54,248.09Z"/><polygon class="cls-10" points="151.2 233.17 177.33 170.72 230.22 187.94 151.2 233.17"/><polygon class="cls-11" points="230.22 187.94 225.74 197.62 203.99 244.61 160.87 235.26 151.2 233.16 158.45 215.83 177.33 170.72 224.3 186.01 230.22 187.94"/><path class="cls-12" d="M239.67,187.73c-8.8,4-11.26,4.88-14.47,11.07v0L204,244.61l-41.28-9-1.83-.4,0-.38a24.65,24.65,0,0,1,1.66-12.66c.22-.53.45-1.05.69-1.57a44.86,44.86,0,0,1,19.32-20.49l2.86-1.54A10.87,10.87,0,0,0,191,187.71l-.21-1.68-5.06-40.72,64.89-37.47.27,2.15,5.75,46.22,1.45,11.61S259.68,178.63,239.67,187.73Z"/><path class="cls-13" d="M239.67,187.73c-8.8,4-11.26,4.88-14.47,11.07v0L204,244.61l-41.28-9a24.63,24.63,0,0,1,1.71-12.24q.34-.79.69-1.57a44.86,44.86,0,0,1,19.32-20.49l2.86-1.54a10.88,10.88,0,0,0,5.62-10.92l-.21-1.68-5.06-40.72L250.87,110l5.75,46.22,1.45,11.61S259.68,178.63,239.67,187.73Z"/><path class="cls-14" d="M230.22,192.34l-63,29.6a12.09,12.09,0,0,0-3.88,13.85L204,244.61Z"/><polygon class="cls-15" points="239.7 154.32 201.1 177.45 200.9 175.45 239.5 152.31 239.7 154.32"/><polygon class="cls-16" points="239.08 148.18 200.49 171.31 200.28 169.31 238.88 146.17 239.08 148.18"/><polygon class="cls-17" points="240.27 160 201.68 183.13 201.48 181.13 240.07 158 240.27 160"/><polygon class="cls-18" points="196.27 147.2 198.84 164.07 220.11 151.6 217.91 135.47 196.27 147.2"/><polygon class="cls-19" points="222.68 131.88 225.24 148.75 246.52 136.28 244.31 120.14 222.68 131.88"/><line class="cls-20" x1="250.48" y1="89.21" x2="252.45" y2="95.4"/><line class="cls-20" x1="255.5" y1="105.4" x2="257.47" y2="111.59"/><line class="cls-20" x1="242.78" y1="103.9" x2="248.98" y2="101.92"/><line class="cls-20" x1="258.97" y1="98.87" x2="265.17" y2="96.9"/></g></g></svg>