<?xml version="1.0" encoding="UTF-8"?>
<svg width="87px" height="87px" viewBox="0 0 87 87" version="1.1" xmlns="http://www.w3.org/2000/svg" xmlns:xlink="http://www.w3.org/1999/xlink">
    <!-- Generator: Sketch 55.2 (78181) - https://sketchapp.com -->
    <title>saas</title>
    <desc>Created with Sketch.</desc>
    <g id="Page-1" stroke="none" stroke-width="1" fill="none" fill-rule="evenodd" opacity="0.899999976">
        <g id="TractionToday-v.3" transform="translate(-974.000000, -1648.000000)" fill="#4B917A" fill-rule="nonzero">
            <g id="saas" transform="translate(974.000000, 1648.000000)">
                <path d="M12.3119032,51.3345513 C10.9353387,51.6538431 9.51246774,51.8148893 8.07837097,51.8148893 L5.61290323,51.8148893 L5.61290323,60.2173038 L8.41935484,60.2173038 L8.41935484,54.6128934 C9.95167742,54.5890865 11.4727742,54.4042334 12.9461613,54.0611348 L12.3119032,51.3345513 Z" id="Path"></path>
                <path d="M5.63535484,63.085328 C5.68306452,64.0936177 5.80795161,65.1047082 6.00440323,66.091992 L8.75753226,65.5444346 C8.58774194,64.6943903 8.48109677,63.8219396 8.439,62.9494889 L5.63535484,63.085328 Z" id="Path"></path>
                <polygon id="Path" points="28.4756613 57.8268169 15.4354839 70.8407565 12.2178871 67.6296338 10.2337258 69.6098028 15.4354839 74.8010946 30.4598226 59.8069859"></polygon>
                <path d="M82.7903226,0 L15.4354839,0 C13.1145484,0 11.2258065,1.88494165 11.2258065,4.20120724 L11.2258065,45.8155654 C10.2070645,46.0690382 9.15464516,46.2132797 8.07837097,46.2132797 L0,46.2132797 L0,62.1092475 C0,73.3082656 7.15224194,83.2119115 17.7985161,86.7535292 L18.2419355,86.9005714 L18.6853548,86.7535292 C21.5367097,85.8054567 24.1256613,84.3882495 26.4059032,82.6251429 L42.0967742,82.6251429 L42.0967742,79.824338 L43.2726774,79.824338 L45.9696774,80.721996 C46.9715806,81.0538913 48.0169839,81.22334 49.0764194,81.22334 L68.7580645,81.22334 C71.079,81.22334 72.9677419,79.3383984 72.9677419,77.0221328 C72.9677419,75.9424225 72.545371,74.9663421 71.8732258,74.221328 C72.5467742,73.4763139 72.9677419,72.5002334 72.9677419,71.4205231 C72.9677419,70.3408129 72.545371,69.3647324 71.8732258,68.6197183 C72.5467742,67.8747042 72.9677419,66.8986237 72.9677419,65.8189135 C72.9677419,65.3259718 72.8667097,64.8582374 72.7095484,64.4185111 L82.7903226,64.4185111 C85.1112581,64.4185111 87,62.5335694 87,60.2173038 L87,4.20120724 C87,1.88494165 85.1112581,0 82.7903226,0 Z M84.1935484,4.20120724 L84.1935484,11.2032193 L61.7419355,11.2032193 L61.7419355,2.80080483 L82.7903226,2.80080483 C83.5635,2.80080483 84.1935484,3.42818511 84.1935484,4.20120724 Z M53.3225806,14.0040241 L53.3225806,19.6056338 L50.516129,19.6056338 L50.516129,14.0040241 L47.7096774,14.0040241 L47.7096774,19.6056338 L44.9032258,19.6056338 L44.9032258,14.0040241 L42.0967742,14.0040241 L42.0967742,19.6056338 L39.2903226,19.6056338 L39.2903226,2.80080483 L58.9354839,2.80080483 L58.9354839,19.6056338 L56.1290323,19.6056338 L56.1290323,14.0040241 L53.3225806,14.0040241 Z M15.4354839,2.80080483 L36.483871,2.80080483 L36.483871,11.2032193 L14.0322581,11.2032193 L14.0322581,4.20120724 C14.0322581,3.42818511 14.6623065,2.80080483 15.4354839,2.80080483 Z M18.2419355,83.9429215 C8.98906452,80.6603783 2.80645161,71.9442736 2.80645161,62.1092475 L2.80645161,49.0140845 L8.07837097,49.0140845 C11.8404194,49.0140845 15.4004032,47.7089095 18.2419355,45.3128209 C21.0820645,47.7089095 24.6434516,49.0140845 28.4055,49.0140845 L33.6774194,49.0140845 L33.6774194,62.1092475 C33.6774194,71.9442736 27.4948065,80.6603783 18.2419355,83.9429215 Z M39.2903226,79.8229376 L29.4789677,79.8229376 C33.873871,75.1245875 36.483871,68.8577867 36.483871,62.1092475 L36.483871,60.2173038 L39.2903226,60.2173038 L39.2903226,79.8229376 Z M70.1612903,65.8189135 C70.1612903,66.5919356 69.5312419,67.2193159 68.7580645,67.2193159 L64.5483871,67.2193159 L64.5483871,70.0201207 L68.7580645,70.0201207 C69.5312419,70.0201207 70.1612903,70.647501 70.1612903,71.4205231 C70.1612903,72.1935453 69.5312419,72.8209256 68.7580645,72.8209256 L64.5483871,72.8209256 L64.5483871,75.6217304 L68.7580645,75.6217304 C69.5312419,75.6217304 70.1612903,76.2491107 70.1612903,77.0221328 C70.1612903,77.7951549 69.5312419,78.4225352 68.7580645,78.4225352 L49.0764194,78.4225352 C48.3186774,78.4225352 47.5735645,78.3021006 46.8579194,78.0640322 L43.7273226,77.0221328 L42.0967742,77.0221328 L42.0967742,63.0181087 L43.2039194,63.0181087 C44.5945161,63.0181087 45.9402097,62.611992 47.0950645,61.8417706 C51.8730484,58.6642575 54.7258065,53.3441288 54.7258065,47.6136821 L54.7258065,38.3906318 C54.7258065,37.9172958 55.3825161,37.6456177 55.7178871,37.9803139 C56.8881774,39.1482495 57.5322581,40.6998954 57.5322581,42.3509698 L57.5322581,54.6156942 C57.5322581,56.9319598 59.421,58.8169014 61.7419355,58.8169014 L67.3548387,58.8169014 L68.7580645,58.8169014 C69.5312419,58.8169014 70.1612903,59.4442817 70.1612903,60.2173038 C70.1612903,60.990326 69.5312419,61.6177062 68.7580645,61.6177062 L67.3548387,61.6177062 L64.5483871,61.6177062 L64.5483871,64.4185111 L67.3548387,64.4185111 L68.7580645,64.4185111 C69.5312419,64.4185111 70.1612903,65.0458913 70.1612903,65.8189135 L70.1612903,65.8189135 Z M68.7580645,56.0160966 L67.3548387,56.0160966 L61.7419355,56.0160966 C60.9687581,56.0160966 60.3387097,55.3887163 60.3387097,54.6156942 L60.3387097,47.6136821 L78.5806452,47.6136821 L78.5806452,56.0160966 L68.7580645,56.0160966 Z M82.7903226,61.6177062 L72.7095484,61.6177062 C72.8667097,61.1779799 72.9677419,60.7102455 72.9677419,60.2173038 C72.9677419,59.7243622 72.8667097,59.2566278 72.7095484,58.8169014 L81.3870968,58.8169014 L81.3870968,44.8128773 L60.3387097,44.8128773 L60.3387097,42.3509698 C60.3387097,39.9520805 59.4027581,37.6974326 57.7020484,35.9987445 C57.0705968,35.3713642 56.1977903,35.0100604 55.3067419,35.0100604 C53.4390484,35.0100604 51.9193548,36.5266962 51.9193548,38.3906318 L51.9193548,47.6136821 C51.9193548,52.4058592 49.533871,56.8535372 45.5388871,59.511501 C44.8456935,59.9736338 44.0388387,60.2173038 43.2039194,60.2173038 L42.0967742,60.2173038 L42.0967742,57.416499 L36.483871,57.416499 L36.483871,46.2132797 L28.4055,46.2132797 C24.9409355,46.2132797 21.6840484,44.867493 19.2340161,42.4223903 L18.2419355,41.4323058 L17.2498548,42.4223903 C16.2900484,43.3802656 15.2039516,44.1630905 14.0322581,44.7680644 L14.0322581,14.0040241 L36.483871,14.0040241 L36.483871,22.4064386 L61.7419355,22.4064386 L61.7419355,14.0040241 L84.1935484,14.0040241 L84.1935484,60.2173038 C84.1935484,60.990326 83.5635,61.6177062 82.7903226,61.6177062 Z" id="Shape"></path>
                <polygon id="Path" points="16.8387097 5.60160966 19.6451613 5.60160966 19.6451613 8.40241449 16.8387097 8.40241449"></polygon>
                <polygon id="Path" points="22.4516129 5.60160966 25.2580645 5.60160966 25.2580645 8.40241449 22.4516129 8.40241449"></polygon>
                <polygon id="Path" points="28.0645161 5.60160966 30.8709677 5.60160966 30.8709677 8.40241449 28.0645161 8.40241449"></polygon>
                <polygon id="Path" points="78.5806452 5.60160966 81.3870968 5.60160966 81.3870968 8.40241449 78.5806452 8.40241449"></polygon>
                <polygon id="Path" points="67.3548387 5.60160966 70.1612903 5.60160966 70.1612903 8.40241449 67.3548387 8.40241449"></polygon>
                <polygon id="Path" points="72.9677419 5.60160966 75.7741935 5.60160966 75.7741935 8.40241449 72.9677419 8.40241449"></polygon>
                <polygon id="Path" points="16.8387097 22.4064386 19.6451613 22.4064386 19.6451613 25.2072435 16.8387097 25.2072435"></polygon>
                <polygon id="Path" points="16.8387097 16.804829 19.6451613 16.804829 19.6451613 19.6056338 16.8387097 19.6056338"></polygon>
                <polygon id="Path" points="16.8387097 28.0080483 19.6451613 28.0080483 19.6451613 39.2112676 16.8387097 39.2112676"></polygon>
                <polygon id="Path" points="63.1451613 50.4144869 75.7741935 50.4144869 75.7741935 53.2152918 63.1451613 53.2152918"></polygon>
            </g>
        </g>
    </g>
</svg>